SplineFontDB: 3.2
FontName: NotoMusic-Regular
FullName: Noto Music Regular
FamilyName: Noto Music
Weight: Book
Copyright: Copyright 2022 The Noto Project Authors https:github.comnotofontsmusic
Version: 2.3
ItalicAngle: 0
UnderlinePosition: -125
UnderlineWidth: 50
Ascent: 800
Descent: 200
InvalidEm: 0
sfntRevision: 0x000200c5
LayerCount: 2
Layer: 0 0 "Back" 1
Layer: 1 0 "Fore" 0
XUID: [1021 596 -667042339 14467374]
StyleMap: 0x0040
FSType: 0
OS2Version: 4
OS2_WeightWidthSlopeOnly: 0
OS2_UseTypoMetrics: 1
CreationTime: 1645550187
ModificationTime: 1728812725
PfmFamily: 17
TTFWeight: 400
TTFWidth: 5
LineGap: 0
VLineGap: 0
Panose: 2 11 5 2 4 5 4 2 2 4
OS2TypoAscent: 1389
OS2TypoAOffset: 0
OS2TypoDescent: -398
OS2TypoDOffset: 0
OS2TypoLinegap: 0
OS2WinAscent: 1645
OS2WinAOffset: 0
OS2WinDescent: 709
OS2WinDOffset: 0
HheadAscent: 1389
HheadAOffset: 0
HheadDescent: -398
HheadDOffset: 0
OS2SubXSize: 650
OS2SubYSize: 600
OS2SubXOff: 0
OS2SubYOff: 75
OS2SupXSize: 650
OS2SupYSize: 600
OS2SupXOff: 0
OS2SupYOff: 350
OS2StrikeYSize: 50
OS2StrikeYPos: 322
OS2CapHeight: 714
OS2XHeight: 536
OS2Vendor: 'GOOG'
OS2CodePages: 00000001.00000000
OS2UnicodeRanges: 00000003.02006000.01000000.00000000
Lookup: 1 0 0 "'aalt' Access All Alternates lookup 0" { "'aalt' Access All Alternates lookup 0 subtable"  } ['aalt' ('DFLT' <'dflt' > 'cyrl' <'MKD ' 'SRB ' 'dflt' > 'dev2' <'dflt' > 'grek' <'dflt' > 'latn' <'APPH' 'CAT ' 'IPPH' 'MAH ' 'MOL ' 'NAV ' 'ROM ' 'dflt' > 'musc' <'dflt' > ) ]
Lookup: 3 0 0 "'aalt' Access All Alternates lookup 1" { "'aalt' Access All Alternates lookup 1 subtable"  } ['aalt' ('DFLT' <'dflt' > 'cyrl' <'MKD ' 'SRB ' 'dflt' > 'dev2' <'dflt' > 'grek' <'dflt' > 'latn' <'APPH' 'CAT ' 'IPPH' 'MAH ' 'MOL ' 'NAV ' 'ROM ' 'dflt' > 'musc' <'dflt' > ) ]
Lookup: 2 8 0 "Multiple Substitution lookup 2" { "Multiple Substitution lookup 2 subtable"  } []
Lookup: 2 0 0 "Multiple Substitution lookup 3" { "Multiple Substitution lookup 3 subtable"  } []

StartChar: .notdef
Encoding: 1114112 -1 0
Width: 600
GlyphClass: 1
Flags: W
LayerCount: 2
Back
SplineSet
94 714 m 1
 505 714 l 1
 505 0 l 1
 94 0 l 1
 94 714 l 1
145 51 m 1
 454 51 l 1
 454 663 l 1
 145 663 l 1
 145 51 l 1
EndSplineSet
Fore
SplineSet
94 714 m 1
 505 714 l 1
 505 0 l 1
 94 0 l 1
 94 714 l 1
145 51 m 1
 454 51 l 1
 454 663 l 1
 145 663 l 1
 145 51 l 1
EndSplineSet
EndChar

StartChar: uni25CC
Encoding: 9676 9676 4
Width: 594
GlyphClass: 2
Flags: W
AnchorPoint: "Anchor-4" 297 -20 basechar 0
AnchorPoint: "Anchor-3" 297 567 basechar 0
AnchorPoint: "Anchor-2" 597 178 basechar 0
AnchorPoint: "Anchor-1" 297 -46 basechar 0
AnchorPoint: "Cursive-0" 432 1009 exit 0
LayerCount: 2
Back
SplineSet
297 540 m 0
 314 540 323 531 323 514 c 0
 323 496 314 487 297 487 c 0
 280 487 271 496 271 514 c 0
 271 531 280 540 297 540 c 0
383 523 m 0
 400 523 408 514 408 496 c 0
 408 479 400 470 383 470 c 0
 364 470 355 479 355 496 c 0
 355 514 364 523 383 523 c 0
212 523 m 0
 230 523 239 514 239 496 c 0
 239 479 230 470 212 470 c 0
 195 470 186 479 186 496 c 0
 186 514 195 523 212 523 c 0
455 475 m 0
 472 475 480 466 480 448 c 0
 480 431 472 422 455 422 c 0
 437 422 428 431 428 448 c 0
 428 466 437 475 455 475 c 0
140 475 m 0
 158 475 167 466 167 448 c 0
 167 431 158 422 140 422 c 0
 123 422 114 430 114 447 c 0
 114 466 123 475 140 475 c 0
503 402 m 0
 520 402 529 393 529 376 c 0
 529 358 520 349 502 349 c 0
 485 349 476 358 476 376 c 0
 476 393 485 402 503 402 c 0
92 402 m 0
 109 402 118 393 118 376 c 0
 118 358 110 349 93 349 c 0
 74 349 65 358 65 376 c 0
 65 393 74 402 92 402 c 0
521 317 m 0
 538 317 546 308 546 291 c 0
 546 274 538 265 521 265 c 0
 503 265 494 274 494 291 c 0
 494 308 503 317 521 317 c 0
75 317 m 0
 92 317 101 308 101 291 c 0
 101 274 92 265 75 265 c 0
 57 265 48 274 48 291 c 0
 48 308 57 317 75 317 c 0
502 233 m 0
 520 233 529 224 529 206 c 0
 529 189 520 180 502 180 c 0
 485 180 476 189 476 206 c 0
 476 224 485 233 502 233 c 0
92 233 m 0
 109 233 118 224 118 206 c 0
 118 189 109 180 92 180 c 0
 74 180 65 189 65 206 c 0
 65 224 74 233 92 233 c 0
455 160 m 0
 472 160 480 151 480 133 c 0
 480 116 472 107 455 107 c 0
 437 107 428 116 428 133 c 0
 428 151 437 160 455 160 c 0
140 160 m 0
 158 160 167 151 167 133 c 0
 167 116 158 107 140 107 c 0
 123 107 114 116 114 133 c 0
 114 151 123 160 140 160 c 0
383 112 m 0
 400 112 408 103 408 85 c 0
 408 68 400 60 383 60 c 0
 364 60 355 68 355 85 c 0
 355 103 364 112 383 112 c 0
212 112 m 0
 230 112 239 104 239 87 c 0
 239 69 230 60 212 60 c 0
 195 60 186 68 186 85 c 0
 186 103 195 112 212 112 c 0
297 95 m 0
 314 95 323 86 323 69 c 0
 323 51 314 42 297 42 c 0
 280 42 271 51 271 69 c 0
 271 86 280 95 297 95 c 0
EndSplineSet
Fore
SplineSet
297 540 m 0
 314 540 323 531 323 514 c 0
 323 496 314 487 297 487 c 0
 280 487 271 496 271 514 c 0
 271 531 280 540 297 540 c 0
383 523 m 0
 400 523 408 514 408 496 c 0
 408 479 400 470 383 470 c 0
 364 470 355 479 355 496 c 0
 355 514 364 523 383 523 c 0
212 523 m 0
 230 523 239 514 239 496 c 0
 239 479 230 470 212 470 c 0
 195 470 186 479 186 496 c 0
 186 514 195 523 212 523 c 0
455 475 m 0
 472 475 480 466 480 448 c 0
 480 431 472 422 455 422 c 0
 437 422 428 431 428 448 c 0
 428 466 437 475 455 475 c 0
140 475 m 0
 158 475 167 466 167 448 c 0
 167 431 158 422 140 422 c 0
 123 422 114 430 114 447 c 0
 114 466 123 475 140 475 c 0
503 402 m 0
 520 402 529 393 529 376 c 0
 529 358 520 349 502 349 c 0
 485 349 476 358 476 376 c 0
 476 393 485 402 503 402 c 0
92 402 m 0
 109 402 118 393 118 376 c 0
 118 358 110 349 93 349 c 0
 74 349 65 358 65 376 c 0
 65 393 74 402 92 402 c 0
521 317 m 0
 538 317 546 308 546 291 c 0
 546 274 538 265 521 265 c 0
 503 265 494 274 494 291 c 0
 494 308 503 317 521 317 c 0
75 317 m 0
 92 317 101 308 101 291 c 0
 101 274 92 265 75 265 c 0
 57 265 48 274 48 291 c 0
 48 308 57 317 75 317 c 0
502 233 m 0
 520 233 529 224 529 206 c 0
 529 189 520 180 502 180 c 0
 485 180 476 189 476 206 c 0
 476 224 485 233 502 233 c 0
92 233 m 0
 109 233 118 224 118 206 c 0
 118 189 109 180 92 180 c 0
 74 180 65 189 65 206 c 0
 65 224 74 233 92 233 c 0
455 160 m 0
 472 160 480 151 480 133 c 0
 480 116 472 107 455 107 c 0
 437 107 428 116 428 133 c 0
 428 151 437 160 455 160 c 0
140 160 m 0
 158 160 167 151 167 133 c 0
 167 116 158 107 140 107 c 0
 123 107 114 116 114 133 c 0
 114 151 123 160 140 160 c 0
383 112 m 0
 400 112 408 103 408 85 c 0
 408 68 400 60 383 60 c 0
 364 60 355 68 355 85 c 0
 355 103 364 112 383 112 c 0
212 112 m 0
 230 112 239 104 239 87 c 0
 239 69 230 60 212 60 c 0
 195 60 186 68 186 85 c 0
 186 103 195 112 212 112 c 0
297 95 m 0
 314 95 323 86 323 69 c 0
 323 51 314 42 297 42 c 0
 280 42 271 51 271 69 c 0
 271 86 280 95 297 95 c 0
EndSplineSet
EndChar

StartChar: uni2669
Encoding: 9833 9833 5
Width: 282
GlyphClass: 2
Flags: W
AnchorPoint: "Anchor-4" 136 -5 basechar 0
AnchorPoint: "Anchor-2" 282 114 basechar 0
AnchorPoint: "Anchor-1" 194 583 basechar 0
LayerCount: 2
Back
SplineSet
194 563 m 1
 231 563 l 1
 231 148 l 2
 231 68 177 14 107 14 c 0
 70 14 51 34 51 63 c 0
 51 114 99 157 150 157 c 0
 164 157 179 154 194 148 c 1
 194 563 l 1
EndSplineSet
Fore
SplineSet
194 563 m 1
 231 563 l 1
 231 148 l 2
 231 68 177 14 107 14 c 0
 70 14 51 34 51 63 c 0
 51 114 99 157 150 157 c 0
 164 157 179 154 194 148 c 1
 194 563 l 1
EndSplineSet
EndChar

StartChar: musicalnote
Encoding: 9834 9834 6
Width: 410
GlyphClass: 2
Flags: W
AnchorPoint: "Anchor-4" 136 -5 basechar 0
AnchorPoint: "Anchor-2" 409 163 basechar 0
AnchorPoint: "Anchor-1" 194 583 basechar 0
LayerCount: 2
Back
SplineSet
194 563 m 1
 231 563 l 1
 231 514 l 1
 305 420 l 2
 342 374 359 320 359 265 c 0
 359 216 344 172 313 133 c 1
 290 133 l 1
 309 174 318 214 318 254 c 0
 318 332 272 389 231 395 c 1
 231 148 l 2
 231 68 177 14 107 14 c 0
 70 14 51 34 51 63 c 0
 51 114 99 157 150 157 c 0
 164 157 179 154 194 148 c 1
 194 563 l 1
EndSplineSet
Fore
SplineSet
194 563 m 1
 231 563 l 1
 231 514 l 1
 305 420 l 2
 342 374 359 320 359 265 c 0
 359 216 344 172 313 133 c 1
 290 133 l 1
 309 174 318 214 318 254 c 0
 318 332 272 389 231 395 c 1
 231 148 l 2
 231 68 177 14 107 14 c 0
 70 14 51 34 51 63 c 0
 51 114 99 157 150 157 c 0
 164 157 179 154 194 148 c 1
 194 563 l 1
EndSplineSet
EndChar

StartChar: musicalnotedbl
Encoding: 9835 9835 7
Width: 586
GlyphClass: 2
Flags: W
AnchorPoint: "Anchor-4" 276 -31 basechar 0
AnchorPoint: "Anchor-3" 365 566 basechar 0
AnchorPoint: "Anchor-2" 586 69 basechar 0
LayerCount: 2
Back
SplineSet
499 451 m 1
 230 486 l 1
 230 157 l 2
 230 81 182 24 107 24 c 0
 70 24 51 42 51 72 c 0
 51 120 95 166 147 166 c 0
 164 166 179 163 194 157 c 1
 194 566 l 1
 535 521 l 1
 535 113 l 2
 535 30 474 -21 413 -21 c 0
 375 -21 357 -3 357 28 c 0
 357 81 404 122 455 122 c 0
 470 122 485 119 499 113 c 1
 499 451 l 1
EndSplineSet
Fore
SplineSet
499 451 m 1
 230 486 l 1
 230 157 l 2
 230 81 182 24 107 24 c 0
 70 24 51 42 51 72 c 0
 51 120 95 166 147 166 c 0
 164 166 179 163 194 157 c 1
 194 566 l 1
 535 521 l 1
 535 113 l 2
 535 30 474 -21 413 -21 c 0
 375 -21 357 -3 357 28 c 0
 357 81 404 122 455 122 c 0
 470 122 485 119 499 113 c 1
 499 451 l 1
EndSplineSet
EndChar

StartChar: uni266C
Encoding: 9836 9836 8
Width: 586
GlyphClass: 2
Flags: W
AnchorPoint: "Anchor-4" 312 -31 basechar 0
AnchorPoint: "Anchor-3" 364 566 basechar 0
AnchorPoint: "Anchor-2" 586 114 basechar 0
LayerCount: 2
Back
SplineSet
535 158 m 2
 535 74 474 24 413 24 c 0
 375 24 357 42 357 73 c 0
 357 126 404 167 455 167 c 0
 470 167 485 164 499 158 c 1
 499 377 l 1
 230 304 l 1
 230 112 l 2
 230 36 182 -21 107 -21 c 0
 70 -21 51 -2 51 27 c 0
 51 75 95 121 147 121 c 0
 164 121 179 118 194 112 c 1
 194 479 l 1
 535 566 l 1
 535 158 l 2
230 366 m 1
 499 439 l 1
 499 496 l 1
 230 422 l 1
 230 366 l 1
EndSplineSet
Fore
SplineSet
535 158 m 2
 535 74 474 24 413 24 c 0
 375 24 357 42 357 73 c 0
 357 126 404 167 455 167 c 0
 470 167 485 164 499 158 c 1
 499 377 l 1
 230 304 l 1
 230 112 l 2
 230 36 182 -21 107 -21 c 0
 70 -21 51 -2 51 27 c 0
 51 75 95 121 147 121 c 0
 164 121 179 118 194 112 c 1
 194 479 l 1
 535 566 l 1
 535 158 l 2
230 366 m 1
 499 439 l 1
 499 496 l 1
 230 422 l 1
 230 366 l 1
EndSplineSet
EndChar

StartChar: uni266D
Encoding: 9837 9837 9
Width: 299
GlyphClass: 1
Flags: W
LayerCount: 2
Back
SplineSet
50 615 m 1
 81 615 l 1
 81 225 l 1
 106 250 134 262 165 262 c 0
 208 262 249 232 249 178 c 0
 249 135 221 101 179 65 c 2
 110 6 l 2
 84 -16 65 -36 50 -55 c 1
 50 615 l 1
81 12 m 1
 115 49 139 81 153 105 c 0
 167 130 175 151 175 170 c 0
 175 207 154 223 134 223 c 0
 112 223 89 207 81 180 c 1
 81 12 l 1
EndSplineSet
Fore
SplineSet
50 615 m 1
 81 615 l 1
 81 225 l 1
 106 250 134 262 165 262 c 0
 208 262 249 232 249 178 c 0
 249 135 221 101 179 65 c 2
 110 6 l 2
 84 -16 65 -36 50 -55 c 1
 50 615 l 1
81 12 m 1
 115 49 139 81 153 105 c 0
 167 130 175 151 175 170 c 0
 175 207 154 223 134 223 c 0
 112 223 89 207 81 180 c 1
 81 12 l 1
EndSplineSet
EndChar

StartChar: uni266E
Encoding: 9838 9838 10
Width: 276
GlyphClass: 1
Flags: W
LayerCount: 2
Back
SplineSet
226 316 m 1
 226 -221 l 1
 195 -221 l 1
 195 -9 l 1
 50 -46 l 1
 50 486 l 1
 83 486 l 1
 83 279 l 1
 226 316 l 1
197 84 m 1
 197 212 l 1
 81 183 l 1
 81 56 l 1
 197 84 l 1
EndSplineSet
Fore
SplineSet
226 316 m 1
 226 -221 l 1
 195 -221 l 1
 195 -9 l 1
 50 -46 l 1
 50 486 l 1
 83 486 l 1
 83 279 l 1
 226 316 l 1
197 84 m 1
 197 212 l 1
 81 183 l 1
 81 56 l 1
 197 84 l 1
EndSplineSet
EndChar

StartChar: uni266F
Encoding: 9839 9839 11
Width: 325
GlyphClass: 1
Flags: W
LayerCount: 2
Back
SplineSet
97 46 m 1
 97 189 l 1
 50 177 l 1
 50 277 l 1
 97 290 l 1
 97 486 l 1
 128 486 l 1
 128 298 l 1
 195 314 l 1
 195 509 l 1
 226 509 l 1
 226 322 l 1
 275 333 l 1
 275 234 l 1
 226 220 l 1
 226 77 l 1
 275 89 l 1
 275 -14 l 1
 226 -26 l 1
 226 -214 l 1
 195 -214 l 1
 195 -34 l 1
 128 -52 l 1
 128 -247 l 1
 97 -247 l 1
 97 -59 l 1
 50 -71 l 1
 50 32 l 1
 97 46 l 1
195 70 m 1
 195 214 l 1
 128 197 l 1
 128 54 l 1
 195 70 l 1
EndSplineSet
Fore
SplineSet
97 46 m 1
 97 189 l 1
 50 177 l 1
 50 277 l 1
 97 290 l 1
 97 486 l 1
 128 486 l 1
 128 298 l 1
 195 314 l 1
 195 509 l 1
 226 509 l 1
 226 322 l 1
 275 333 l 1
 275 234 l 1
 226 220 l 1
 226 77 l 1
 275 89 l 1
 275 -14 l 1
 226 -26 l 1
 226 -214 l 1
 195 -214 l 1
 195 -34 l 1
 128 -52 l 1
 128 -247 l 1
 97 -247 l 1
 97 -59 l 1
 50 -71 l 1
 50 32 l 1
 97 46 l 1
195 70 m 1
 195 214 l 1
 128 197 l 1
 128 54 l 1
 195 70 l 1
EndSplineSet
EndChar

StartChar: u1D000
Encoding: 118784 118784 12
Width: 475
GlyphClass: 1
Flags: W
LayerCount: 2
Back
SplineSet
274 639 m 2
 274 679 292 714 330 714 c 0
 347 714 361 706 372 691 c 1
 354 498 l 1
 344 490 313 478 301 478 c 0
 292 478 289 482 284 492 c 0
 280 500 278 528 276 574 c 1
 103 569 l 1
 124 604 l 1
 274 614 l 1
 274 639 l 2
EndSplineSet
Fore
SplineSet
274 639 m 2
 274 679 292 714 330 714 c 0
 347 714 361 706 372 691 c 1
 354 498 l 1
 344 490 313 478 301 478 c 0
 292 478 289 482 284 492 c 0
 280 500 278 528 276 574 c 1
 103 569 l 1
 124 604 l 1
 274 614 l 1
 274 639 l 2
EndSplineSet
EndChar

StartChar: u1D001
Encoding: 118785 118785 13
Width: 475
GlyphClass: 1
Flags: W
LayerCount: 2
Back
SplineSet
200 577 m 1
 201 568 201 560 201 551 c 0
 201 514 183 478 145 478 c 0
 129 478 115 486 103 502 c 1
 121 694 l 1
 142 707 160 714 174 714 c 0
 188 714 196 698 197 665 c 2
 199 619 l 1
 372 624 l 1
 352 589 l 1
 200 577 l 1
EndSplineSet
Fore
SplineSet
200 577 m 1
 201 568 201 560 201 551 c 0
 201 514 183 478 145 478 c 0
 129 478 115 486 103 502 c 1
 121 694 l 1
 142 707 160 714 174 714 c 0
 188 714 196 698 197 665 c 2
 199 619 l 1
 372 624 l 1
 352 589 l 1
 200 577 l 1
EndSplineSet
EndChar

StartChar: u1D002
Encoding: 118786 118786 14
Width: 660
GlyphClass: 1
Flags: W
LayerCount: 2
Back
SplineSet
158 485 m 1
 134 493 116 504 103 518 c 1
 140 614 225 667 330 667 c 0
 437 667 520 611 556 518 c 1
 545 505 526 494 499 485 c 1
 456 567 405 602 330 602 c 0
 255 602 203 566 158 485 c 1
EndSplineSet
Fore
SplineSet
158 485 m 1
 134 493 116 504 103 518 c 1
 140 614 225 667 330 667 c 0
 437 667 520 611 556 518 c 1
 545 505 526 494 499 485 c 1
 456 567 405 602 330 602 c 0
 255 602 203 566 158 485 c 1
EndSplineSet
EndChar

StartChar: u1D003
Encoding: 118787 118787 15
Width: 800
GlyphClass: 1
Flags: W
LayerCount: 2
Back
SplineSet
588 509 m 1
 166 144 l 1
 103 142 l 1
 612 620 l 1
 697 620 l 1
 677 467 l 2
 673 461 669 455 664 449 c 0
 648 433 636 425 629 425 c 0
 615 425 607 432 604 446 c 2
 588 509 l 1
EndSplineSet
Fore
SplineSet
588 509 m 1
 166 144 l 1
 103 142 l 1
 612 620 l 1
 697 620 l 1
 677 467 l 2
 673 461 669 455 664 449 c 0
 648 433 636 425 629 425 c 0
 615 425 607 432 604 446 c 2
 588 509 l 1
EndSplineSet
EndChar

StartChar: u1D004
Encoding: 118788 118788 16
Width: 901
GlyphClass: 1
Flags: W
LayerCount: 2
Back
SplineSet
535 553 m 1
 163 193 l 1
 103 188 l 1
 541 642 l 1
 554 648 569 652 585 652 c 0
 600 652 612 650 620 647 c 1
 620 589 l 1
 607 559 l 2
 603 550 593 528 578 528 c 0
 573 528 561 532 547 543 c 2
 535 553 l 1
274 152 m 1
 210 146 l 1
 712 625 l 2
 723 631 738 636 750 635 c 2
 785 631 l 1
 798 550 l 1
 788 522 779 504 772 495 c 0
 765 487 758 481 750 481 c 0
 746 481 741 482 738 484 c 0
 734 486 718 500 689 527 c 1
 274 152 l 1
EndSplineSet
Fore
SplineSet
535 553 m 1
 163 193 l 1
 103 188 l 1
 541 642 l 1
 554 648 569 652 585 652 c 0
 600 652 612 650 620 647 c 1
 620 589 l 1
 607 559 l 2
 603 550 593 528 578 528 c 0
 573 528 561 532 547 543 c 2
 535 553 l 1
274 152 m 1
 210 146 l 1
 712 625 l 2
 723 631 738 636 750 635 c 2
 785 631 l 1
 798 550 l 1
 788 522 779 504 772 495 c 0
 765 487 758 481 750 481 c 0
 746 481 741 482 738 484 c 0
 734 486 718 500 689 527 c 1
 274 152 l 1
EndSplineSet
EndChar

StartChar: u1D005
Encoding: 118789 118789 17
Width: 671
GlyphClass: 1
Flags: W
LayerCount: 2
Back
SplineSet
103 598 m 1
 148 605 l 2
 152 606 159 607 161 607 c 0
 181 607 199 593 208 570 c 0
 218 546 229 528 239 518 c 2
 560 208 l 1
 568 154 l 1
 131 538 l 1
 103 598 l 1
EndSplineSet
Fore
SplineSet
103 598 m 1
 148 605 l 2
 152 606 159 607 161 607 c 0
 181 607 199 593 208 570 c 0
 218 546 229 528 239 518 c 2
 560 208 l 1
 568 154 l 1
 131 538 l 1
 103 598 l 1
EndSplineSet
EndChar

StartChar: u1D006
Encoding: 118790 118790 18
Width: 828
GlyphClass: 1
Flags: W
LayerCount: 2
Back
SplineSet
260 598 m 1
 308 605 l 2
 313 606 319 607 321 607 c 0
 341 607 359 588 371 558 c 0
 377 543 385 529 396 518 c 2
 718 208 l 1
 725 154 l 1
 288 538 l 1
 260 598 l 1
103 581 m 1
 149 588 l 2
 154 589 161 590 163 590 c 0
 182 590 199 575 208 554 c 0
 218 531 228 512 239 502 c 2
 560 208 l 1
 568 154 l 1
 131 520 l 1
 103 581 l 1
EndSplineSet
Fore
SplineSet
260 598 m 1
 308 605 l 2
 313 606 319 607 321 607 c 0
 341 607 359 588 371 558 c 0
 377 543 385 529 396 518 c 2
 718 208 l 1
 725 154 l 1
 288 538 l 1
 260 598 l 1
103 581 m 1
 149 588 l 2
 154 589 161 590 163 590 c 0
 182 590 199 575 208 554 c 0
 218 531 228 512 239 502 c 2
 560 208 l 1
 568 154 l 1
 131 520 l 1
 103 581 l 1
EndSplineSet
EndChar

StartChar: u1D007
Encoding: 118791 118791 19
Width: 694
GlyphClass: 1
Flags: W
LayerCount: 2
Back
SplineSet
208 444 m 1
 185 373 l 1
 189 360 205 353 232 353 c 0
 253 353 296 361 359 376 c 2
 426 392 l 2
 483 406 522 415 533 415 c 0
 549 415 563 402 573 375 c 0
 583 349 589 312 590 262 c 0
 590 254 589 247 589 239 c 1
 559 239 542 242 532 251 c 0
 517 265 512 277 505 292 c 0
 495 314 489 338 453 338 c 0
 450 338 439 338 428 337 c 2
 241 323 l 2
 230 322 220 322 211 322 c 0
 145 322 103 343 103 375 c 0
 103 410 114 445 136 476 c 1
 208 444 l 1
EndSplineSet
Fore
SplineSet
208 444 m 1
 185 373 l 1
 189 360 205 353 232 353 c 0
 253 353 296 361 359 376 c 2
 426 392 l 2
 483 406 522 415 533 415 c 0
 549 415 563 402 573 375 c 0
 583 349 589 312 590 262 c 0
 590 254 589 247 589 239 c 1
 559 239 542 242 532 251 c 0
 517 265 512 277 505 292 c 0
 495 314 489 338 453 338 c 0
 450 338 439 338 428 337 c 2
 241 323 l 2
 230 322 220 322 211 322 c 0
 145 322 103 343 103 375 c 0
 103 410 114 445 136 476 c 1
 208 444 l 1
EndSplineSet
EndChar

StartChar: u1D008
Encoding: 118792 118792 20
Width: 1080
GlyphClass: 1
Flags: W
LayerCount: 2
Back
SplineSet
338 425 m 0
 271 425 203 392 128 310 c 1
 103 334 l 1
 143 376 174 405 197 420 c 0
 243 450 299 474 373 474 c 0
 451 474 505 458 595 401 c 0
 684 344 724 323 780 323 c 0
 831 323 915 366 960 413 c 1
 977 390 l 1
 901 314 812 269 743 269 c 0
 683 269 628 286 579 319 c 0
 455 401 415 425 338 425 c 0
EndSplineSet
Fore
SplineSet
338 425 m 0
 271 425 203 392 128 310 c 1
 103 334 l 1
 143 376 174 405 197 420 c 0
 243 450 299 474 373 474 c 0
 451 474 505 458 595 401 c 0
 684 344 724 323 780 323 c 0
 831 323 915 366 960 413 c 1
 977 390 l 1
 901 314 812 269 743 269 c 0
 683 269 628 286 579 319 c 0
 455 401 415 425 338 425 c 0
EndSplineSet
EndChar

StartChar: u1D009
Encoding: 118793 118793 21
Width: 1018
GlyphClass: 1
Flags: W
LayerCount: 2
Back
SplineSet
228 502 m 1
 199 483 185 465 185 448 c 0
 185 426 199 415 226 415 c 0
 263 415 312 421 374 434 c 1
 377 415 l 1
 344 382 308 345 308 314 c 0
 308 298 317 290 336 290 c 0
 370 290 416 302 474 328 c 0
 532 354 664 425 871 542 c 1
 914 526 l 1
 689 394 536 309 455 269 c 0
 373 229 313 210 274 210 c 0
 230 210 208 240 208 276 c 0
 208 303 224 335 257 373 c 1
 244 371 232 370 219 370 c 0
 147 371 103 398 103 446 c 0
 103 472 117 497 145 521 c 1
 228 502 l 1
EndSplineSet
Fore
SplineSet
228 502 m 1
 199 483 185 465 185 448 c 0
 185 426 199 415 226 415 c 0
 263 415 312 421 374 434 c 1
 377 415 l 1
 344 382 308 345 308 314 c 0
 308 298 317 290 336 290 c 0
 370 290 416 302 474 328 c 0
 532 354 664 425 871 542 c 1
 914 526 l 1
 689 394 536 309 455 269 c 0
 373 229 313 210 274 210 c 0
 230 210 208 240 208 276 c 0
 208 303 224 335 257 373 c 1
 244 371 232 370 219 370 c 0
 147 371 103 398 103 446 c 0
 103 472 117 497 145 521 c 1
 228 502 l 1
EndSplineSet
EndChar

StartChar: u1D00A
Encoding: 118794 118794 22
Width: 388
GlyphClass: 1
Flags: W
LayerCount: 2
Back
SplineSet
103 434 m 1
 151 443 197 468 197 491 c 0
 197 497 192 503 181 508 c 0
 169 514 164 524 164 539 c 0
 164 563 193 578 222 578 c 0
 252 578 283 562 283 518 c 0
 283 458 210 408 128 408 c 1
 103 434 l 1
103 236 m 1
 146 242 197 268 197 293 c 0
 197 298 191 305 181 310 c 0
 169 316 164 325 164 340 c 0
 164 365 193 380 222 380 c 0
 252 380 283 363 283 319 c 0
 283 255 207 209 128 209 c 1
 103 236 l 1
EndSplineSet
Fore
SplineSet
103 434 m 1
 151 443 197 468 197 491 c 0
 197 497 192 503 181 508 c 0
 169 514 164 524 164 539 c 0
 164 563 193 578 222 578 c 0
 252 578 283 562 283 518 c 0
 283 458 210 408 128 408 c 1
 103 434 l 1
103 236 m 1
 146 242 197 268 197 293 c 0
 197 298 191 305 181 310 c 0
 169 316 164 325 164 340 c 0
 164 365 193 380 222 380 c 0
 252 380 283 363 283 319 c 0
 283 255 207 209 128 209 c 1
 103 236 l 1
EndSplineSet
EndChar

StartChar: u1D00B
Encoding: 118795 118795 23
Width: 481
GlyphClass: 1
Flags: W
LayerCount: 2
Back
SplineSet
145 636 m 1
 192 642 239 668 239 692 c 0
 239 700 233 707 223 710 c 0
 211 714 206 724 206 740 c 0
 206 766 235 779 262 779 c 0
 304 779 325 759 325 719 c 0
 325 660 256 611 170 611 c 1
 145 636 l 1
145 438 m 1
 192 443 239 470 239 494 c 0
 239 500 233 506 223 511 c 0
 211 517 206 527 206 541 c 0
 206 568 235 581 262 581 c 0
 304 581 325 561 325 520 c 0
 325 461 256 412 170 412 c 1
 145 438 l 1
103 175 m 1
 160 181 204 193 238 207 c 0
 271 221 287 238 287 257 c 0
 287 266 278 271 259 271 c 0
 234 271 215 287 215 314 c 0
 215 346 251 366 293 366 c 0
 340 366 377 338 377 287 c 0
 377 204 292 156 124 145 c 1
 103 175 l 1
EndSplineSet
Fore
SplineSet
145 636 m 1
 192 642 239 668 239 692 c 0
 239 700 233 707 223 710 c 0
 211 714 206 724 206 740 c 0
 206 766 235 779 262 779 c 0
 304 779 325 759 325 719 c 0
 325 660 256 611 170 611 c 1
 145 636 l 1
145 438 m 1
 192 443 239 470 239 494 c 0
 239 500 233 506 223 511 c 0
 211 517 206 527 206 541 c 0
 206 568 235 581 262 581 c 0
 304 581 325 561 325 520 c 0
 325 461 256 412 170 412 c 1
 145 438 l 1
103 175 m 1
 160 181 204 193 238 207 c 0
 271 221 287 238 287 257 c 0
 287 266 278 271 259 271 c 0
 234 271 215 287 215 314 c 0
 215 346 251 366 293 366 c 0
 340 366 377 338 377 287 c 0
 377 204 292 156 124 145 c 1
 103 175 l 1
EndSplineSet
EndChar

StartChar: u1D00C
Encoding: 118796 118796 24
Width: 892
GlyphClass: 1
Flags: W
LayerCount: 2
Back
SplineSet
200 288 m 1
 213 239 232 215 257 215 c 0
 284 215 331 244 399 300 c 0
 467 356 565 456 694 598 c 1
 787 598 l 1
 703 512 l 2
 582 388 483 292 404 234 c 0
 325 176 263 146 216 146 c 0
 153 146 116 191 103 282 c 1
 200 288 l 1
EndSplineSet
Fore
SplineSet
200 288 m 1
 213 239 232 215 257 215 c 0
 284 215 331 244 399 300 c 0
 467 356 565 456 694 598 c 1
 787 598 l 1
 703 512 l 2
 582 388 483 292 404 234 c 0
 325 176 263 146 216 146 c 0
 153 146 116 191 103 282 c 1
 200 288 l 1
EndSplineSet
EndChar

StartChar: u1D00D
Encoding: 118797 118797 25
Width: 682
GlyphClass: 1
Flags: W
LayerCount: 2
Back
SplineSet
103 174 m 1
 299 291 490 471 490 560 c 0
 490 582 479 593 456 593 c 0
 439 593 420 583 397 563 c 1
 361 611 l 1
 404 656 458 685 502 685 c 0
 552 685 577 663 577 619 c 0
 577 507 380 303 152 149 c 1
 103 174 l 1
EndSplineSet
Fore
SplineSet
103 174 m 1
 299 291 490 471 490 560 c 0
 490 582 479 593 456 593 c 0
 439 593 420 583 397 563 c 1
 361 611 l 1
 404 656 458 685 502 685 c 0
 552 685 577 663 577 619 c 0
 577 507 380 303 152 149 c 1
 103 174 l 1
EndSplineSet
EndChar

StartChar: u1D00E
Encoding: 118798 118798 26
Width: 674
GlyphClass: 1
Flags: W
LayerCount: 2
Back
SplineSet
103 170 m 1
 139 231 185 294 240 361 c 0
 350 493 449 570 509 570 c 0
 549 570 570 546 570 499 c 0
 570 460 546 412 510 377 c 1
 468 406 l 1
 483 427 491 445 491 460 c 0
 491 480 483 490 467 490 c 0
 395 490 246 333 136 127 c 1
 103 170 l 1
EndSplineSet
Fore
SplineSet
103 170 m 1
 139 231 185 294 240 361 c 0
 350 493 449 570 509 570 c 0
 549 570 570 546 570 499 c 0
 570 460 546 412 510 377 c 1
 468 406 l 1
 483 427 491 445 491 460 c 0
 491 480 483 490 467 490 c 0
 395 490 246 333 136 127 c 1
 103 170 l 1
EndSplineSet
EndChar

StartChar: u1D00F
Encoding: 118799 118799 27
Width: 743
GlyphClass: 1
Flags: W
LayerCount: 2
Back
SplineSet
348 352 m 1
 354 416 l 1
 345 423 341 435 341 452 c 0
 341 467 343 475 348 475 c 0
 383 465 409 454 424 442 c 0
 426 436 431 406 439 352 c 1
 479 354 526 359 581 370 c 0
 589 372 598 373 604 373 c 0
 628 373 640 363 640 343 c 0
 640 315 615 278 595 278 c 0
 590 278 582 284 571 296 c 0
 560 308 544 314 526 314 c 2
 442 312 l 1
 442 260 439 221 433 196 c 1
 396 196 370 200 355 209 c 1
 351 272 350 287 348 312 c 1
 292 312 248 318 232 318 c 0
 224 318 211 308 194 289 c 0
 177 270 160 260 144 260 c 0
 121 260 103 277 103 308 c 0
 103 324 112 336 129 343 c 0
 146 350 175 354 216 354 c 2
 348 352 l 1
EndSplineSet
Fore
SplineSet
348 352 m 1
 354 416 l 1
 345 423 341 435 341 452 c 0
 341 467 343 475 348 475 c 0
 383 465 409 454 424 442 c 0
 426 436 431 406 439 352 c 1
 479 354 526 359 581 370 c 0
 589 372 598 373 604 373 c 0
 628 373 640 363 640 343 c 0
 640 315 615 278 595 278 c 0
 590 278 582 284 571 296 c 0
 560 308 544 314 526 314 c 2
 442 312 l 1
 442 260 439 221 433 196 c 1
 396 196 370 200 355 209 c 1
 351 272 350 287 348 312 c 1
 292 312 248 318 232 318 c 0
 224 318 211 308 194 289 c 0
 177 270 160 260 144 260 c 0
 121 260 103 277 103 308 c 0
 103 324 112 336 129 343 c 0
 146 350 175 354 216 354 c 2
 348 352 l 1
EndSplineSet
EndChar

StartChar: u1D010
Encoding: 118800 118800 28
Width: 655
GlyphClass: 1
Flags: W
LayerCount: 2
Back
SplineSet
329 481 m 0
 360 481 386 455 386 424 c 0
 386 391 360 365 329 365 c 0
 296 365 269 391 269 424 c 0
 269 455 296 481 329 481 c 0
163 403 m 0
 194 403 218 375 218 344 c 0
 218 312 194 287 163 287 c 0
 131 287 103 312 103 344 c 0
 103 375 131 403 163 403 c 0
494 403 m 0
 526 403 552 375 552 344 c 0
 552 313 527 287 494 287 c 0
 463 287 434 312 434 344 c 0
 434 374 463 403 494 403 c 0
EndSplineSet
Fore
SplineSet
329 481 m 0
 360 481 386 455 386 424 c 0
 386 391 360 365 329 365 c 0
 296 365 269 391 269 424 c 0
 269 455 296 481 329 481 c 0
163 403 m 0
 194 403 218 375 218 344 c 0
 218 312 194 287 163 287 c 0
 131 287 103 312 103 344 c 0
 103 375 131 403 163 403 c 0
494 403 m 0
 526 403 552 375 552 344 c 0
 552 313 527 287 494 287 c 0
 463 287 434 312 434 344 c 0
 434 374 463 403 494 403 c 0
EndSplineSet
EndChar

StartChar: u1D011
Encoding: 118801 118801 29
Width: 584
GlyphClass: 1
Flags: W
LayerCount: 2
Back
SplineSet
103 174 m 1
 199 218 270 255 315 286 c 0
 360 317 383 340 383 355 c 0
 383 376 361 386 318 386 c 0
 306 386 294 385 282 383 c 1
 260 430 l 1
 295 445 336 452 383 452 c 0
 432 452 481 438 481 403 c 0
 481 372 453 337 400 296 c 0
 347 255 259 207 137 152 c 1
 103 174 l 1
EndSplineSet
Fore
SplineSet
103 174 m 1
 199 218 270 255 315 286 c 0
 360 317 383 340 383 355 c 0
 383 376 361 386 318 386 c 0
 306 386 294 385 282 383 c 1
 260 430 l 1
 295 445 336 452 383 452 c 0
 432 452 481 438 481 403 c 0
 481 372 453 337 400 296 c 0
 347 255 259 207 137 152 c 1
 103 174 l 1
EndSplineSet
EndChar

StartChar: u1D012
Encoding: 118802 118802 30
Width: 806
GlyphClass: 1
Flags: W
LayerCount: 2
Back
SplineSet
103 193 m 1
 185 233 255 274 313 315 c 0
 372 357 401 386 401 404 c 0
 401 420 389 428 366 428 c 0
 358 428 356 428 343 426 c 1
 338 474 l 1
 362 485 388 491 416 491 c 0
 481 491 506 467 506 439 c 0
 506 371 383 281 137 170 c 1
 103 193 l 1
301 173 m 1
 383 213 453 254 511 295 c 0
 569 336 598 366 598 383 c 0
 598 398 584 408 561 408 c 0
 554 408 546 407 539 406 c 1
 535 452 l 1
 558 463 584 469 613 469 c 0
 678 469 703 446 703 418 c 0
 703 387 673 348 613 303 c 0
 553 258 459 206 334 149 c 1
 301 173 l 1
EndSplineSet
Fore
SplineSet
103 193 m 1
 185 233 255 274 313 315 c 0
 372 357 401 386 401 404 c 0
 401 420 389 428 366 428 c 0
 358 428 356 428 343 426 c 1
 338 474 l 1
 362 485 388 491 416 491 c 0
 481 491 506 467 506 439 c 0
 506 371 383 281 137 170 c 1
 103 193 l 1
301 173 m 1
 383 213 453 254 511 295 c 0
 569 336 598 366 598 383 c 0
 598 398 584 408 561 408 c 0
 554 408 546 407 539 406 c 1
 535 452 l 1
 558 463 584 469 613 469 c 0
 678 469 703 446 703 418 c 0
 703 387 673 348 613 303 c 0
 553 258 459 206 334 149 c 1
 301 173 l 1
EndSplineSet
EndChar

StartChar: u1D013
Encoding: 118803 118803 31
Width: 1044
GlyphClass: 1
Flags: W
LayerCount: 2
Back
SplineSet
158 466 m 2
 179 466 198 457 215 439 c 0
 232 421 260 396 296 366 c 0
 370 305 451 271 541 271 c 0
 688 271 845 349 941 484 c 1
 941 418 l 1
 855 301 677 217 541 217 c 0
 466 217 399 228 340 251 c 0
 221 298 104 403 104 446 c 0
 104 459 115 466 136 466 c 2
 158 466 l 2
EndSplineSet
Fore
SplineSet
158 466 m 2
 179 466 198 457 215 439 c 0
 232 421 260 396 296 366 c 0
 370 305 451 271 541 271 c 0
 688 271 845 349 941 484 c 1
 941 418 l 1
 855 301 677 217 541 217 c 0
 466 217 399 228 340 251 c 0
 221 298 104 403 104 446 c 0
 104 459 115 466 136 466 c 2
 158 466 l 2
EndSplineSet
EndChar

StartChar: u1D014
Encoding: 118804 118804 32
Width: 604
GlyphClass: 1
Flags: W
LayerCount: 2
Back
SplineSet
149 458 m 1
 130 474 118 486 112 495 c 0
 106 503 103 512 103 521 c 1
 236 521 l 1
 244 601 282 672 318 672 c 0
 354 672 389 607 397 521 c 1
 499 521 l 1
 494 496 l 1
 401 496 l 1
 401 484 l 2
 401 381 373 330 318 330 c 0
 263 330 235 381 235 484 c 2
 235 496 l 1
 164 496 l 1
 175 475 l 1
 172 465 158 458 149 458 c 1
276 521 m 1
 355 521 l 1
 354 549 350 573 342 592 c 0
 334 611 326 620 318 620 c 0
 310 620 301 611 293 592 c 0
 285 573 279 549 276 521 c 1
360 490 m 2
 360 496 l 1
 276 496 l 1
 276 490 l 2
 276 427 290 395 318 395 c 0
 346 395 360 427 360 490 c 2
EndSplineSet
Fore
SplineSet
149 458 m 1
 130 474 118 486 112 495 c 0
 106 503 103 512 103 521 c 1
 236 521 l 1
 244 601 282 672 318 672 c 0
 354 672 389 607 397 521 c 1
 499 521 l 1
 494 496 l 1
 401 496 l 1
 401 484 l 2
 401 381 373 330 318 330 c 0
 263 330 235 381 235 484 c 2
 235 496 l 1
 164 496 l 1
 175 475 l 1
 172 465 158 458 149 458 c 1
276 521 m 1
 355 521 l 1
 354 549 350 573 342 592 c 0
 334 611 326 620 318 620 c 0
 310 620 301 611 293 592 c 0
 285 573 279 549 276 521 c 1
360 490 m 2
 360 496 l 1
 276 496 l 1
 276 490 l 2
 276 427 290 395 318 395 c 0
 346 395 360 427 360 490 c 2
EndSplineSet
EndChar

StartChar: u1D015
Encoding: 118805 118805 33
Width: 619
GlyphClass: 1
Flags: W
LayerCount: 2
Back
SplineSet
103 456 m 1
 117 495 176 528 224 528 c 0
 293 528 344 486 373 404 c 2
 403 320 l 2
 422 266 463 230 516 216 c 1
 502 210 488 208 475 208 c 0
 426 208 375 246 354 301 c 2
 318 396 l 2
 292 464 259 484 208 484 c 0
 175 484 141 475 103 456 c 1
206 304 m 0
 149 304 118 336 118 373 c 0
 118 412 149 442 206 442 c 0
 261 442 293 412 293 373 c 0
 293 336 261 304 206 304 c 0
206 406 m 0
 179 406 163 392 163 373 c 0
 163 354 179 340 206 340 c 0
 233 340 247 354 247 373 c 0
 247 392 233 406 206 406 c 0
EndSplineSet
Fore
SplineSet
103 456 m 1
 117 495 176 528 224 528 c 0
 293 528 344 486 373 404 c 2
 403 320 l 2
 422 266 463 230 516 216 c 1
 502 210 488 208 475 208 c 0
 426 208 375 246 354 301 c 2
 318 396 l 2
 292 464 259 484 208 484 c 0
 175 484 141 475 103 456 c 1
206 304 m 0
 149 304 118 336 118 373 c 0
 118 412 149 442 206 442 c 0
 261 442 293 412 293 373 c 0
 293 336 261 304 206 304 c 0
206 406 m 0
 179 406 163 392 163 373 c 0
 163 354 179 340 206 340 c 0
 233 340 247 354 247 373 c 0
 247 392 233 406 206 406 c 0
EndSplineSet
EndChar

StartChar: u1D016
Encoding: 118806 118806 34
Width: 517
GlyphClass: 1
Flags: W
LayerCount: 2
Back
SplineSet
179 474 m 1
 175 458 173 432 173 396 c 0
 173 375 175 357 180 342 c 0
 185 327 187 317 187 311 c 0
 187 292 173 283 146 283 c 0
 127 283 114 287 107 294 c 1
 109 391 l 2
 109 415 109 469 103 516 c 1
 344 496 l 1
 357 509 370 516 383 516 c 0
 403 516 413 501 413 491 c 0
 413 477 405 469 390 469 c 2
 179 474 l 1
296 301 m 0
 247 301 217 330 217 362 c 0
 217 397 247 425 296 425 c 0
 347 425 374 397 374 362 c 0
 374 330 347 301 296 301 c 0
296 391 m 0
 271 391 258 381 258 362 c 0
 258 343 271 334 296 334 c 0
 321 334 334 343 334 362 c 0
 334 381 321 391 296 391 c 0
EndSplineSet
Fore
SplineSet
179 474 m 1
 175 458 173 432 173 396 c 0
 173 375 175 357 180 342 c 0
 185 327 187 317 187 311 c 0
 187 292 173 283 146 283 c 0
 127 283 114 287 107 294 c 1
 109 391 l 2
 109 415 109 469 103 516 c 1
 344 496 l 1
 357 509 370 516 383 516 c 0
 403 516 413 501 413 491 c 0
 413 477 405 469 390 469 c 2
 179 474 l 1
296 301 m 0
 247 301 217 330 217 362 c 0
 217 397 247 425 296 425 c 0
 347 425 374 397 374 362 c 0
 374 330 347 301 296 301 c 0
296 391 m 0
 271 391 258 381 258 362 c 0
 258 343 271 334 296 334 c 0
 321 334 334 343 334 362 c 0
 334 381 321 391 296 391 c 0
EndSplineSet
EndChar

StartChar: u1D017
Encoding: 118807 118807 35
Width: 466
GlyphClass: 1
Flags: W
LayerCount: 2
Back
SplineSet
128 467 m 1
 166 445 192 415 208 377 c 1
 224 465 232 549 232 630 c 2
 232 654 l 1
 282 654 l 1
 282 551 272 455 251 366 c 1
 266 391 295 417 340 442 c 1
 361 408 l 1
 304 377 251 325 235 268 c 1
 190 274 l 1
 190 341 161 394 103 432 c 1
 128 467 l 1
EndSplineSet
Fore
SplineSet
128 467 m 1
 166 445 192 415 208 377 c 1
 224 465 232 549 232 630 c 2
 232 654 l 1
 282 654 l 1
 282 551 272 455 251 366 c 1
 266 391 295 417 340 442 c 1
 361 408 l 1
 304 377 251 325 235 268 c 1
 190 274 l 1
 190 341 161 394 103 432 c 1
 128 467 l 1
EndSplineSet
EndChar

StartChar: u1D018
Encoding: 118808 118808 36
Width: 511
GlyphClass: 1
Flags: W
LayerCount: 2
Back
SplineSet
355 294 m 1
 334 317 305 341 269 366 c 1
 200 294 l 1
 154 294 l 1
 228 391 l 1
 187 414 145 425 103 425 c 1
 103 484 l 1
 159 484 211 467 260 434 c 1
 312 504 l 1
 383 491 l 1
 302 404 l 1
 325 385 344 367 362 347 c 0
 379 328 395 310 408 294 c 1
 355 294 l 1
EndSplineSet
Fore
SplineSet
355 294 m 1
 334 317 305 341 269 366 c 1
 200 294 l 1
 154 294 l 1
 228 391 l 1
 187 414 145 425 103 425 c 1
 103 484 l 1
 159 484 211 467 260 434 c 1
 312 504 l 1
 383 491 l 1
 302 404 l 1
 325 385 344 367 362 347 c 0
 379 328 395 310 408 294 c 1
 355 294 l 1
EndSplineSet
EndChar

StartChar: u1D019
Encoding: 118809 118809 37
Width: 664
GlyphClass: 1
Flags: W
LayerCount: 2
Back
SplineSet
526 502 m 1
 560 502 l 1
 560 449 537 413 498 413 c 0
 477 413 461 420 452 434 c 1
 412 432 l 1
 412 381 387 336 354 336 c 0
 322 336 301 370 301 422 c 1
 228 415 l 1
 261 403 278 382 278 353 c 0
 278 321 265 298 240 284 c 0
 214 270 168 262 103 262 c 1
 117 326 125 409 127 456 c 0
 129 500 132 524 142 539 c 0
 152 554 167 562 185 562 c 0
 219 562 236 540 236 494 c 0
 236 473 230 456 218 442 c 1
 301 448 l 1
 301 508 322 550 354 550 c 0
 367 550 379 545 388 533 c 0
 397 521 405 495 412 455 c 1
 442 456 l 1
 437 474 434 489 434 502 c 1
 469 502 l 1
 469 464 479 446 498 446 c 0
 517 446 526 464 526 502 c 1
163 425 m 1
 180 433 204 458 204 481 c 0
 204 501 198 511 185 511 c 0
 172 511 166 502 166 485 c 2
 163 425 l 1
330 449 m 1
 382 452 l 1
 378 483 369 498 354 498 c 0
 338 498 330 482 330 449 c 1
382 430 m 1
 330 425 l 1
 330 395 338 380 354 380 c 0
 369 380 378 396 382 430 c 1
152 302 m 1
 205 302 232 317 232 348 c 0
 232 379 209 395 163 395 c 1
 152 302 l 1
EndSplineSet
Fore
SplineSet
526 502 m 1
 560 502 l 1
 560 449 537 413 498 413 c 0
 477 413 461 420 452 434 c 1
 412 432 l 1
 412 381 387 336 354 336 c 0
 322 336 301 370 301 422 c 1
 228 415 l 1
 261 403 278 382 278 353 c 0
 278 321 265 298 240 284 c 0
 214 270 168 262 103 262 c 1
 117 326 125 409 127 456 c 0
 129 500 132 524 142 539 c 0
 152 554 167 562 185 562 c 0
 219 562 236 540 236 494 c 0
 236 473 230 456 218 442 c 1
 301 448 l 1
 301 508 322 550 354 550 c 0
 367 550 379 545 388 533 c 0
 397 521 405 495 412 455 c 1
 442 456 l 1
 437 474 434 489 434 502 c 1
 469 502 l 1
 469 464 479 446 498 446 c 0
 517 446 526 464 526 502 c 1
163 425 m 1
 180 433 204 458 204 481 c 0
 204 501 198 511 185 511 c 0
 172 511 166 502 166 485 c 2
 163 425 l 1
330 449 m 1
 382 452 l 1
 378 483 369 498 354 498 c 0
 338 498 330 482 330 449 c 1
382 430 m 1
 330 425 l 1
 330 395 338 380 354 380 c 0
 369 380 378 396 382 430 c 1
152 302 m 1
 205 302 232 317 232 348 c 0
 232 379 209 395 163 395 c 1
 152 302 l 1
EndSplineSet
EndChar

StartChar: u1D01A
Encoding: 118810 118810 38
Width: 646
GlyphClass: 1
Flags: W
LayerCount: 2
Back
SplineSet
541 348 m 1
 252 344 l 2
 229 344 212 342 200 337 c 0
 187 332 176 330 166 330 c 0
 131 330 103 353 103 372 c 0
 103 385 122 393 151 393 c 0
 154 393 165 393 182 392 c 2
 517 377 l 1
 541 348 l 1
EndSplineSet
Fore
SplineSet
541 348 m 1
 252 344 l 2
 229 344 212 342 200 337 c 0
 187 332 176 330 166 330 c 0
 131 330 103 353 103 372 c 0
 103 385 122 393 151 393 c 0
 154 393 165 393 182 392 c 2
 517 377 l 1
 541 348 l 1
EndSplineSet
EndChar

StartChar: u1D01B
Encoding: 118811 118811 39
Width: 323
GlyphClass: 1
Flags: W
LayerCount: 2
Back
SplineSet
163 388 m 0
 194 388 218 361 218 330 c 0
 218 299 194 271 163 271 c 0
 131 271 103 299 103 330 c 0
 103 361 131 388 163 388 c 0
EndSplineSet
Fore
SplineSet
163 388 m 0
 194 388 218 361 218 330 c 0
 218 299 194 271 163 271 c 0
 131 271 103 299 103 330 c 0
 103 361 131 388 163 388 c 0
EndSplineSet
EndChar

StartChar: u1D01C
Encoding: 118812 118812 40
Width: 481
GlyphClass: 1
Flags: W
LayerCount: 2
Back
SplineSet
319 469 m 0
 353 469 377 444 377 413 c 0
 377 382 353 354 319 354 c 0
 288 354 260 382 260 413 c 0
 260 444 288 469 319 469 c 0
163 388 m 0
 194 388 218 361 218 330 c 0
 218 299 194 271 163 271 c 0
 131 271 103 299 103 330 c 0
 103 361 131 388 163 388 c 0
EndSplineSet
Fore
SplineSet
319 469 m 0
 353 469 377 444 377 413 c 0
 377 382 353 354 319 354 c 0
 288 354 260 382 260 413 c 0
 260 444 288 469 319 469 c 0
163 388 m 0
 194 388 218 361 218 330 c 0
 218 299 194 271 163 271 c 0
 131 271 103 299 103 330 c 0
 103 361 131 388 163 388 c 0
EndSplineSet
EndChar

StartChar: u1D01D
Encoding: 118813 118813 41
Width: 571
GlyphClass: 1
Flags: W
LayerCount: 2
Back
SplineSet
287 390 m 0
 311 390 330 373 330 346 c 0
 330 322 311 302 287 302 c 0
 260 302 242 322 242 346 c 0
 242 373 260 390 287 390 c 0
425 390 m 0
 449 390 468 373 468 346 c 0
 468 322 449 302 425 302 c 0
 401 302 382 322 382 346 c 0
 382 373 401 390 425 390 c 0
146 390 m 0
 173 390 190 373 190 346 c 0
 190 322 173 302 146 302 c 0
 122 302 103 322 103 346 c 0
 103 373 122 390 146 390 c 0
EndSplineSet
Fore
SplineSet
287 390 m 0
 311 390 330 373 330 346 c 0
 330 322 311 302 287 302 c 0
 260 302 242 322 242 346 c 0
 242 373 260 390 287 390 c 0
425 390 m 0
 449 390 468 373 468 346 c 0
 468 322 449 302 425 302 c 0
 401 302 382 322 382 346 c 0
 382 373 401 390 425 390 c 0
146 390 m 0
 173 390 190 373 190 346 c 0
 190 322 173 302 146 302 c 0
 122 302 103 322 103 346 c 0
 103 373 122 390 146 390 c 0
EndSplineSet
EndChar

StartChar: u1D01E
Encoding: 118814 118814 42
Width: 719
GlyphClass: 1
Flags: W
LayerCount: 2
Back
SplineSet
276 416 m 1
 228 426 l 1
 282 478 l 1
 258 492 234 499 209 499 c 1
 209 535 l 1
 248 530 281 519 308 504 c 1
 344 539 l 1
 380 530 l 1
 336 484 l 1
 356 468 376 446 397 418 c 1
 365 418 l 1
 351 434 334 448 314 460 c 1
 276 416 l 1
240 236 m 1
 240 248 l 2
 240 307 224 355 197 355 c 0
 188 355 178 348 165 333 c 0
 152 318 140 312 131 312 c 0
 112 312 103 322 103 343 c 0
 103 371 139 401 188 401 c 0
 250 401 268 366 269 278 c 1
 331 364 390 388 474 388 c 2
 503 388 l 2
 542 388 562 396 562 412 c 0
 562 419 558 425 551 425 c 0
 544 425 521 431 521 455 c 0
 521 478 542 491 562 491 c 0
 597 491 614 469 614 425 c 0
 614 375 585 347 522 343 c 0
 463 339 415 334 388 329 c 0
 334 318 297 284 266 226 c 1
 240 236 l 1
EndSplineSet
Fore
SplineSet
276 416 m 1
 228 426 l 1
 282 478 l 1
 258 492 234 499 209 499 c 1
 209 535 l 1
 248 530 281 519 308 504 c 1
 344 539 l 1
 380 530 l 1
 336 484 l 1
 356 468 376 446 397 418 c 1
 365 418 l 1
 351 434 334 448 314 460 c 1
 276 416 l 1
240 236 m 1
 240 248 l 2
 240 307 224 355 197 355 c 0
 188 355 178 348 165 333 c 0
 152 318 140 312 131 312 c 0
 112 312 103 322 103 343 c 0
 103 371 139 401 188 401 c 0
 250 401 268 366 269 278 c 1
 331 364 390 388 474 388 c 2
 503 388 l 2
 542 388 562 396 562 412 c 0
 562 419 558 425 551 425 c 0
 544 425 521 431 521 455 c 0
 521 478 542 491 562 491 c 0
 597 491 614 469 614 425 c 0
 614 375 585 347 522 343 c 0
 463 339 415 334 388 329 c 0
 334 318 297 284 266 226 c 1
 240 236 l 1
EndSplineSet
EndChar

StartChar: u1D01F
Encoding: 118815 118815 43
Width: 613
GlyphClass: 1
Flags: W
LayerCount: 2
Back
SplineSet
510 336 m 1
 366 336 l 1
 366 193 l 1
 311 193 l 1
 311 336 l 1
 200 336 l 1
 216 329 224 315 224 296 c 0
 224 263 179 215 113 180 c 1
 103 193 l 1
 150 229 174 262 174 294 c 0
 174 316 165 330 146 334 c 2
 137 336 l 1
 137 370 l 1
 311 370 l 1
 311 613 l 1
 388 613 l 1
 510 361 l 1
 510 336 l 1
366 568 m 1
 366 370 l 1
 463 370 l 1
 366 568 l 1
EndSplineSet
Fore
SplineSet
510 336 m 1
 366 336 l 1
 366 193 l 1
 311 193 l 1
 311 336 l 1
 200 336 l 1
 216 329 224 315 224 296 c 0
 224 263 179 215 113 180 c 1
 103 193 l 1
 150 229 174 262 174 294 c 0
 174 316 165 330 146 334 c 2
 137 336 l 1
 137 370 l 1
 311 370 l 1
 311 613 l 1
 388 613 l 1
 510 361 l 1
 510 336 l 1
366 568 m 1
 366 370 l 1
 463 370 l 1
 366 568 l 1
EndSplineSet
EndChar

StartChar: u1D020
Encoding: 118816 118816 44
Width: 589
GlyphClass: 1
Flags: W
LayerCount: 2
Back
SplineSet
103 319 m 1
 331 556 l 2
 344 570 358 576 369 576 c 0
 382 576 391 573 397 568 c 1
 167 329 l 2
 153 315 142 307 129 307 c 0
 120 307 111 311 103 319 c 1
190 301 m 1
 418 538 l 2
 430 551 443 558 458 558 c 0
 469 558 478 554 485 547 c 1
 257 310 l 2
 243 295 229 289 216 289 c 0
 207 289 198 293 190 301 c 1
EndSplineSet
Fore
SplineSet
103 319 m 1
 331 556 l 2
 344 570 358 576 369 576 c 0
 382 576 391 573 397 568 c 1
 167 329 l 2
 153 315 142 307 129 307 c 0
 120 307 111 311 103 319 c 1
190 301 m 1
 418 538 l 2
 430 551 443 558 458 558 c 0
 469 558 478 554 485 547 c 1
 257 310 l 2
 243 295 229 289 216 289 c 0
 207 289 198 293 190 301 c 1
EndSplineSet
EndChar

StartChar: u1D021
Encoding: 118817 118817 45
Width: 770
GlyphClass: 1
Flags: W
LayerCount: 2
Back
SplineSet
388 491 m 1
 424 490 l 1
 390 536 341 559 278 559 c 0
 236 559 213 553 208 538 c 0
 203 523 198 517 190 517 c 0
 165 517 128 548 128 569 c 0
 128 580 138 590 158 598 c 0
 178 606 209 611 251 611 c 0
 357 611 434 569 481 485 c 1
 499 485 l 2
 526 485 535 468 535 458 c 0
 535 449 527 444 510 444 c 2
 498 444 l 1
 505 419 509 397 509 377 c 0
 509 358 505 342 499 318 c 1
 532 334 560 343 582 343 c 0
 617 343 658 312 667 288 c 1
 631 259 l 1
 608 289 585 304 560 304 c 0
 533 304 491 287 463 271 c 1
 448 280 l 1
 455 320 458 351 458 373 c 0
 458 404 454 429 446 448 c 1
 397 452 l 1
 388 491 l 1
425 208 m 1
 136 442 l 2
 122 454 103 480 103 494 c 0
 103 502 109 506 121 506 c 0
 142 506 161 500 179 490 c 1
 188 469 l 1
 418 252 l 1
 425 208 l 1
EndSplineSet
Fore
SplineSet
388 491 m 1
 424 490 l 1
 390 536 341 559 278 559 c 0
 236 559 213 553 208 538 c 0
 203 523 198 517 190 517 c 0
 165 517 128 548 128 569 c 0
 128 580 138 590 158 598 c 0
 178 606 209 611 251 611 c 0
 357 611 434 569 481 485 c 1
 499 485 l 2
 526 485 535 468 535 458 c 0
 535 449 527 444 510 444 c 2
 498 444 l 1
 505 419 509 397 509 377 c 0
 509 358 505 342 499 318 c 1
 532 334 560 343 582 343 c 0
 617 343 658 312 667 288 c 1
 631 259 l 1
 608 289 585 304 560 304 c 0
 533 304 491 287 463 271 c 1
 448 280 l 1
 455 320 458 351 458 373 c 0
 458 404 454 429 446 448 c 1
 397 452 l 1
 388 491 l 1
425 208 m 1
 136 442 l 2
 122 454 103 480 103 494 c 0
 103 502 109 506 121 506 c 0
 142 506 161 500 179 490 c 1
 188 469 l 1
 418 252 l 1
 425 208 l 1
EndSplineSet
EndChar

StartChar: u1D022
Encoding: 118818 118818 46
Width: 734
GlyphClass: 1
Flags: W
LayerCount: 2
Back
SplineSet
591 344 m 2
 576 344 564 354 549 371 c 0
 540 381 527 394 512 406 c 0
 459 448 412 474 355 474 c 0
 252 474 156 418 103 336 c 1
 103 380 l 1
 156 456 267 510 355 510 c 0
 403 510 446 503 482 488 c 0
 556 458 629 382 629 357 c 0
 629 349 623 344 611 344 c 2
 591 344 l 2
EndSplineSet
Fore
SplineSet
591 344 m 2
 576 344 564 354 549 371 c 0
 540 381 527 394 512 406 c 0
 459 448 412 474 355 474 c 0
 252 474 156 418 103 336 c 1
 103 380 l 1
 156 456 267 510 355 510 c 0
 403 510 446 503 482 488 c 0
 556 458 629 382 629 357 c 0
 629 349 623 344 611 344 c 2
 591 344 l 2
EndSplineSet
EndChar

StartChar: u1D023
Encoding: 118819 118819 47
Width: 779
GlyphClass: 1
Flags: W
LayerCount: 2
Back
SplineSet
149 446 m 2
 164 446 174 440 184 429 c 0
 220 388 289 334 340 323 c 1
 345 333 348 344 348 354 c 0
 348 368 336 388 311 413 c 0
 307 417 304 421 304 425 c 0
 304 431 313 434 330 434 c 0
 361 434 388 403 388 362 c 0
 388 348 384 331 377 312 c 1
 424 312 l 1
 418 323 416 337 416 354 c 0
 416 395 444 426 475 426 c 0
 491 426 499 422 499 416 c 0
 499 412 492 403 478 389 c 0
 463 375 456 360 456 346 c 0
 456 337 458 328 463 319 c 1
 547 336 631 383 676 455 c 1
 676 412 l 1
 625 336 497 276 403 276 c 0
 358 276 313 286 267 301 c 0
 180 330 105 407 105 432 c 0
 105 441 111 446 124 446 c 2
 149 446 l 2
EndSplineSet
Fore
SplineSet
149 446 m 2
 164 446 174 440 184 429 c 0
 220 388 289 334 340 323 c 1
 345 333 348 344 348 354 c 0
 348 368 336 388 311 413 c 0
 307 417 304 421 304 425 c 0
 304 431 313 434 330 434 c 0
 361 434 388 403 388 362 c 0
 388 348 384 331 377 312 c 1
 424 312 l 1
 418 323 416 337 416 354 c 0
 416 395 444 426 475 426 c 0
 491 426 499 422 499 416 c 0
 499 412 492 403 478 389 c 0
 463 375 456 360 456 346 c 0
 456 337 458 328 463 319 c 1
 547 336 631 383 676 455 c 1
 676 412 l 1
 625 336 497 276 403 276 c 0
 358 276 313 286 267 301 c 0
 180 330 105 407 105 432 c 0
 105 441 111 446 124 446 c 2
 149 446 l 2
EndSplineSet
EndChar

StartChar: u1D024
Encoding: 118820 118820 48
Width: 467
GlyphClass: 1
Flags: W
LayerCount: 2
Back
SplineSet
106 422 m 2
 106 440 111 452 124 462 c 0
 126 465 130 466 135 466 c 0
 160 466 240 401 242 329 c 1
 250 345 259 363 272 383 c 0
 297 421 322 456 340 456 c 0
 354 456 362 452 362 444 c 0
 362 438 352 424 332 401 c 0
 314 381 295 350 281 321 c 0
 269 296 255 278 240 278 c 0
 232 278 220 280 218 291 c 0
 215 306 208 333 193 354 c 0
 173 382 138 404 106 412 c 1
 106 422 l 2
EndSplineSet
Fore
SplineSet
106 422 m 2
 106 440 111 452 124 462 c 0
 126 465 130 466 135 466 c 0
 160 466 240 401 242 329 c 1
 250 345 259 363 272 383 c 0
 297 421 322 456 340 456 c 0
 354 456 362 452 362 444 c 0
 362 438 352 424 332 401 c 0
 314 381 295 350 281 321 c 0
 269 296 255 278 240 278 c 0
 232 278 220 280 218 291 c 0
 215 306 208 333 193 354 c 0
 173 382 138 404 106 412 c 1
 106 422 l 2
EndSplineSet
EndChar

StartChar: u1D025
Encoding: 118821 118821 49
Width: 844
GlyphClass: 1
Flags: W
LayerCount: 2
Back
SplineSet
200 552 m 1
 194 526 l 2
 176 454 166 398 166 360 c 0
 166 321 175 302 193 302 c 0
 202 302 212 307 221 319 c 0
 230 331 246 359 268 404 c 1
 336 412 l 1
 332 392 330 373 330 355 c 0
 330 323 348 301 372 301 c 0
 457 301 659 498 733 578 c 1
 740 578 l 1
 584 389 431 268 354 268 c 0
 301 268 274 295 274 348 c 2
 274 355 l 1
 261 333 l 2
 238 293 210 271 179 271 c 0
 131 271 103 299 103 374 c 0
 103 397 119 490 132 546 c 1
 200 552 l 1
EndSplineSet
Fore
SplineSet
200 552 m 1
 194 526 l 2
 176 454 166 398 166 360 c 0
 166 321 175 302 193 302 c 0
 202 302 212 307 221 319 c 0
 230 331 246 359 268 404 c 1
 336 412 l 1
 332 392 330 373 330 355 c 0
 330 323 348 301 372 301 c 0
 457 301 659 498 733 578 c 1
 740 578 l 1
 584 389 431 268 354 268 c 0
 301 268 274 295 274 348 c 2
 274 355 l 1
 261 333 l 2
 238 293 210 271 179 271 c 0
 131 271 103 299 103 374 c 0
 103 397 119 490 132 546 c 1
 200 552 l 1
EndSplineSet
EndChar

StartChar: u1D026
Encoding: 118822 118822 50
Width: 581
GlyphClass: 1
Flags: W
LayerCount: 2
Back
SplineSet
432 232 m 1
 476 222 l 1
 401 156 l 2
 381 139 367 131 361 131 c 0
 352 131 336 137 336 146 c 0
 336 150 337 159 339 170 c 0
 341 179 360 251 396 380 c 1
 311 396 l 1
 324 381 331 371 331 365 c 0
 331 359 322 353 303 346 c 0
 284 339 264 336 242 336 c 0
 186 336 103 398 103 463 c 0
 103 537 206 593 323 593 c 0
 350 593 370 591 383 588 c 1
 383 571 l 1
 250 568 173 522 173 448 c 0
 173 412 200 370 228 370 c 0
 250 370 270 375 287 383 c 1
 276 400 266 412 257 418 c 1
 257 438 l 1
 467 418 l 1
 382 174 l 1
 383 174 l 1
 432 232 l 1
EndSplineSet
Fore
SplineSet
432 232 m 1
 476 222 l 1
 401 156 l 2
 381 139 367 131 361 131 c 0
 352 131 336 137 336 146 c 0
 336 150 337 159 339 170 c 0
 341 179 360 251 396 380 c 1
 311 396 l 1
 324 381 331 371 331 365 c 0
 331 359 322 353 303 346 c 0
 284 339 264 336 242 336 c 0
 186 336 103 398 103 463 c 0
 103 537 206 593 323 593 c 0
 350 593 370 591 383 588 c 1
 383 571 l 1
 250 568 173 522 173 448 c 0
 173 412 200 370 228 370 c 0
 250 370 270 375 287 383 c 1
 276 400 266 412 257 418 c 1
 257 438 l 1
 467 418 l 1
 382 174 l 1
 383 174 l 1
 432 232 l 1
EndSplineSet
EndChar

StartChar: u1D027
Encoding: 118823 118823 51
Width: 899
GlyphClass: 1
Flags: W
LayerCount: 2
Back
SplineSet
217 481 m 0
 279 481 319 438 329 360 c 1
 361 375 401 385 441 383 c 2
 589 377 l 2
 660 374 718 417 736 485 c 1
 794 491 l 1
 787 399 692 327 575 334 c 2
 397 344 l 2
 366 346 344 338 331 325 c 0
 332 321 332 317 332 313 c 0
 332 270 304 236 271 236 c 0
 257 236 250 247 250 269 c 0
 250 289 270 322 293 336 c 1
 291 392 265 426 228 426 c 0
 200 426 179 420 164 408 c 1
 170 401 174 395 174 388 c 0
 174 374 166 366 149 366 c 0
 129 366 103 388 103 416 c 0
 103 448 162 481 217 481 c 0
EndSplineSet
Fore
SplineSet
217 481 m 0
 279 481 319 438 329 360 c 1
 361 375 401 385 441 383 c 2
 589 377 l 2
 660 374 718 417 736 485 c 1
 794 491 l 1
 787 399 692 327 575 334 c 2
 397 344 l 2
 366 346 344 338 331 325 c 0
 332 321 332 317 332 313 c 0
 332 270 304 236 271 236 c 0
 257 236 250 247 250 269 c 0
 250 289 270 322 293 336 c 1
 291 392 265 426 228 426 c 0
 200 426 179 420 164 408 c 1
 170 401 174 395 174 388 c 0
 174 374 166 366 149 366 c 0
 129 366 103 388 103 416 c 0
 103 448 162 481 217 481 c 0
EndSplineSet
EndChar

StartChar: u1D028
Encoding: 118824 118824 52
Width: 1038
GlyphClass: 1
Flags: W
LayerCount: 2
Back
SplineSet
496 511 m 1
 515 478 525 449 527 426 c 1
 547 419 565 416 582 416 c 0
 634 416 667 451 667 496 c 1
 653 508 646 526 646 550 c 0
 646 557 646 563 647 570 c 1
 674 582 l 1
 687 540 708 509 763 509 c 0
 818 509 888 587 923 691 c 1
 935 691 l 1
 935 572 851 455 761 455 c 0
 734 455 715 459 703 468 c 1
 697 409 649 372 581 372 c 0
 555 372 535 375 521 380 c 1
 509 333 466 301 403 301 c 0
 372 301 351 304 340 310 c 1
 330 249 271 209 199 209 c 0
 146 209 103 224 103 260 c 0
 103 276 114 301 132 311 c 1
 139 276 162 259 200 259 c 0
 264 259 308 296 308 348 c 1
 292 361 283 380 283 404 c 0
 283 412 285 418 287 424 c 1
 312 434 l 1
 327 415 337 392 343 365 c 1
 353 353 373 346 404 346 c 0
 455 346 490 377 490 425 c 1
 475 439 467 458 467 481 c 0
 467 487 467 493 468 499 c 1
 496 511 l 1
EndSplineSet
Fore
SplineSet
496 511 m 1
 515 478 525 449 527 426 c 1
 547 419 565 416 582 416 c 0
 634 416 667 451 667 496 c 1
 653 508 646 526 646 550 c 0
 646 557 646 563 647 570 c 1
 674 582 l 1
 687 540 708 509 763 509 c 0
 818 509 888 587 923 691 c 1
 935 691 l 1
 935 572 851 455 761 455 c 0
 734 455 715 459 703 468 c 1
 697 409 649 372 581 372 c 0
 555 372 535 375 521 380 c 1
 509 333 466 301 403 301 c 0
 372 301 351 304 340 310 c 1
 330 249 271 209 199 209 c 0
 146 209 103 224 103 260 c 0
 103 276 114 301 132 311 c 1
 139 276 162 259 200 259 c 0
 264 259 308 296 308 348 c 1
 292 361 283 380 283 404 c 0
 283 412 285 418 287 424 c 1
 312 434 l 1
 327 415 337 392 343 365 c 1
 353 353 373 346 404 346 c 0
 455 346 490 377 490 425 c 1
 475 439 467 458 467 481 c 0
 467 487 467 493 468 499 c 1
 496 511 l 1
EndSplineSet
EndChar

StartChar: u1D029
Encoding: 118825 118825 53
Width: 934
GlyphClass: 1
Flags: W
LayerCount: 2
Back
SplineSet
809 697 m 1
 829 697 l 1
 590 460 l 2
 577 447 563 440 548 440 c 0
 538 440 528 442 518 449 c 2
 455 490 l 2
 447 495 443 501 443 510 c 0
 443 527 458 539 474 539 c 0
 489 539 518 521 562 487 c 1
 809 697 l 1
103 282 m 1
 103 302 l 1
 175 305 248 340 248 373 c 0
 248 378 246 384 242 390 c 1
 236 388 230 386 224 386 c 0
 210 386 187 396 187 416 c 0
 187 444 218 460 252 460 c 0
 293 460 318 438 318 404 c 0
 318 330 227 282 112 282 c 2
 103 282 l 1
526 235 m 1
 370 360 l 2
 356 371 349 383 349 394 c 0
 349 408 360 415 382 415 c 0
 394 415 408 410 425 401 c 1
 430 383 l 1
 518 276 l 1
 526 235 l 1
641 235 m 1
 485 360 l 2
 471 371 465 382 465 393 c 0
 465 408 476 415 498 415 c 0
 508 415 522 410 541 401 c 1
 546 383 l 1
 634 276 l 1
 641 235 l 1
EndSplineSet
Fore
SplineSet
809 697 m 1
 829 697 l 1
 590 460 l 2
 577 447 563 440 548 440 c 0
 538 440 528 442 518 449 c 2
 455 490 l 2
 447 495 443 501 443 510 c 0
 443 527 458 539 474 539 c 0
 489 539 518 521 562 487 c 1
 809 697 l 1
103 282 m 1
 103 302 l 1
 175 305 248 340 248 373 c 0
 248 378 246 384 242 390 c 1
 236 388 230 386 224 386 c 0
 210 386 187 396 187 416 c 0
 187 444 218 460 252 460 c 0
 293 460 318 438 318 404 c 0
 318 330 227 282 112 282 c 2
 103 282 l 1
526 235 m 1
 370 360 l 2
 356 371 349 383 349 394 c 0
 349 408 360 415 382 415 c 0
 394 415 408 410 425 401 c 1
 430 383 l 1
 518 276 l 1
 526 235 l 1
641 235 m 1
 485 360 l 2
 471 371 465 382 465 393 c 0
 465 408 476 415 498 415 c 0
 508 415 522 410 541 401 c 1
 546 383 l 1
 634 276 l 1
 641 235 l 1
EndSplineSet
EndChar

StartChar: u1D02A
Encoding: 118826 118826 54
Width: 1002
GlyphClass: 1
Flags: W
LayerCount: 2
Back
SplineSet
516 412 m 1
 531 412 538 406 538 395 c 0
 538 380 528 373 509 373 c 0
 491 373 458 389 458 401 c 0
 458 403 459 406 462 407 c 0
 464 409 466 411 466 413 c 0
 466 415 464 417 459 422 c 0
 455 427 452 433 452 439 c 0
 452 450 466 462 493 473 c 0
 520 484 551 490 588 490 c 0
 691 490 750 447 750 374 c 0
 750 358 749 344 747 335 c 0
 744 324 743 315 743 308 c 0
 743 275 751 259 766 259 c 0
 785 259 798 289 805 348 c 1
 844 338 l 1
 899 216 l 1
 895 209 887 206 878 206 c 0
 846 206 829 224 827 259 c 1
 821 259 l 1
 818 228 800 210 768 210 c 0
 727 210 703 234 703 265 c 2
 703 282 l 1
 646 235 587 228 538 228 c 0
 507 228 472 234 431 244 c 0
 390 254 350 259 310 259 c 0
 236 259 171 253 114 242 c 1
 103 262 l 1
 169 285 238 296 311 296 c 0
 350 296 390 293 434 288 c 0
 477 283 511 280 535 280 c 0
 633 280 698 312 698 370 c 0
 698 402 654 439 598 439 c 0
 559 439 531 431 516 416 c 1
 516 412 l 1
EndSplineSet
Fore
SplineSet
516 412 m 1
 531 412 538 406 538 395 c 0
 538 380 528 373 509 373 c 0
 491 373 458 389 458 401 c 0
 458 403 459 406 462 407 c 0
 464 409 466 411 466 413 c 0
 466 415 464 417 459 422 c 0
 455 427 452 433 452 439 c 0
 452 450 466 462 493 473 c 0
 520 484 551 490 588 490 c 0
 691 490 750 447 750 374 c 0
 750 358 749 344 747 335 c 0
 744 324 743 315 743 308 c 0
 743 275 751 259 766 259 c 0
 785 259 798 289 805 348 c 1
 844 338 l 1
 899 216 l 1
 895 209 887 206 878 206 c 0
 846 206 829 224 827 259 c 1
 821 259 l 1
 818 228 800 210 768 210 c 0
 727 210 703 234 703 265 c 2
 703 282 l 1
 646 235 587 228 538 228 c 0
 507 228 472 234 431 244 c 0
 390 254 350 259 310 259 c 0
 236 259 171 253 114 242 c 1
 103 262 l 1
 169 285 238 296 311 296 c 0
 350 296 390 293 434 288 c 0
 477 283 511 280 535 280 c 0
 633 280 698 312 698 370 c 0
 698 402 654 439 598 439 c 0
 559 439 531 431 516 416 c 1
 516 412 l 1
EndSplineSet
EndChar

StartChar: u1D02B
Encoding: 118827 118827 55
Width: 1207
GlyphClass: 1
Flags: W
LayerCount: 2
Back
SplineSet
476 365 m 1
 346 365 l 1
 346 269 l 1
 400 287 457 296 517 296 c 0
 555 296 595 293 638 288 c 0
 680 283 714 280 740 280 c 0
 840 280 905 314 905 370 c 0
 905 401 860 439 802 439 c 0
 758 439 729 426 719 416 c 1
 719 412 l 1
 735 412 743 406 743 395 c 0
 743 380 733 373 714 373 c 0
 694 373 664 389 664 401 c 0
 664 403 665 406 667 407 c 0
 670 409 671 411 671 413 c 0
 671 415 668 418 664 422 c 0
 658 428 656 433 656 439 c 0
 656 450 669 462 696 473 c 0
 723 484 755 490 792 490 c 0
 897 490 956 444 956 374 c 0
 956 358 955 347 952 335 c 0
 949 323 948 315 948 308 c 0
 948 275 956 259 971 259 c 0
 979 259 988 267 995 283 c 0
 1002 299 1007 321 1009 348 c 1
 1049 338 l 1
 1103 216 l 1
 1099 209 1091 206 1081 206 c 0
 1053 206 1036 224 1030 259 c 1
 1027 259 l 1
 1022 226 1004 210 973 210 c 0
 932 210 908 234 908 265 c 2
 908 282 l 1
 852 238 801 228 743 228 c 0
 712 228 675 234 632 244 c 0
 589 254 551 259 516 259 c 0
 449 259 383 251 319 235 c 1
 294 235 l 1
 294 365 l 1
 193 365 l 1
 208 353 215 341 215 329 c 0
 215 300 177 255 113 222 c 1
 103 235 l 1
 146 266 167 297 167 329 c 0
 167 346 157 358 136 365 c 1
 136 396 l 1
 294 396 l 1
 294 620 l 1
 365 620 l 1
 476 388 l 1
 476 365 l 1
346 577 m 1
 346 396 l 1
 433 396 l 1
 346 577 l 1
EndSplineSet
Fore
SplineSet
476 365 m 1
 346 365 l 1
 346 269 l 1
 400 287 457 296 517 296 c 0
 555 296 595 293 638 288 c 0
 680 283 714 280 740 280 c 0
 840 280 905 314 905 370 c 0
 905 401 860 439 802 439 c 0
 758 439 729 426 719 416 c 1
 719 412 l 1
 735 412 743 406 743 395 c 0
 743 380 733 373 714 373 c 0
 694 373 664 389 664 401 c 0
 664 403 665 406 667 407 c 0
 670 409 671 411 671 413 c 0
 671 415 668 418 664 422 c 0
 658 428 656 433 656 439 c 0
 656 450 669 462 696 473 c 0
 723 484 755 490 792 490 c 0
 897 490 956 444 956 374 c 0
 956 358 955 347 952 335 c 0
 949 323 948 315 948 308 c 0
 948 275 956 259 971 259 c 0
 979 259 988 267 995 283 c 0
 1002 299 1007 321 1009 348 c 1
 1049 338 l 1
 1103 216 l 1
 1099 209 1091 206 1081 206 c 0
 1053 206 1036 224 1030 259 c 1
 1027 259 l 1
 1022 226 1004 210 973 210 c 0
 932 210 908 234 908 265 c 2
 908 282 l 1
 852 238 801 228 743 228 c 0
 712 228 675 234 632 244 c 0
 589 254 551 259 516 259 c 0
 449 259 383 251 319 235 c 1
 294 235 l 1
 294 365 l 1
 193 365 l 1
 208 353 215 341 215 329 c 0
 215 300 177 255 113 222 c 1
 103 235 l 1
 146 266 167 297 167 329 c 0
 167 346 157 358 136 365 c 1
 136 396 l 1
 294 396 l 1
 294 620 l 1
 365 620 l 1
 476 388 l 1
 476 365 l 1
346 577 m 1
 346 396 l 1
 433 396 l 1
 346 577 l 1
EndSplineSet
EndChar

StartChar: u1D02C
Encoding: 118828 118828 56
Width: 971
GlyphClass: 1
Flags: W
LayerCount: 2
Back
SplineSet
850 629 m 1
 866 629 l 1
 502 296 l 2
 475 271 448 260 425 260 c 0
 402 260 378 271 355 293 c 1
 341 251 314 224 276 209 c 1
 280 193 282 171 282 144 c 1
 268 121 l 1
 266 144 260 171 251 204 c 1
 230 204 l 2
 155 204 103 244 103 283 c 0
 103 320 131 346 174 346 c 0
 217 346 250 306 268 250 c 1
 298 261 319 292 330 343 c 1
 330 352 l 2
 330 375 339 388 370 388 c 0
 391 388 401 383 401 372 c 2
 401 355 l 2
 401 324 409 308 425 308 c 0
 442 308 468 321 502 348 c 2
 850 629 l 1
156 282 m 0
 156 266 179 240 224 240 c 2
 239 240 l 1
 222 283 202 304 180 304 c 0
 164 304 156 297 156 282 c 0
EndSplineSet
Fore
SplineSet
850 629 m 1
 866 629 l 1
 502 296 l 2
 475 271 448 260 425 260 c 0
 402 260 378 271 355 293 c 1
 341 251 314 224 276 209 c 1
 280 193 282 171 282 144 c 1
 268 121 l 1
 266 144 260 171 251 204 c 1
 230 204 l 2
 155 204 103 244 103 283 c 0
 103 320 131 346 174 346 c 0
 217 346 250 306 268 250 c 1
 298 261 319 292 330 343 c 1
 330 352 l 2
 330 375 339 388 370 388 c 0
 391 388 401 383 401 372 c 2
 401 355 l 2
 401 324 409 308 425 308 c 0
 442 308 468 321 502 348 c 2
 850 629 l 1
156 282 m 0
 156 266 179 240 224 240 c 2
 239 240 l 1
 222 283 202 304 180 304 c 0
 164 304 156 297 156 282 c 0
EndSplineSet
EndChar

StartChar: u1D02D
Encoding: 118829 118829 57
Width: 958
GlyphClass: 1
Flags: W
LayerCount: 2
Back
SplineSet
467 546 m 1
 432 546 415 554 415 569 c 0
 415 597 471 629 528 629 c 0
 591 629 622 611 623 575 c 0
 623 570 623 565 622 560 c 1
 663 593 734 624 785 624 c 0
 825 624 854 604 854 581 c 0
 854 564 847 556 833 556 c 0
 819 556 818 561 809 573 c 0
 802 582 795 588 776 588 c 0
 755 588 732 581 707 572 c 0
 682 563 659 544 638 525 c 0
 626 514 610 509 599 509 c 0
 583 509 574 515 574 527 c 0
 574 532 576 538 579 543 c 0
 583 549 584 555 584 560 c 0
 584 565 581 572 572 581 c 0
 564 589 550 593 530 593 c 0
 488 593 467 577 467 546 c 1
463 439 m 1
 461 428 460 419 460 413 c 0
 460 382 475 355 502 355 c 0
 521 355 536 374 545 411 c 2
 551 435 l 2
 556 455 581 456 600 456 c 0
 607 456 617 456 624 455 c 1
 617 437 614 423 614 412 c 0
 614 377 622 360 655 360 c 0
 711 360 769 382 829 426 c 1
 830 424 l 1
 773 369 702 331 650 331 c 0
 591 331 578 354 578 401 c 2
 578 406 l 1
 562 352 530 319 487 319 c 0
 444 319 417 352 413 406 c 1
 373 406 l 1
 373 313 349 266 300 266 c 0
 244 266 222 311 222 406 c 1
 164 406 l 1
 164 394 167 382 173 370 c 1
 164 355 155 348 146 348 c 1
 117 372 103 402 103 439 c 1
 224 439 l 1
 232 518 267 577 300 577 c 0
 338 577 364 498 372 439 c 1
 463 439 l 1
260 439 m 1
 334 439 l 1
 332 465 328 486 320 503 c 0
 312 520 306 528 300 528 c 0
 292 528 284 520 276 503 c 0
 268 486 263 465 260 439 c 1
336 406 m 1
 260 406 l 1
 260 351 273 323 300 323 c 0
 322 323 334 351 336 406 c 1
EndSplineSet
Fore
SplineSet
467 546 m 1
 432 546 415 554 415 569 c 0
 415 597 471 629 528 629 c 0
 591 629 622 611 623 575 c 0
 623 570 623 565 622 560 c 1
 663 593 734 624 785 624 c 0
 825 624 854 604 854 581 c 0
 854 564 847 556 833 556 c 0
 819 556 818 561 809 573 c 0
 802 582 795 588 776 588 c 0
 755 588 732 581 707 572 c 0
 682 563 659 544 638 525 c 0
 626 514 610 509 599 509 c 0
 583 509 574 515 574 527 c 0
 574 532 576 538 579 543 c 0
 583 549 584 555 584 560 c 0
 584 565 581 572 572 581 c 0
 564 589 550 593 530 593 c 0
 488 593 467 577 467 546 c 1
463 439 m 1
 461 428 460 419 460 413 c 0
 460 382 475 355 502 355 c 0
 521 355 536 374 545 411 c 2
 551 435 l 2
 556 455 581 456 600 456 c 0
 607 456 617 456 624 455 c 1
 617 437 614 423 614 412 c 0
 614 377 622 360 655 360 c 0
 711 360 769 382 829 426 c 1
 830 424 l 1
 773 369 702 331 650 331 c 0
 591 331 578 354 578 401 c 2
 578 406 l 1
 562 352 530 319 487 319 c 0
 444 319 417 352 413 406 c 1
 373 406 l 1
 373 313 349 266 300 266 c 0
 244 266 222 311 222 406 c 1
 164 406 l 1
 164 394 167 382 173 370 c 1
 164 355 155 348 146 348 c 1
 117 372 103 402 103 439 c 1
 224 439 l 1
 232 518 267 577 300 577 c 0
 338 577 364 498 372 439 c 1
 463 439 l 1
260 439 m 1
 334 439 l 1
 332 465 328 486 320 503 c 0
 312 520 306 528 300 528 c 0
 292 528 284 520 276 503 c 0
 268 486 263 465 260 439 c 1
336 406 m 1
 260 406 l 1
 260 351 273 323 300 323 c 0
 322 323 334 351 336 406 c 1
EndSplineSet
EndChar

StartChar: u1D02E
Encoding: 118830 118830 58
Width: 1027
GlyphClass: 1
Flags: W
LayerCount: 2
Back
SplineSet
474 676 m 1
 379 620 256 510 149 383 c 1
 103 380 l 1
 206 502 293 593 366 653 c 0
 438 712 481 744 493 749 c 0
 503 753 516 754 530 755 c 0
 534 755 538 755 542 754 c 0
 551 741 556 728 556 714 c 0
 556 688 542 660 521 660 c 0
 517 660 500 666 474 676 c 1
215 344 m 1
 294 438 371 514 444 573 c 0
 523 636 561 664 571 667 c 0
 582 670 593 671 606 672 c 0
 611 672 617 672 622 671 c 0
 630 661 634 647 634 631 c 0
 634 604 622 577 602 577 c 0
 595 577 587 579 578 583 c 0
 568 587 560 590 552 593 c 1
 449 532 352 451 259 348 c 1
 215 344 l 1
923 397 m 0
 923 365 897 336 864 336 c 0
 840 336 822 346 811 366 c 1
 793 355 775 337 756 311 c 0
 720 260 694 224 667 224 c 0
 650 224 642 235 642 257 c 0
 642 324 600 381 533 406 c 1
 533 438 556 467 584 467 c 1
 624 449 682 357 682 285 c 2
 682 280 l 1
 755 398 815 458 863 458 c 0
 900 458 923 434 923 397 c 0
EndSplineSet
Fore
SplineSet
474 676 m 1
 379 620 256 510 149 383 c 1
 103 380 l 1
 206 502 293 593 366 653 c 0
 438 712 481 744 493 749 c 0
 503 753 516 754 530 755 c 0
 534 755 538 755 542 754 c 0
 551 741 556 728 556 714 c 0
 556 688 542 660 521 660 c 0
 517 660 500 666 474 676 c 1
215 344 m 1
 294 438 371 514 444 573 c 0
 523 636 561 664 571 667 c 0
 582 670 593 671 606 672 c 0
 611 672 617 672 622 671 c 0
 630 661 634 647 634 631 c 0
 634 604 622 577 602 577 c 0
 595 577 587 579 578 583 c 0
 568 587 560 590 552 593 c 1
 449 532 352 451 259 348 c 1
 215 344 l 1
923 397 m 0
 923 365 897 336 864 336 c 0
 840 336 822 346 811 366 c 1
 793 355 775 337 756 311 c 0
 720 260 694 224 667 224 c 0
 650 224 642 235 642 257 c 0
 642 324 600 381 533 406 c 1
 533 438 556 467 584 467 c 1
 624 449 682 357 682 285 c 2
 682 280 l 1
 755 398 815 458 863 458 c 0
 900 458 923 434 923 397 c 0
EndSplineSet
EndChar

StartChar: u1D02F
Encoding: 118831 118831 59
Width: 857
GlyphClass: 1
Flags: W
LayerCount: 2
Back
SplineSet
370 401 m 1
 667 708 l 1
 687 720 716 727 754 728 c 1
 746 697 l 2
 738 668 726 656 710 658 c 2
 694 660 l 1
 422 404 l 1
 370 401 l 1
498 360 m 1
 334 208 l 1
 262 188 l 1
 259 199 l 1
 426 354 l 1
 498 360 l 1
343 360 m 1
 179 208 l 1
 107 188 l 1
 103 199 l 1
 271 354 l 1
 343 360 l 1
EndSplineSet
Fore
SplineSet
370 401 m 1
 667 708 l 1
 687 720 716 727 754 728 c 1
 746 697 l 2
 738 668 726 656 710 658 c 2
 694 660 l 1
 422 404 l 1
 370 401 l 1
498 360 m 1
 334 208 l 1
 262 188 l 1
 259 199 l 1
 426 354 l 1
 498 360 l 1
343 360 m 1
 179 208 l 1
 107 188 l 1
 103 199 l 1
 271 354 l 1
 343 360 l 1
EndSplineSet
EndChar

StartChar: u1D030
Encoding: 118832 118832 60
Width: 650
GlyphClass: 1
Flags: W
LayerCount: 2
Back
SplineSet
218 340 m 1
 397 380 l 1
 487 634 l 1
 547 654 l 1
 426 343 l 1
 164 283 l 1
 121 466 l 2
 120 471 117 476 111 480 c 0
 106 485 103 489 103 494 c 0
 103 502 113 511 131 511 c 0
 169 511 182 499 187 476 c 2
 218 340 l 1
EndSplineSet
Fore
SplineSet
218 340 m 1
 397 380 l 1
 487 634 l 1
 547 654 l 1
 426 343 l 1
 164 283 l 1
 121 466 l 2
 120 471 117 476 111 480 c 0
 106 485 103 489 103 494 c 0
 103 502 113 511 131 511 c 0
 169 511 182 499 187 476 c 2
 218 340 l 1
EndSplineSet
EndChar

StartChar: u1D031
Encoding: 118833 118833 61
Width: 870
GlyphClass: 1
Flags: W
LayerCount: 2
Back
SplineSet
438 340 m 1
 614 380 l 1
 706 634 l 1
 766 654 l 1
 646 343 l 1
 382 283 l 1
 340 452 l 1
 146 247 l 1
 103 274 l 1
 323 487 l 2
 322 491 322 492 322 494 c 0
 322 505 331 511 348 511 c 0
 383 511 401 500 404 476 c 2
 438 340 l 1
EndSplineSet
Fore
SplineSet
438 340 m 1
 614 380 l 1
 706 634 l 1
 766 654 l 1
 646 343 l 1
 382 283 l 1
 340 452 l 1
 146 247 l 1
 103 274 l 1
 323 487 l 2
 322 491 322 492 322 494 c 0
 322 505 331 511 348 511 c 0
 383 511 401 500 404 476 c 2
 438 340 l 1
EndSplineSet
EndChar

StartChar: u1D032
Encoding: 118834 118834 62
Width: 1226
GlyphClass: 1
Flags: W
LayerCount: 2
Back
SplineSet
1100 978 m 1
 1123 978 l 1
 806 657 l 2
 788 639 767 631 750 631 c 0
 737 631 725 635 712 641 c 2
 629 677 l 2
 613 684 605 693 605 708 c 0
 605 728 622 754 647 754 c 0
 664 754 690 738 726 708 c 2
 758 682 l 1
 1100 978 l 1
569 619 m 1
 612 604 l 1
 487 494 l 1
 432 496 l 1
 569 619 l 1
642 577 m 1
 685 562 l 1
 562 452 l 1
 506 455 l 1
 642 577 l 1
779 448 m 1
 833 448 l 1
 599 232 l 1
 530 224 l 1
 779 448 l 1
884 418 m 1
 941 418 l 1
 706 204 l 1
 636 196 l 1
 884 418 l 1
103 236 m 1
 175 238 248 274 248 307 c 0
 248 313 246 318 242 323 c 1
 234 320 231 319 225 319 c 0
 210 320 187 329 187 352 c 0
 187 377 217 395 252 395 c 0
 293 395 318 370 318 338 c 0
 318 265 231 216 103 216 c 1
 103 236 l 1
262 208 m 1
 262 228 l 1
 336 230 409 266 409 298 c 0
 409 303 407 309 403 314 c 1
 395 312 391 311 385 311 c 0
 368 312 346 322 346 343 c 0
 346 370 377 386 413 386 c 0
 452 386 476 365 476 330 c 0
 476 256 388 208 271 208 c 2
 262 208 l 1
EndSplineSet
Fore
SplineSet
1100 978 m 1
 1123 978 l 1
 806 657 l 2
 788 639 767 631 750 631 c 0
 737 631 725 635 712 641 c 2
 629 677 l 2
 613 684 605 693 605 708 c 0
 605 728 622 754 647 754 c 0
 664 754 690 738 726 708 c 2
 758 682 l 1
 1100 978 l 1
569 619 m 1
 612 604 l 1
 487 494 l 1
 432 496 l 1
 569 619 l 1
642 577 m 1
 685 562 l 1
 562 452 l 1
 506 455 l 1
 642 577 l 1
779 448 m 1
 833 448 l 1
 599 232 l 1
 530 224 l 1
 779 448 l 1
884 418 m 1
 941 418 l 1
 706 204 l 1
 636 196 l 1
 884 418 l 1
103 236 m 1
 175 238 248 274 248 307 c 0
 248 313 246 318 242 323 c 1
 234 320 231 319 225 319 c 0
 210 320 187 329 187 352 c 0
 187 377 217 395 252 395 c 0
 293 395 318 370 318 338 c 0
 318 265 231 216 103 216 c 1
 103 236 l 1
262 208 m 1
 262 228 l 1
 336 230 409 266 409 298 c 0
 409 303 407 309 403 314 c 1
 395 312 391 311 385 311 c 0
 368 312 346 322 346 343 c 0
 346 370 377 386 413 386 c 0
 452 386 476 365 476 330 c 0
 476 256 388 208 271 208 c 2
 262 208 l 1
EndSplineSet
EndChar

StartChar: u1D033
Encoding: 118835 118835 63
Width: 962
GlyphClass: 1
Flags: W
LayerCount: 2
Back
SplineSet
806 569 m 1
 858 559 l 1
 620 344 l 1
 559 344 l 1
 806 569 l 1
103 304 m 1
 171 307 248 343 248 375 c 0
 248 380 246 386 242 391 c 1
 235 389 231 388 225 388 c 0
 210 388 187 396 187 418 c 0
 187 446 217 463 252 463 c 0
 291 463 318 441 318 406 c 0
 318 333 228 283 103 283 c 1
 103 304 l 1
262 276 m 1
 262 296 l 1
 333 298 409 334 409 367 c 0
 409 373 407 377 403 383 c 1
 394 380 390 379 384 379 c 0
 370 379 346 389 346 412 c 0
 346 439 377 455 413 455 c 0
 452 455 476 433 476 397 c 0
 476 325 386 276 271 276 c 2
 262 276 l 1
EndSplineSet
Fore
SplineSet
806 569 m 1
 858 559 l 1
 620 344 l 1
 559 344 l 1
 806 569 l 1
103 304 m 1
 171 307 248 343 248 375 c 0
 248 380 246 386 242 391 c 1
 235 389 231 388 225 388 c 0
 210 388 187 396 187 418 c 0
 187 446 217 463 252 463 c 0
 291 463 318 441 318 406 c 0
 318 333 228 283 103 283 c 1
 103 304 l 1
262 276 m 1
 262 296 l 1
 333 298 409 334 409 367 c 0
 409 373 407 377 403 383 c 1
 394 380 390 379 384 379 c 0
 370 379 346 389 346 412 c 0
 346 439 377 455 413 455 c 0
 452 455 476 433 476 397 c 0
 476 325 386 276 271 276 c 2
 262 276 l 1
EndSplineSet
EndChar

StartChar: u1D034
Encoding: 118836 118836 64
Width: 1027
GlyphClass: 1
Flags: W
LayerCount: 2
Back
SplineSet
722 412 m 1
 658 416 622 446 620 487 c 1
 416 338 l 1
 360 329 l 1
 665 593 l 2
 685 610 710 624 746 631 c 1
 763 728 l 2
 766 745 778 754 797 754 c 0
 813 754 823 738 820 718 c 2
 805 629 l 1
 872 613 923 559 923 494 c 0
 923 437 875 408 780 408 c 1
 776 290 l 1
 802 258 l 1
 792 225 775 209 749 209 c 0
 737 209 729 214 723 224 c 0
 717 233 712 251 714 276 c 2
 722 412 l 1
802 599 m 1
 786 458 l 1
 839 462 866 479 866 510 c 0
 866 551 835 591 802 599 c 1
727 463 m 1
 743 598 l 1
 703 583 682 547 682 510 c 0
 682 485 697 469 727 463 c 1
412 283 m 1
 476 283 l 1
 334 145 l 1
 257 132 l 1
 412 283 l 1
259 283 m 1
 325 283 l 1
 182 145 l 1
 103 132 l 1
 259 283 l 1
EndSplineSet
Fore
SplineSet
722 412 m 1
 658 416 622 446 620 487 c 1
 416 338 l 1
 360 329 l 1
 665 593 l 2
 685 610 710 624 746 631 c 1
 763 728 l 2
 766 745 778 754 797 754 c 0
 813 754 823 738 820 718 c 2
 805 629 l 1
 872 613 923 559 923 494 c 0
 923 437 875 408 780 408 c 1
 776 290 l 1
 802 258 l 1
 792 225 775 209 749 209 c 0
 737 209 729 214 723 224 c 0
 717 233 712 251 714 276 c 2
 722 412 l 1
802 599 m 1
 786 458 l 1
 839 462 866 479 866 510 c 0
 866 551 835 591 802 599 c 1
727 463 m 1
 743 598 l 1
 703 583 682 547 682 510 c 0
 682 485 697 469 727 463 c 1
412 283 m 1
 476 283 l 1
 334 145 l 1
 257 132 l 1
 412 283 l 1
259 283 m 1
 325 283 l 1
 182 145 l 1
 103 132 l 1
 259 283 l 1
EndSplineSet
EndChar

StartChar: u1D035
Encoding: 118837 118837 65
Width: 922
GlyphClass: 1
Flags: W
LayerCount: 2
Back
SplineSet
614 412 m 1
 554 416 518 443 516 487 c 1
 460 434 l 2
 345 325 274 276 224 276 c 0
 171 276 103 362 103 391 c 0
 103 415 121 434 145 434 c 0
 167 434 180 409 188 383 c 0
 196 356 204 330 240 330 c 0
 287 330 410 422 518 528 c 1
 535 581 581 622 641 631 c 1
 656 726 l 2
 659 744 672 754 691 754 c 0
 707 754 715 744 715 724 c 2
 698 629 l 1
 770 613 818 557 818 494 c 0
 818 437 771 408 676 408 c 1
 671 290 l 1
 697 258 l 1
 688 225 669 209 642 209 c 0
 630 209 622 214 616 224 c 0
 610 233 607 251 607 276 c 2
 614 412 l 1
697 599 m 1
 689 555 685 507 682 458 c 1
 735 462 761 479 761 510 c 0
 761 551 730 591 697 599 c 1
622 463 m 1
 636 598 l 1
 597 583 574 547 574 510 c 0
 574 485 590 470 622 463 c 1
EndSplineSet
Fore
SplineSet
614 412 m 1
 554 416 518 443 516 487 c 1
 460 434 l 2
 345 325 274 276 224 276 c 0
 171 276 103 362 103 391 c 0
 103 415 121 434 145 434 c 0
 167 434 180 409 188 383 c 0
 196 356 204 330 240 330 c 0
 287 330 410 422 518 528 c 1
 535 581 581 622 641 631 c 1
 656 726 l 2
 659 744 672 754 691 754 c 0
 707 754 715 744 715 724 c 2
 698 629 l 1
 770 613 818 557 818 494 c 0
 818 437 771 408 676 408 c 1
 671 290 l 1
 697 258 l 1
 688 225 669 209 642 209 c 0
 630 209 622 214 616 224 c 0
 610 233 607 251 607 276 c 2
 614 412 l 1
697 599 m 1
 689 555 685 507 682 458 c 1
 735 462 761 479 761 510 c 0
 761 551 730 591 697 599 c 1
622 463 m 1
 636 598 l 1
 597 583 574 547 574 510 c 0
 574 485 590 470 622 463 c 1
EndSplineSet
EndChar

StartChar: u1D036
Encoding: 118838 118838 66
Width: 744
GlyphClass: 1
Flags: W
LayerCount: 2
Back
SplineSet
455 355 m 1
 424 371 408 394 408 425 c 0
 408 454 424 477 455 494 c 1
 424 507 408 529 408 562 c 0
 408 592 423 615 452 631 c 1
 427 645 415 665 415 692 c 0
 415 701 418 709 422 718 c 1
 375 728 l 2
 293 746 243 757 226 757 c 0
 201 757 176 753 152 741 c 0
 128 729 113 724 108 724 c 0
 104 724 103 726 103 728 c 0
 103 757 177 809 239 809 c 0
 277 809 328 796 394 775 c 2
 438 761 l 1
 467 793 499 809 533 809 c 0
 578 809 595 787 595 769 c 0
 595 737 556 711 502 710 c 0
 493 710 484 711 475 712 c 1
 474 708 473 703 473 698 c 0
 474 679 488 667 502 664 c 1
 518 674 531 682 547 682 c 0
 571 682 588 667 588 650 c 0
 588 627 549 604 522 604 c 0
 516 604 505 606 490 611 c 1
 472 600 463 583 463 562 c 0
 463 542 472 527 491 517 c 1
 508 534 526 542 547 542 c 0
 571 542 588 530 588 516 c 0
 588 492 555 468 527 468 c 0
 509 468 502 470 490 474 c 1
 472 464 463 448 463 425 c 0
 463 404 472 389 491 380 c 1
 507 397 526 406 547 406 c 0
 574 406 588 396 588 377 c 0
 588 354 559 332 525 331 c 0
 512 331 500 333 490 336 c 1
 472 328 463 312 463 288 c 0
 463 257 490 236 530 236 c 0
 562 236 598 244 636 260 c 1
 641 242 l 1
 605 219 565 208 521 208 c 0
 449 208 408 238 408 288 c 0
 408 319 424 341 455 355 c 1
EndSplineSet
Fore
SplineSet
455 355 m 1
 424 371 408 394 408 425 c 0
 408 454 424 477 455 494 c 1
 424 507 408 529 408 562 c 0
 408 592 423 615 452 631 c 1
 427 645 415 665 415 692 c 0
 415 701 418 709 422 718 c 1
 375 728 l 2
 293 746 243 757 226 757 c 0
 201 757 176 753 152 741 c 0
 128 729 113 724 108 724 c 0
 104 724 103 726 103 728 c 0
 103 757 177 809 239 809 c 0
 277 809 328 796 394 775 c 2
 438 761 l 1
 467 793 499 809 533 809 c 0
 578 809 595 787 595 769 c 0
 595 737 556 711 502 710 c 0
 493 710 484 711 475 712 c 1
 474 708 473 703 473 698 c 0
 474 679 488 667 502 664 c 1
 518 674 531 682 547 682 c 0
 571 682 588 667 588 650 c 0
 588 627 549 604 522 604 c 0
 516 604 505 606 490 611 c 1
 472 600 463 583 463 562 c 0
 463 542 472 527 491 517 c 1
 508 534 526 542 547 542 c 0
 571 542 588 530 588 516 c 0
 588 492 555 468 527 468 c 0
 509 468 502 470 490 474 c 1
 472 464 463 448 463 425 c 0
 463 404 472 389 491 380 c 1
 507 397 526 406 547 406 c 0
 574 406 588 396 588 377 c 0
 588 354 559 332 525 331 c 0
 512 331 500 333 490 336 c 1
 472 328 463 312 463 288 c 0
 463 257 490 236 530 236 c 0
 562 236 598 244 636 260 c 1
 641 242 l 1
 605 219 565 208 521 208 c 0
 449 208 408 238 408 288 c 0
 408 319 424 341 455 355 c 1
EndSplineSet
EndChar

StartChar: u1D037
Encoding: 118839 118839 67
Width: 948
GlyphClass: 1
Flags: W
LayerCount: 2
Back
SplineSet
455 355 m 1
 424 371 408 394 408 425 c 0
 408 454 424 477 455 494 c 1
 424 507 408 529 408 562 c 0
 408 592 423 615 452 631 c 1
 427 645 415 665 415 692 c 0
 415 701 418 709 422 718 c 1
 375 728 l 2
 293 746 243 757 226 757 c 0
 201 757 176 753 152 741 c 0
 128 729 113 724 108 724 c 0
 104 724 103 726 103 728 c 0
 103 757 177 809 239 809 c 0
 277 809 328 796 394 775 c 2
 438 761 l 1
 467 793 499 809 533 809 c 0
 578 809 595 787 595 769 c 0
 595 737 556 711 502 710 c 0
 493 710 484 711 475 712 c 1
 474 708 473 703 473 698 c 0
 474 679 488 667 502 664 c 1
 518 674 531 682 547 682 c 0
 571 682 588 667 588 650 c 0
 588 627 549 604 522 604 c 0
 516 604 505 606 490 611 c 1
 472 600 463 583 463 562 c 0
 463 542 472 527 491 517 c 1
 508 534 526 542 547 542 c 0
 571 542 588 530 588 516 c 0
 588 492 555 468 527 468 c 0
 509 468 502 470 490 474 c 1
 472 464 463 448 463 425 c 0
 463 404 472 389 491 380 c 1
 507 397 526 406 547 406 c 0
 574 406 588 396 588 377 c 0
 588 354 559 332 525 331 c 0
 512 331 500 333 490 336 c 1
 472 328 463 312 463 288 c 0
 463 257 490 236 530 236 c 0
 562 236 598 244 636 260 c 1
 641 242 l 1
 605 219 565 208 521 208 c 0
 449 208 408 238 408 288 c 0
 408 319 424 341 455 355 c 1
671 584 m 1
 733 589 792 612 792 645 c 0
 792 655 781 658 767 660 c 0
 753 662 736 668 736 689 c 0
 736 708 758 726 787 726 c 0
 820 726 844 708 844 671 c 0
 844 607 780 568 677 568 c 1
 671 584 l 1
671 403 m 1
 708 406 737 413 759 425 c 0
 781 437 792 450 792 464 c 0
 792 474 781 477 768 479 c 0
 754 481 736 486 736 506 c 0
 736 527 758 542 787 542 c 0
 825 542 844 523 844 487 c 0
 844 420 774 383 677 383 c 1
 671 403 l 1
671 218 m 1
 735 226 792 250 792 280 c 0
 792 291 780 294 766 296 c 0
 751 298 736 307 736 323 c 0
 736 344 758 361 787 361 c 0
 825 361 844 342 844 304 c 0
 844 240 774 200 677 200 c 1
 671 218 l 1
EndSplineSet
Fore
SplineSet
455 355 m 1
 424 371 408 394 408 425 c 0
 408 454 424 477 455 494 c 1
 424 507 408 529 408 562 c 0
 408 592 423 615 452 631 c 1
 427 645 415 665 415 692 c 0
 415 701 418 709 422 718 c 1
 375 728 l 2
 293 746 243 757 226 757 c 0
 201 757 176 753 152 741 c 0
 128 729 113 724 108 724 c 0
 104 724 103 726 103 728 c 0
 103 757 177 809 239 809 c 0
 277 809 328 796 394 775 c 2
 438 761 l 1
 467 793 499 809 533 809 c 0
 578 809 595 787 595 769 c 0
 595 737 556 711 502 710 c 0
 493 710 484 711 475 712 c 1
 474 708 473 703 473 698 c 0
 474 679 488 667 502 664 c 1
 518 674 531 682 547 682 c 0
 571 682 588 667 588 650 c 0
 588 627 549 604 522 604 c 0
 516 604 505 606 490 611 c 1
 472 600 463 583 463 562 c 0
 463 542 472 527 491 517 c 1
 508 534 526 542 547 542 c 0
 571 542 588 530 588 516 c 0
 588 492 555 468 527 468 c 0
 509 468 502 470 490 474 c 1
 472 464 463 448 463 425 c 0
 463 404 472 389 491 380 c 1
 507 397 526 406 547 406 c 0
 574 406 588 396 588 377 c 0
 588 354 559 332 525 331 c 0
 512 331 500 333 490 336 c 1
 472 328 463 312 463 288 c 0
 463 257 490 236 530 236 c 0
 562 236 598 244 636 260 c 1
 641 242 l 1
 605 219 565 208 521 208 c 0
 449 208 408 238 408 288 c 0
 408 319 424 341 455 355 c 1
671 584 m 1
 733 589 792 612 792 645 c 0
 792 655 781 658 767 660 c 0
 753 662 736 668 736 689 c 0
 736 708 758 726 787 726 c 0
 820 726 844 708 844 671 c 0
 844 607 780 568 677 568 c 1
 671 584 l 1
671 403 m 1
 708 406 737 413 759 425 c 0
 781 437 792 450 792 464 c 0
 792 474 781 477 768 479 c 0
 754 481 736 486 736 506 c 0
 736 527 758 542 787 542 c 0
 825 542 844 523 844 487 c 0
 844 420 774 383 677 383 c 1
 671 403 l 1
671 218 m 1
 735 226 792 250 792 280 c 0
 792 291 780 294 766 296 c 0
 751 298 736 307 736 323 c 0
 736 344 758 361 787 361 c 0
 825 361 844 342 844 304 c 0
 844 240 774 200 677 200 c 1
 671 218 l 1
EndSplineSet
EndChar

StartChar: u1D038
Encoding: 118840 118840 68
Width: 624
GlyphClass: 1
Flags: W
LayerCount: 2
Back
SplineSet
288 449 m 0
 288 433 274 420 246 411 c 0
 217 402 184 397 146 397 c 0
 127 397 103 408 103 422 c 0
 103 437 112 444 131 444 c 0
 150 444 197 449 197 458 c 0
 197 465 179 473 145 486 c 0
 116 497 106 503 106 518 c 0
 106 532 122 539 154 539 c 0
 195 539 216 546 216 560 c 0
 216 568 206 578 185 589 c 0
 143 611 127 636 127 660 c 0
 127 711 191 757 271 757 c 0
 317 757 359 746 397 726 c 0
 474 685 520 607 520 533 c 0
 520 474 493 418 433 374 c 2
 343 307 l 2
 256 243 211 178 209 113 c 1
 131 52 l 1
 134 108 141 149 152 177 c 0
 173 231 207 269 293 327 c 0
 336 356 371 383 396 406 c 0
 447 453 467 491 467 528 c 0
 467 621 378 708 277 708 c 0
 247 708 223 703 209 694 c 0
 195 685 188 675 188 665 c 0
 188 659 195 653 205 645 c 0
 215 637 243 623 292 596 c 0
 314 584 325 569 325 552 c 0
 325 532 306 523 284 513 c 0
 275 509 265 506 256 503 c 0
 247 500 239 497 239 494 c 0
 239 491 247 487 251 485 c 0
 274 473 288 459 288 449 c 0
EndSplineSet
Fore
SplineSet
288 449 m 0
 288 433 274 420 246 411 c 0
 217 402 184 397 146 397 c 0
 127 397 103 408 103 422 c 0
 103 437 112 444 131 444 c 0
 150 444 197 449 197 458 c 0
 197 465 179 473 145 486 c 0
 116 497 106 503 106 518 c 0
 106 532 122 539 154 539 c 0
 195 539 216 546 216 560 c 0
 216 568 206 578 185 589 c 0
 143 611 127 636 127 660 c 0
 127 711 191 757 271 757 c 0
 317 757 359 746 397 726 c 0
 474 685 520 607 520 533 c 0
 520 474 493 418 433 374 c 2
 343 307 l 2
 256 243 211 178 209 113 c 1
 131 52 l 1
 134 108 141 149 152 177 c 0
 173 231 207 269 293 327 c 0
 336 356 371 383 396 406 c 0
 447 453 467 491 467 528 c 0
 467 621 378 708 277 708 c 0
 247 708 223 703 209 694 c 0
 195 685 188 675 188 665 c 0
 188 659 195 653 205 645 c 0
 215 637 243 623 292 596 c 0
 314 584 325 569 325 552 c 0
 325 532 306 523 284 513 c 0
 275 509 265 506 256 503 c 0
 247 500 239 497 239 494 c 0
 239 491 247 487 251 485 c 0
 274 473 288 459 288 449 c 0
EndSplineSet
EndChar

StartChar: u1D039
Encoding: 118841 118841 69
Width: 416
GlyphClass: 1
Flags: W
LayerCount: 2
Back
SplineSet
103 629 m 1
 148 634 184 643 211 655 c 0
 238 667 251 683 251 701 c 0
 251 707 245 711 236 713 c 2
 219 717 l 2
 202 721 182 728 182 749 c 0
 182 776 210 792 245 792 c 0
 290 792 312 771 312 727 c 0
 312 656 234 607 114 607 c 1
 103 629 l 1
103 424 m 1
 148 429 184 438 211 451 c 0
 238 464 251 479 251 496 c 0
 251 501 248 504 240 506 c 2
 216 512 l 2
 199 516 182 521 182 542 c 0
 182 569 210 588 245 588 c 0
 290 588 312 565 312 521 c 0
 312 450 237 403 114 403 c 1
 103 424 l 1
103 217 m 1
 185 227 251 252 251 290 c 0
 251 295 248 299 240 301 c 2
 216 306 l 2
 199 310 182 315 182 338 c 0
 182 362 210 382 245 382 c 0
 284 382 312 362 312 318 c 0
 312 245 235 197 114 197 c 1
 103 217 l 1
EndSplineSet
Fore
SplineSet
103 629 m 1
 148 634 184 643 211 655 c 0
 238 667 251 683 251 701 c 0
 251 707 245 711 236 713 c 2
 219 717 l 2
 202 721 182 728 182 749 c 0
 182 776 210 792 245 792 c 0
 290 792 312 771 312 727 c 0
 312 656 234 607 114 607 c 1
 103 629 l 1
103 424 m 1
 148 429 184 438 211 451 c 0
 238 464 251 479 251 496 c 0
 251 501 248 504 240 506 c 2
 216 512 l 2
 199 516 182 521 182 542 c 0
 182 569 210 588 245 588 c 0
 290 588 312 565 312 521 c 0
 312 450 237 403 114 403 c 1
 103 424 l 1
103 217 m 1
 185 227 251 252 251 290 c 0
 251 295 248 299 240 301 c 2
 216 306 l 2
 199 310 182 315 182 338 c 0
 182 362 210 382 245 382 c 0
 284 382 312 362 312 318 c 0
 312 245 235 197 114 197 c 1
 103 217 l 1
EndSplineSet
EndChar

StartChar: u1D03A
Encoding: 118842 118842 70
Width: 697
GlyphClass: 1
Flags: W
LayerCount: 2
Back
SplineSet
487 650 m 1
 175 217 l 1
 103 215 l 1
 520 750 l 1
 584 754 l 1
 578 722 574 679 574 625 c 0
 574 611 578 577 584 535 c 2
 593 471 l 2
 595 456 585 446 571 446 c 0
 526 446 513 458 510 482 c 2
 487 650 l 1
EndSplineSet
Fore
SplineSet
487 650 m 1
 175 217 l 1
 103 215 l 1
 520 750 l 1
 584 754 l 1
 578 722 574 679 574 625 c 0
 574 611 578 577 584 535 c 2
 593 471 l 2
 595 456 585 446 571 446 c 0
 526 446 513 458 510 482 c 2
 487 650 l 1
EndSplineSet
EndChar

StartChar: u1D03B
Encoding: 118843 118843 71
Width: 1210
GlyphClass: 1
Flags: W
LayerCount: 2
Back
SplineSet
650 158 m 1
 667 227 667 234 667 288 c 0
 667 356 640 391 595 391 c 0
 550 391 516 361 490 334 c 1
 476 346 l 1
 516 419 561 456 613 456 c 0
 693 456 740 398 740 289 c 2
 740 278 l 1
 744 278 l 1
 941 501 991 547 1100 629 c 1
 1106 620 l 1
 989 500 846 345 677 152 c 1
 650 158 l 1
308 581 m 1
 307 588 l 2
 306 593 306 596 306 597 c 0
 306 612 318 625 330 625 c 0
 354 625 414 567 415 516 c 1
 448 581 474 614 494 614 c 0
 505 614 511 611 511 605 c 0
 511 601 507 595 498 587 c 0
 492 582 474 559 462 534 c 0
 447 504 427 475 413 475 c 0
 403 475 397 480 395 491 c 0
 385 537 356 567 308 581 c 1
322 266 m 1
 244 306 163 362 123 402 c 0
 110 415 104 426 104 437 c 0
 104 452 115 460 137 460 c 0
 152 460 167 455 180 446 c 1
 197 409 l 2
 203 395 270 339 314 308 c 1
 322 266 l 1
449 266 m 1
 350 318 232 402 232 436 c 0
 232 452 243 460 266 460 c 0
 281 460 295 455 310 446 c 1
 325 408 l 2
 329 398 397 340 444 308 c 1
 449 266 l 1
EndSplineSet
Fore
SplineSet
650 158 m 1
 667 227 667 234 667 288 c 0
 667 356 640 391 595 391 c 0
 550 391 516 361 490 334 c 1
 476 346 l 1
 516 419 561 456 613 456 c 0
 693 456 740 398 740 289 c 2
 740 278 l 1
 744 278 l 1
 941 501 991 547 1100 629 c 1
 1106 620 l 1
 989 500 846 345 677 152 c 1
 650 158 l 1
308 581 m 1
 307 588 l 2
 306 593 306 596 306 597 c 0
 306 612 318 625 330 625 c 0
 354 625 414 567 415 516 c 1
 448 581 474 614 494 614 c 0
 505 614 511 611 511 605 c 0
 511 601 507 595 498 587 c 0
 492 582 474 559 462 534 c 0
 447 504 427 475 413 475 c 0
 403 475 397 480 395 491 c 0
 385 537 356 567 308 581 c 1
322 266 m 1
 244 306 163 362 123 402 c 0
 110 415 104 426 104 437 c 0
 104 452 115 460 137 460 c 0
 152 460 167 455 180 446 c 1
 197 409 l 2
 203 395 270 339 314 308 c 1
 322 266 l 1
449 266 m 1
 350 318 232 402 232 436 c 0
 232 452 243 460 266 460 c 0
 281 460 295 455 310 446 c 1
 325 408 l 2
 329 398 397 340 444 308 c 1
 449 266 l 1
EndSplineSet
EndChar

StartChar: u1D03C
Encoding: 118844 118844 72
Width: 682
GlyphClass: 1
Flags: W
LayerCount: 2
Back
SplineSet
539 403 m 2
 561 403 577 394 577 371 c 2
 577 314 l 2
 577 302 563 295 550 294 c 2
 538 293 l 2
 527 292 521 297 520 304 c 1
 499 295 486 290 468 290 c 0
 429 290 395 314 391 354 c 1
 367 312 338 290 304 290 c 0
 283 290 265 298 251 314 c 1
 230 301 206 294 180 294 c 0
 156 294 144 301 144 314 c 0
 144 325 154 329 175 330 c 0
 196 331 215 343 215 366 c 0
 215 401 188 414 160 421 c 0
 142 425 124 424 113 429 c 0
 107 431 103 436 103 444 c 0
 103 460 127 460 151 460 c 0
 173 460 192 459 209 453 c 0
 248 440 271 416 275 390 c 0
 281 353 300 334 322 334 c 0
 341 334 357 355 361 376 c 0
 367 404 377 417 390 424 c 1
 449 424 l 1
 437 403 430 382 430 362 c 0
 430 338 448 318 475 318 c 0
 488 318 502 322 516 331 c 1
 516 373 l 2
 516 388 520 398 528 403 c 1
 539 403 l 2
EndSplineSet
Fore
SplineSet
539 403 m 2
 561 403 577 394 577 371 c 2
 577 314 l 2
 577 302 563 295 550 294 c 2
 538 293 l 2
 527 292 521 297 520 304 c 1
 499 295 486 290 468 290 c 0
 429 290 395 314 391 354 c 1
 367 312 338 290 304 290 c 0
 283 290 265 298 251 314 c 1
 230 301 206 294 180 294 c 0
 156 294 144 301 144 314 c 0
 144 325 154 329 175 330 c 0
 196 331 215 343 215 366 c 0
 215 401 188 414 160 421 c 0
 142 425 124 424 113 429 c 0
 107 431 103 436 103 444 c 0
 103 460 127 460 151 460 c 0
 173 460 192 459 209 453 c 0
 248 440 271 416 275 390 c 0
 281 353 300 334 322 334 c 0
 341 334 357 355 361 376 c 0
 367 404 377 417 390 424 c 1
 449 424 l 1
 437 403 430 382 430 362 c 0
 430 338 448 318 475 318 c 0
 488 318 502 322 516 331 c 1
 516 373 l 2
 516 388 520 398 528 403 c 1
 539 403 l 2
EndSplineSet
EndChar

StartChar: u1D03D
Encoding: 118845 118845 73
Width: 1224
GlyphClass: 1
Flags: W
LayerCount: 2
Back
SplineSet
588 719 m 1
 654 719 l 1
 775 602 l 1
 706 604 l 1
 588 719 l 1
481 707 m 1
 547 707 l 1
 667 589 l 1
 599 590 l 1
 481 707 l 1
455 72 m 1
 396 72 l 1
 448 146 469 202 469 290 c 0
 469 353 455 390 397 390 c 0
 374 390 354 389 337 387 c 0
 321 385 304 383 288 383 c 0
 159 383 103 424 103 494 c 0
 103 583 215 656 334 656 c 0
 401 656 434 642 434 613 c 0
 434 589 401 563 370 563 c 0
 346 563 325 583 319 611 c 1
 229 604 179 568 179 509 c 0
 179 461 220 434 294 434 c 0
 319 434 341 436 360 440 c 0
 379 444 399 446 418 446 c 0
 484 446 526 394 526 314 c 0
 526 270 516 219 496 164 c 1
 759 436 l 2
 784 462 803 476 818 476 c 0
 832 476 839 454 845 425 c 0
 850 401 868 380 881 380 c 0
 897 380 912 405 924 456 c 1
 996 442 l 1
 993 395 l 2
 992 378 1007 367 1036 360 c 2
 1068 352 l 2
 1105 343 1121 326 1121 290 c 0
 1121 257 1107 230 1080 230 c 0
 1060 230 1044 245 1044 258 c 0
 1044 275 1051 284 1064 284 c 0
 1066 284 1068 284 1070 283 c 1
 1071 285 1071 286 1071 288 c 0
 1071 303 1059 313 1034 319 c 2
 980 332 l 2
 944 341 926 355 926 382 c 1
 899 353 875 338 852 338 c 0
 823 338 796 362 790 390 c 1
 455 72 l 1
EndSplineSet
Fore
SplineSet
588 719 m 1
 654 719 l 1
 775 602 l 1
 706 604 l 1
 588 719 l 1
481 707 m 1
 547 707 l 1
 667 589 l 1
 599 590 l 1
 481 707 l 1
455 72 m 1
 396 72 l 1
 448 146 469 202 469 290 c 0
 469 353 455 390 397 390 c 0
 374 390 354 389 337 387 c 0
 321 385 304 383 288 383 c 0
 159 383 103 424 103 494 c 0
 103 583 215 656 334 656 c 0
 401 656 434 642 434 613 c 0
 434 589 401 563 370 563 c 0
 346 563 325 583 319 611 c 1
 229 604 179 568 179 509 c 0
 179 461 220 434 294 434 c 0
 319 434 341 436 360 440 c 0
 379 444 399 446 418 446 c 0
 484 446 526 394 526 314 c 0
 526 270 516 219 496 164 c 1
 759 436 l 2
 784 462 803 476 818 476 c 0
 832 476 839 454 845 425 c 0
 850 401 868 380 881 380 c 0
 897 380 912 405 924 456 c 1
 996 442 l 1
 993 395 l 2
 992 378 1007 367 1036 360 c 2
 1068 352 l 2
 1105 343 1121 326 1121 290 c 0
 1121 257 1107 230 1080 230 c 0
 1060 230 1044 245 1044 258 c 0
 1044 275 1051 284 1064 284 c 0
 1066 284 1068 284 1070 283 c 1
 1071 285 1071 286 1071 288 c 0
 1071 303 1059 313 1034 319 c 2
 980 332 l 2
 944 341 926 355 926 382 c 1
 899 353 875 338 852 338 c 0
 823 338 796 362 790 390 c 1
 455 72 l 1
EndSplineSet
EndChar

StartChar: u1D03E
Encoding: 118846 118846 74
Width: 890
GlyphClass: 1
Flags: W
LayerCount: 2
Back
SplineSet
280 293 m 1
 258 243 227 218 187 218 c 0
 131 218 103 271 103 348 c 2
 103 388 l 2
 103 401 111 408 128 408 c 0
 145 408 154 402 154 390 c 2
 154 344 l 2
 154 306 164 287 185 287 c 0
 208 287 226 309 239 352 c 2
 252 396 l 2
 254 404 265 408 278 408 c 0
 304 408 306 372 317 340 c 0
 326 315 338 293 361 293 c 0
 383 293 409 309 439 340 c 2
 721 624 l 2
 729 633 757 662 769 662 c 0
 780 662 786 657 786 647 c 2
 779 622 l 2
 778 604 778 587 778 569 c 0
 778 552 778 535 779 517 c 1
 775 502 749 487 734 487 c 0
 720 487 719 496 718 511 c 2
 716 539 l 2
 715 549 716 564 718 577 c 1
 462 304 l 2
 441 282 406 232 354 232 c 0
 319 232 297 245 280 293 c 1
EndSplineSet
Fore
SplineSet
280 293 m 1
 258 243 227 218 187 218 c 0
 131 218 103 271 103 348 c 2
 103 388 l 2
 103 401 111 408 128 408 c 0
 145 408 154 402 154 390 c 2
 154 344 l 2
 154 306 164 287 185 287 c 0
 208 287 226 309 239 352 c 2
 252 396 l 2
 254 404 265 408 278 408 c 0
 304 408 306 372 317 340 c 0
 326 315 338 293 361 293 c 0
 383 293 409 309 439 340 c 2
 721 624 l 2
 729 633 757 662 769 662 c 0
 780 662 786 657 786 647 c 2
 779 622 l 2
 778 604 778 587 778 569 c 0
 778 552 778 535 779 517 c 1
 775 502 749 487 734 487 c 0
 720 487 719 496 718 511 c 2
 716 539 l 2
 715 549 716 564 718 577 c 1
 462 304 l 2
 441 282 406 232 354 232 c 0
 319 232 297 245 280 293 c 1
EndSplineSet
EndChar

StartChar: u1D03F
Encoding: 118847 118847 75
Width: 965
GlyphClass: 1
Flags: W
LayerCount: 2
Back
SplineSet
170 541 m 1
 118 541 l 1
 108 558 103 574 103 590 c 0
 103 642 163 689 252 689 c 0
 316 689 359 666 382 620 c 1
 394 629 409 634 426 634 c 0
 447 634 465 624 478 604 c 1
 499 621 524 629 552 629 c 0
 591 629 621 606 640 562 c 1
 677 612 738 669 822 733 c 1
 829 726 l 1
 780 686 691 589 650 526 c 1
 650 518 l 2
 652 493 637 458 611 458 c 0
 589 458 578 468 578 487 c 0
 578 494 580 501 583 506 c 0
 586 511 590 517 593 520 c 2
 593 526 l 2
 593 553 577 578 541 578 c 0
 520 578 505 572 496 559 c 1
 498 549 499 538 499 528 c 0
 499 503 489 491 468 491 c 0
 449 491 439 503 439 528 c 0
 439 540 442 553 449 568 c 1
 444 581 435 588 422 588 c 0
 416 588 406 584 395 578 c 1
 399 562 401 550 401 541 c 0
 401 518 390 496 366 496 c 0
 346 496 334 520 334 546 c 0
 334 565 337 581 344 593 c 1
 330 628 301 646 257 646 c 0
 209 646 168 606 167 560 c 0
 167 554 168 549 170 541 c 1
173 447 m 0
 190 447 192 446 201 438 c 0
 208 432 210 423 210 408 c 0
 210 396 206 373 200 339 c 2
 191 287 l 2
 190 282 190 271 190 266 c 0
 190 253 194 242 206 242 c 0
 215 242 227 254 238 277 c 2
 250 302 l 2
 259 320 270 329 282 329 c 2
 311 329 l 2
 319 329 330 319 330 311 c 0
 330 307 329 302 327 297 c 0
 324 292 323 286 323 278 c 0
 323 241 337 222 365 222 c 0
 396 222 415 245 415 280 c 2
 415 308 l 2
 415 322 421 329 434 329 c 2
 456 329 l 2
 464 329 468 320 468 301 c 0
 468 285 468 262 476 249 c 0
 484 236 501 235 516 235 c 0
 578 235 692 324 810 438 c 2
 852 478 l 1
 862 475 l 1
 703 284 581 188 496 188 c 0
 467 188 446 204 442 217 c 1
 414 194 385 182 355 182 c 0
 315 182 276 223 274 266 c 1
 250 217 225 193 199 193 c 0
 156 193 135 230 136 277 c 2
 138 372 l 2
 138 380 135 409 135 416 c 0
 135 434 139 445 146 446 c 0
 155 447 164 447 173 447 c 0
EndSplineSet
Fore
SplineSet
170 541 m 1
 118 541 l 1
 108 558 103 574 103 590 c 0
 103 642 163 689 252 689 c 0
 316 689 359 666 382 620 c 1
 394 629 409 634 426 634 c 0
 447 634 465 624 478 604 c 1
 499 621 524 629 552 629 c 0
 591 629 621 606 640 562 c 1
 677 612 738 669 822 733 c 1
 829 726 l 1
 780 686 691 589 650 526 c 1
 650 518 l 2
 652 493 637 458 611 458 c 0
 589 458 578 468 578 487 c 0
 578 494 580 501 583 506 c 0
 586 511 590 517 593 520 c 2
 593 526 l 2
 593 553 577 578 541 578 c 0
 520 578 505 572 496 559 c 1
 498 549 499 538 499 528 c 0
 499 503 489 491 468 491 c 0
 449 491 439 503 439 528 c 0
 439 540 442 553 449 568 c 1
 444 581 435 588 422 588 c 0
 416 588 406 584 395 578 c 1
 399 562 401 550 401 541 c 0
 401 518 390 496 366 496 c 0
 346 496 334 520 334 546 c 0
 334 565 337 581 344 593 c 1
 330 628 301 646 257 646 c 0
 209 646 168 606 167 560 c 0
 167 554 168 549 170 541 c 1
173 447 m 0
 190 447 192 446 201 438 c 0
 208 432 210 423 210 408 c 0
 210 396 206 373 200 339 c 2
 191 287 l 2
 190 282 190 271 190 266 c 0
 190 253 194 242 206 242 c 0
 215 242 227 254 238 277 c 2
 250 302 l 2
 259 320 270 329 282 329 c 2
 311 329 l 2
 319 329 330 319 330 311 c 0
 330 307 329 302 327 297 c 0
 324 292 323 286 323 278 c 0
 323 241 337 222 365 222 c 0
 396 222 415 245 415 280 c 2
 415 308 l 2
 415 322 421 329 434 329 c 2
 456 329 l 2
 464 329 468 320 468 301 c 0
 468 285 468 262 476 249 c 0
 484 236 501 235 516 235 c 0
 578 235 692 324 810 438 c 2
 852 478 l 1
 862 475 l 1
 703 284 581 188 496 188 c 0
 467 188 446 204 442 217 c 1
 414 194 385 182 355 182 c 0
 315 182 276 223 274 266 c 1
 250 217 225 193 199 193 c 0
 156 193 135 230 136 277 c 2
 138 372 l 2
 138 380 135 409 135 416 c 0
 135 434 139 445 146 446 c 0
 155 447 164 447 173 447 c 0
EndSplineSet
EndChar

StartChar: u1D040
Encoding: 118848 118848 76
Width: 749
GlyphClass: 1
Flags: W
LayerCount: 2
Back
SplineSet
504 365 m 1
 516 362 533 360 577 360 c 2
 607 360 l 1
 632 354 641 334 641 322 c 0
 641 308 636 301 625 301 c 0
 612 301 587 316 553 322 c 0
 518 328 482 334 467 334 c 0
 450 334 442 339 442 348 c 0
 442 367 531 431 547 438 c 1
 530 435 510 433 487 433 c 0
 420 433 386 448 386 478 c 0
 386 495 395 504 412 504 c 0
 421 504 430 503 439 500 c 0
 483 485 516 476 541 476 c 0
 555 476 571 478 585 479 c 0
 598 480 611 481 624 481 c 0
 639 481 646 476 646 467 c 0
 646 456 619 435 570 408 c 0
 528 385 510 371 504 365 c 1
228 348 m 1
 237 347 255 346 281 345 c 2
 331 343 l 1
 354 337 365 324 365 304 c 0
 365 290 361 283 352 283 c 0
 346 283 334 286 317 293 c 0
 300 300 272 309 251 311 c 2
 190 318 l 2
 174 318 166 322 166 331 c 0
 166 350 241 404 271 422 c 1
 250 418 230 416 210 416 c 0
 139 416 103 432 103 463 c 0
 103 477 114 487 128 487 c 0
 142 487 162 484 189 474 c 0
 215 464 241 460 266 460 c 0
 275 460 295 461 313 463 c 0
 330 465 345 466 348 466 c 0
 363 466 370 460 370 449 c 0
 370 440 355 429 336 417 c 0
 315 404 277 383 270 378 c 2
 228 348 l 1
EndSplineSet
Fore
SplineSet
504 365 m 1
 516 362 533 360 577 360 c 2
 607 360 l 1
 632 354 641 334 641 322 c 0
 641 308 636 301 625 301 c 0
 612 301 587 316 553 322 c 0
 518 328 482 334 467 334 c 0
 450 334 442 339 442 348 c 0
 442 367 531 431 547 438 c 1
 530 435 510 433 487 433 c 0
 420 433 386 448 386 478 c 0
 386 495 395 504 412 504 c 0
 421 504 430 503 439 500 c 0
 483 485 516 476 541 476 c 0
 555 476 571 478 585 479 c 0
 598 480 611 481 624 481 c 0
 639 481 646 476 646 467 c 0
 646 456 619 435 570 408 c 0
 528 385 510 371 504 365 c 1
228 348 m 1
 237 347 255 346 281 345 c 2
 331 343 l 1
 354 337 365 324 365 304 c 0
 365 290 361 283 352 283 c 0
 346 283 334 286 317 293 c 0
 300 300 272 309 251 311 c 2
 190 318 l 2
 174 318 166 322 166 331 c 0
 166 350 241 404 271 422 c 1
 250 418 230 416 210 416 c 0
 139 416 103 432 103 463 c 0
 103 477 114 487 128 487 c 0
 142 487 162 484 189 474 c 0
 215 464 241 460 266 460 c 0
 275 460 295 461 313 463 c 0
 330 465 345 466 348 466 c 0
 363 466 370 460 370 449 c 0
 370 440 355 429 336 417 c 0
 315 404 277 383 270 378 c 2
 228 348 l 1
EndSplineSet
EndChar

StartChar: u1D041
Encoding: 118849 118849 77
Width: 828
GlyphClass: 1
Flags: W
LayerCount: 2
Back
SplineSet
697 620 m 1
 725 620 l 1
 343 236 l 2
 321 214 297 204 278 204 c 0
 263 204 247 208 230 216 c 2
 131 260 l 2
 112 268 103 281 103 296 c 0
 103 323 123 352 154 352 c 0
 172 352 203 332 249 294 c 2
 288 262 l 1
 697 620 l 1
EndSplineSet
Fore
SplineSet
697 620 m 1
 725 620 l 1
 343 236 l 2
 321 214 297 204 278 204 c 0
 263 204 247 208 230 216 c 2
 131 260 l 2
 112 268 103 281 103 296 c 0
 103 323 123 352 154 352 c 0
 172 352 203 332 249 294 c 2
 288 262 l 1
 697 620 l 1
EndSplineSet
EndChar

StartChar: u1D042
Encoding: 118850 118850 78
Width: 636
GlyphClass: 1
Flags: W
LayerCount: 2
Back
SplineSet
504 650 m 1
 523 648 533 635 533 612 c 0
 533 583 491 555 460 552 c 1
 420 508 385 459 354 406 c 1
 415 296 l 1
 438 286 455 277 463 269 c 0
 471 260 475 251 475 242 c 0
 475 226 463 210 442 210 c 0
 428 210 416 216 404 226 c 0
 393 236 376 256 361 285 c 2
 325 354 l 1
 306 316 289 284 275 257 c 0
 261 231 250 218 240 218 c 0
 229 218 217 228 217 240 c 0
 217 254 245 305 302 391 c 1
 199 584 l 1
 192 580 184 578 176 578 c 0
 160 578 146 588 137 607 c 2
 103 676 l 1
 190 708 l 1
 336 442 l 1
 406 549 462 619 504 650 c 1
EndSplineSet
Fore
SplineSet
504 650 m 1
 523 648 533 635 533 612 c 0
 533 583 491 555 460 552 c 1
 420 508 385 459 354 406 c 1
 415 296 l 1
 438 286 455 277 463 269 c 0
 471 260 475 251 475 242 c 0
 475 226 463 210 442 210 c 0
 428 210 416 216 404 226 c 0
 393 236 376 256 361 285 c 2
 325 354 l 1
 306 316 289 284 275 257 c 0
 261 231 250 218 240 218 c 0
 229 218 217 228 217 240 c 0
 217 254 245 305 302 391 c 1
 199 584 l 1
 192 580 184 578 176 578 c 0
 160 578 146 588 137 607 c 2
 103 676 l 1
 190 708 l 1
 336 442 l 1
 406 549 462 619 504 650 c 1
EndSplineSet
EndChar

StartChar: u1D043
Encoding: 118851 118851 79
Width: 1222
GlyphClass: 1
Flags: W
LayerCount: 2
Back
SplineSet
103 460 m 1
 117 460 l 2
 190 460 232 479 232 516 c 0
 232 526 220 524 207 529 c 0
 193 534 180 540 180 560 c 0
 180 584 208 599 239 599 c 0
 269 599 301 577 301 535 c 0
 301 466 255 432 164 432 c 0
 149 432 133 433 118 434 c 1
 103 460 l 1
707 487 m 1
 719 470 725 449 725 425 c 2
 725 418 l 1
 734 408 761 397 790 397 c 0
 823 397 845 413 854 444 c 1
 843 456 838 469 838 484 c 0
 838 500 842 511 850 518 c 2
 872 526 l 1
 880 468 907 439 952 439 c 0
 1008 439 1073 499 1108 577 c 1
 1117 574 l 1
 1101 483 1032 403 950 403 c 0
 916 403 893 408 880 418 c 1
 870 379 829 355 790 355 c 0
 763 355 728 365 714 377 c 1
 697 341 667 323 622 323 c 0
 590 323 563 333 556 343 c 1
 540 304 498 278 442 278 c 0
 374 278 338 302 338 331 c 0
 338 350 352 366 380 380 c 1
 384 343 407 319 446 319 c 0
 494 319 518 348 520 372 c 1
 511 383 506 397 506 416 c 0
 506 427 507 437 510 444 c 1
 541 456 l 1
 559 433 568 408 568 380 c 1
 579 368 597 362 624 362 c 0
 661 362 675 382 684 404 c 1
 676 413 671 428 672 447 c 0
 673 457 674 462 677 475 c 1
 707 487 l 1
103 252 m 1
 189 252 232 271 232 308 c 0
 232 320 218 318 205 323 c 0
 192 328 180 335 180 353 c 0
 180 377 208 391 239 391 c 0
 268 391 301 372 301 329 c 0
 301 262 254 225 168 225 c 0
 151 225 140 226 118 228 c 1
 103 252 l 1
EndSplineSet
Fore
SplineSet
103 460 m 1
 117 460 l 2
 190 460 232 479 232 516 c 0
 232 526 220 524 207 529 c 0
 193 534 180 540 180 560 c 0
 180 584 208 599 239 599 c 0
 269 599 301 577 301 535 c 0
 301 466 255 432 164 432 c 0
 149 432 133 433 118 434 c 1
 103 460 l 1
707 487 m 1
 719 470 725 449 725 425 c 2
 725 418 l 1
 734 408 761 397 790 397 c 0
 823 397 845 413 854 444 c 1
 843 456 838 469 838 484 c 0
 838 500 842 511 850 518 c 2
 872 526 l 1
 880 468 907 439 952 439 c 0
 1008 439 1073 499 1108 577 c 1
 1117 574 l 1
 1101 483 1032 403 950 403 c 0
 916 403 893 408 880 418 c 1
 870 379 829 355 790 355 c 0
 763 355 728 365 714 377 c 1
 697 341 667 323 622 323 c 0
 590 323 563 333 556 343 c 1
 540 304 498 278 442 278 c 0
 374 278 338 302 338 331 c 0
 338 350 352 366 380 380 c 1
 384 343 407 319 446 319 c 0
 494 319 518 348 520 372 c 1
 511 383 506 397 506 416 c 0
 506 427 507 437 510 444 c 1
 541 456 l 1
 559 433 568 408 568 380 c 1
 579 368 597 362 624 362 c 0
 661 362 675 382 684 404 c 1
 676 413 671 428 672 447 c 0
 673 457 674 462 677 475 c 1
 707 487 l 1
103 252 m 1
 189 252 232 271 232 308 c 0
 232 320 218 318 205 323 c 0
 192 328 180 335 180 353 c 0
 180 377 208 391 239 391 c 0
 268 391 301 372 301 329 c 0
 301 262 254 225 168 225 c 0
 151 225 140 226 118 228 c 1
 103 252 l 1
EndSplineSet
EndChar

StartChar: u1D044
Encoding: 118852 118852 80
Width: 847
GlyphClass: 1
Flags: W
LayerCount: 2
Back
SplineSet
365 401 m 1
 297 312 176 199 136 199 c 0
 125 199 116 201 111 204 c 2
 103 209 l 1
 157 254 209 303 274 360 c 2
 338 417 l 2
 380 454 402 475 407 478 c 0
 411 480 414 481 416 481 c 0
 425 481 430 476 430 466 c 0
 430 458 428 448 423 437 c 0
 418 426 416 415 416 404 c 0
 416 388 425 380 444 380 c 0
 477 380 498 417 498 458 c 1
 519 464 533 467 538 467 c 0
 551 467 560 454 561 431 c 2
 562 411 l 2
 563 383 574 370 595 370 c 0
 626 370 647 404 647 439 c 1
 642 476 l 1
 646 478 653 481 658 483 c 0
 668 486 680 489 692 490 c 1
 718 404 l 2
 723 388 728 376 734 364 c 0
 740 353 743 346 743 343 c 0
 743 329 734 322 715 322 c 0
 684 322 656 345 654 377 c 1
 643 348 620 334 584 334 c 0
 541 334 517 349 506 396 c 1
 493 353 469 331 434 331 c 0
 398 331 365 359 365 396 c 2
 365 401 l 1
EndSplineSet
Fore
SplineSet
365 401 m 1
 297 312 176 199 136 199 c 0
 125 199 116 201 111 204 c 2
 103 209 l 1
 157 254 209 303 274 360 c 2
 338 417 l 2
 380 454 402 475 407 478 c 0
 411 480 414 481 416 481 c 0
 425 481 430 476 430 466 c 0
 430 458 428 448 423 437 c 0
 418 426 416 415 416 404 c 0
 416 388 425 380 444 380 c 0
 477 380 498 417 498 458 c 1
 519 464 533 467 538 467 c 0
 551 467 560 454 561 431 c 2
 562 411 l 2
 563 383 574 370 595 370 c 0
 626 370 647 404 647 439 c 1
 642 476 l 1
 646 478 653 481 658 483 c 0
 668 486 680 489 692 490 c 1
 718 404 l 2
 723 388 728 376 734 364 c 0
 740 353 743 346 743 343 c 0
 743 329 734 322 715 322 c 0
 684 322 656 345 654 377 c 1
 643 348 620 334 584 334 c 0
 541 334 517 349 506 396 c 1
 493 353 469 331 434 331 c 0
 398 331 365 359 365 396 c 2
 365 401 l 1
EndSplineSet
EndChar

StartChar: u1D045
Encoding: 118853 118853 81
Width: 1070
GlyphClass: 1
Flags: W
LayerCount: 2
Back
SplineSet
707 510 m 1
 754 509 l 1
 762 579 792 641 821 641 c 0
 854 641 882 581 890 504 c 1
 966 502 l 1
 956 481 l 1
 892 481 l 1
 893 477 893 473 893 469 c 2
 893 449 l 1
 966 449 l 1
 956 430 l 1
 893 430 l 1
 891 344 867 301 821 301 c 0
 774 301 753 343 749 432 c 1
 712 432 l 1
 708 345 684 301 640 301 c 0
 592 301 568 345 568 434 c 1
 412 438 l 1
 432 414 442 386 442 355 c 0
 442 269 350 210 230 210 c 0
 158 210 103 235 103 280 c 0
 103 315 134 340 179 340 c 0
 218 340 235 319 235 300 c 0
 235 282 218 274 206 274 c 0
 187 274 174 295 174 314 c 1
 150 311 138 299 138 280 c 0
 138 271 144 262 157 254 c 0
 170 246 194 242 230 242 c 0
 326 242 395 289 395 353 c 0
 395 397 360 439 290 478 c 1
 226 386 l 1
 206 389 139 411 115 430 c 1
 245 613 l 1
 290 624 l 1
 228 533 l 1
 240 533 260 530 283 526 c 1
 325 584 l 1
 372 595 l 1
 312 511 l 1
 343 495 366 480 380 468 c 1
 568 460 l 1
 568 490 l 1
 476 491 l 2
 462 491 455 498 455 511 c 0
 455 527 460 535 469 535 c 0
 474 535 479 533 484 531 c 2
 510 521 l 1
 570 516 l 1
 581 588 611 641 640 641 c 0
 655 641 669 629 681 606 c 0
 693 583 702 550 707 510 c 1
605 511 m 1
 672 510 l 1
 668 534 664 553 658 567 c 0
 651 582 646 589 640 589 c 0
 633 589 627 581 620 567 c 0
 613 553 608 534 605 511 c 1
786 509 m 1
 854 506 l 1
 846 561 835 589 821 589 c 0
 815 589 809 581 802 566 c 0
 794 550 790 531 786 509 c 1
164 442 m 1
 181 431 197 424 210 422 c 1
 260 491 l 1
 241 499 224 504 209 506 c 1
 164 442 l 1
602 458 m 1
 676 456 l 1
 676 471 l 2
 676 476 675 483 674 487 c 1
 602 487 l 1
 602 458 l 1
749 455 m 1
 749 485 l 1
 710 485 l 1
 711 475 712 468 712 455 c 1
 749 455 l 1
785 452 m 1
 858 452 l 1
 858 484 l 1
 785 484 l 1
 785 452 l 1
674 433 m 1
 602 433 l 1
 604 388 617 365 640 365 c 0
 661 365 672 388 674 433 c 1
857 430 m 1
 785 432 l 1
 786 405 791 387 798 378 c 0
 805 369 813 365 821 365 c 0
 841 365 853 387 857 430 c 1
EndSplineSet
Fore
SplineSet
707 510 m 1
 754 509 l 1
 762 579 792 641 821 641 c 0
 854 641 882 581 890 504 c 1
 966 502 l 1
 956 481 l 1
 892 481 l 1
 893 477 893 473 893 469 c 2
 893 449 l 1
 966 449 l 1
 956 430 l 1
 893 430 l 1
 891 344 867 301 821 301 c 0
 774 301 753 343 749 432 c 1
 712 432 l 1
 708 345 684 301 640 301 c 0
 592 301 568 345 568 434 c 1
 412 438 l 1
 432 414 442 386 442 355 c 0
 442 269 350 210 230 210 c 0
 158 210 103 235 103 280 c 0
 103 315 134 340 179 340 c 0
 218 340 235 319 235 300 c 0
 235 282 218 274 206 274 c 0
 187 274 174 295 174 314 c 1
 150 311 138 299 138 280 c 0
 138 271 144 262 157 254 c 0
 170 246 194 242 230 242 c 0
 326 242 395 289 395 353 c 0
 395 397 360 439 290 478 c 1
 226 386 l 1
 206 389 139 411 115 430 c 1
 245 613 l 1
 290 624 l 1
 228 533 l 1
 240 533 260 530 283 526 c 1
 325 584 l 1
 372 595 l 1
 312 511 l 1
 343 495 366 480 380 468 c 1
 568 460 l 1
 568 490 l 1
 476 491 l 2
 462 491 455 498 455 511 c 0
 455 527 460 535 469 535 c 0
 474 535 479 533 484 531 c 2
 510 521 l 1
 570 516 l 1
 581 588 611 641 640 641 c 0
 655 641 669 629 681 606 c 0
 693 583 702 550 707 510 c 1
605 511 m 1
 672 510 l 1
 668 534 664 553 658 567 c 0
 651 582 646 589 640 589 c 0
 633 589 627 581 620 567 c 0
 613 553 608 534 605 511 c 1
786 509 m 1
 854 506 l 1
 846 561 835 589 821 589 c 0
 815 589 809 581 802 566 c 0
 794 550 790 531 786 509 c 1
164 442 m 1
 181 431 197 424 210 422 c 1
 260 491 l 1
 241 499 224 504 209 506 c 1
 164 442 l 1
602 458 m 1
 676 456 l 1
 676 471 l 2
 676 476 675 483 674 487 c 1
 602 487 l 1
 602 458 l 1
749 455 m 1
 749 485 l 1
 710 485 l 1
 711 475 712 468 712 455 c 1
 749 455 l 1
785 452 m 1
 858 452 l 1
 858 484 l 1
 785 484 l 1
 785 452 l 1
674 433 m 1
 602 433 l 1
 604 388 617 365 640 365 c 0
 661 365 672 388 674 433 c 1
857 430 m 1
 785 432 l 1
 786 405 791 387 798 378 c 0
 805 369 813 365 821 365 c 0
 841 365 853 387 857 430 c 1
EndSplineSet
EndChar

StartChar: u1D046
Encoding: 118854 118854 82
Width: 698
GlyphClass: 1
Flags: W
LayerCount: 2
Back
SplineSet
595 330 m 1
 560 339 522 344 484 344 c 0
 462 344 440 343 417 340 c 0
 396 337 375 336 353 336 c 0
 287 336 229 344 179 361 c 0
 128 378 103 397 103 418 c 0
 103 434 121 442 156 442 c 0
 201 442 235 428 260 401 c 1
 243 406 224 408 204 408 c 0
 184 408 174 402 174 391 c 0
 174 375 208 361 242 361 c 0
 256 361 271 362 285 364 c 0
 394 376 445 380 467 380 c 0
 527 380 551 366 595 338 c 1
 595 330 l 1
EndSplineSet
Fore
SplineSet
595 330 m 1
 560 339 522 344 484 344 c 0
 462 344 440 343 417 340 c 0
 396 337 375 336 353 336 c 0
 287 336 229 344 179 361 c 0
 128 378 103 397 103 418 c 0
 103 434 121 442 156 442 c 0
 201 442 235 428 260 401 c 1
 243 406 224 408 204 408 c 0
 184 408 174 402 174 391 c 0
 174 375 208 361 242 361 c 0
 256 361 271 362 285 364 c 0
 394 376 445 380 467 380 c 0
 527 380 551 366 595 338 c 1
 595 330 l 1
EndSplineSet
EndChar

StartChar: u1D047
Encoding: 118855 118855 83
Width: 694
GlyphClass: 1
Flags: W
LayerCount: 2
Back
SplineSet
103 396 m 1
 123 387 182 381 238 382 c 2
 478 388 l 2
 512 389 549 374 590 346 c 1
 590 338 l 1
 546 345 509 349 476 348 c 2
 215 343 l 2
 170 342 133 358 103 388 c 1
 103 396 l 1
EndSplineSet
Fore
SplineSet
103 396 m 1
 123 387 182 381 238 382 c 2
 478 388 l 2
 512 389 549 374 590 346 c 1
 590 338 l 1
 546 345 509 349 476 348 c 2
 215 343 l 2
 170 342 133 358 103 388 c 1
 103 396 l 1
EndSplineSet
EndChar

StartChar: u1D048
Encoding: 118856 118856 84
Width: 698
GlyphClass: 1
Flags: W
LayerCount: 2
Back
SplineSet
103 370 m 1
 114 368 126 367 137 367 c 0
 181 368 245 377 331 396 c 0
 416 415 472 425 499 425 c 0
 530 425 562 417 595 403 c 1
 595 395 l 1
 531 395 458 385 373 364 c 0
 289 343 227 333 187 333 c 0
 156 333 128 342 103 361 c 1
 103 370 l 1
EndSplineSet
Fore
SplineSet
103 370 m 1
 114 368 126 367 137 367 c 0
 181 368 245 377 331 396 c 0
 416 415 472 425 499 425 c 0
 530 425 562 417 595 403 c 1
 595 395 l 1
 531 395 458 385 373 364 c 0
 289 343 227 333 187 333 c 0
 156 333 128 342 103 361 c 1
 103 370 l 1
EndSplineSet
EndChar

StartChar: u1D049
Encoding: 118857 118857 85
Width: 719
GlyphClass: 1
Flags: W
LayerCount: 2
Back
SplineSet
487 418 m 1
 501 426 520 430 541 430 c 0
 589 430 614 412 614 374 c 0
 614 320 555 296 446 296 c 0
 365 296 288 311 214 339 c 0
 140 367 103 393 103 415 c 0
 103 426 124 432 164 432 c 0
 197 432 225 427 250 416 c 1
 250 408 l 1
 244 409 237 410 231 410 c 0
 220 410 215 407 215 401 c 0
 215 361 335 318 446 318 c 0
 503 318 539 337 539 372 c 0
 539 396 510 413 487 418 c 1
EndSplineSet
Fore
SplineSet
487 418 m 1
 501 426 520 430 541 430 c 0
 589 430 614 412 614 374 c 0
 614 320 555 296 446 296 c 0
 365 296 288 311 214 339 c 0
 140 367 103 393 103 415 c 0
 103 426 124 432 164 432 c 0
 197 432 225 427 250 416 c 1
 250 408 l 1
 244 409 237 410 231 410 c 0
 220 410 215 407 215 401 c 0
 215 361 335 318 446 318 c 0
 503 318 539 337 539 372 c 0
 539 396 510 413 487 418 c 1
EndSplineSet
EndChar

StartChar: u1D04A
Encoding: 118858 118858 86
Width: 718
GlyphClass: 1
Flags: W
LayerCount: 2
Back
SplineSet
257 413 m 1
 245 415 224 417 214 417 c 0
 192 417 179 409 179 397 c 0
 179 390 187 383 201 376 c 0
 215 369 241 365 278 365 c 0
 339 365 432 384 484 404 c 1
 510 370 l 1
 521 382 l 2
 527 389 534 391 539 391 c 0
 549 391 559 383 559 373 c 1
 550 355 l 1
 539 343 l 1
 553 331 578 317 613 304 c 1
 613 301 l 2
 611 296 603 294 590 294 c 0
 580 294 557 304 521 323 c 1
 498 293 l 1
 467 318 l 1
 490 346 l 1
 476 355 468 366 467 377 c 1
 430 354 l 1
 388 348 343 344 296 344 c 0
 242 344 197 353 159 369 c 0
 122 385 103 403 103 424 c 0
 103 441 123 449 163 449 c 0
 201 449 232 437 257 413 c 1
EndSplineSet
Fore
SplineSet
257 413 m 1
 245 415 224 417 214 417 c 0
 192 417 179 409 179 397 c 0
 179 390 187 383 201 376 c 0
 215 369 241 365 278 365 c 0
 339 365 432 384 484 404 c 1
 510 370 l 1
 521 382 l 2
 527 389 534 391 539 391 c 0
 549 391 559 383 559 373 c 1
 550 355 l 1
 539 343 l 1
 553 331 578 317 613 304 c 1
 613 301 l 2
 611 296 603 294 590 294 c 0
 580 294 557 304 521 323 c 1
 498 293 l 1
 467 318 l 1
 490 346 l 1
 476 355 468 366 467 377 c 1
 430 354 l 1
 388 348 343 344 296 344 c 0
 242 344 197 353 159 369 c 0
 122 385 103 403 103 424 c 0
 103 441 123 449 163 449 c 0
 201 449 232 437 257 413 c 1
EndSplineSet
EndChar

StartChar: u1D04B
Encoding: 118859 118859 87
Width: 916
GlyphClass: 1
Flags: W
LayerCount: 2
Back
SplineSet
737 377 m 1
 750 377 757 371 757 360 c 0
 757 354 750 344 737 329 c 1
 756 313 781 300 812 290 c 1
 812 287 l 2
 810 282 803 280 790 280 c 0
 773 280 750 290 722 310 c 1
 697 278 l 1
 665 302 l 1
 689 330 l 1
 672 347 664 357 662 362 c 1
 629 335 591 322 547 322 c 0
 495 322 451 338 413 372 c 1
 384 352 296 330 247 330 c 0
 204 330 168 337 143 347 c 0
 116 358 103 372 103 388 c 0
 103 398 110 409 123 415 c 0
 136 421 155 425 179 425 c 0
 208 425 234 417 257 401 c 1
 206 401 180 392 180 374 c 0
 180 360 203 353 247 353 c 0
 312 353 360 377 413 416 c 1
 490 416 l 1
 490 412 l 1
 475 405 467 396 467 383 c 0
 467 376 474 369 487 359 c 0
 500 349 521 344 547 344 c 0
 578 344 602 355 622 376 c 2
 634 388 l 1
 683 388 l 1
 687 380 695 369 708 354 c 1
 722 370 l 1
 737 377 l 1
EndSplineSet
Fore
SplineSet
737 377 m 1
 750 377 757 371 757 360 c 0
 757 354 750 344 737 329 c 1
 756 313 781 300 812 290 c 1
 812 287 l 2
 810 282 803 280 790 280 c 0
 773 280 750 290 722 310 c 1
 697 278 l 1
 665 302 l 1
 689 330 l 1
 672 347 664 357 662 362 c 1
 629 335 591 322 547 322 c 0
 495 322 451 338 413 372 c 1
 384 352 296 330 247 330 c 0
 204 330 168 337 143 347 c 0
 116 358 103 372 103 388 c 0
 103 398 110 409 123 415 c 0
 136 421 155 425 179 425 c 0
 208 425 234 417 257 401 c 1
 206 401 180 392 180 374 c 0
 180 360 203 353 247 353 c 0
 312 353 360 377 413 416 c 1
 490 416 l 1
 490 412 l 1
 475 405 467 396 467 383 c 0
 467 376 474 369 487 359 c 0
 500 349 521 344 547 344 c 0
 578 344 602 355 622 376 c 2
 634 388 l 1
 683 388 l 1
 687 380 695 369 708 354 c 1
 722 370 l 1
 737 377 l 1
EndSplineSet
EndChar

StartChar: u1D04C
Encoding: 118860 118860 88
Width: 919
GlyphClass: 1
Flags: W
LayerCount: 2
Back
SplineSet
758 360 m 0
 758 358 758 357 757 355 c 0
 757 354 751 345 740 329 c 1
 755 314 780 301 815 290 c 1
 815 287 l 2
 813 282 805 280 792 280 c 0
 775 280 753 290 725 310 c 1
 698 278 l 1
 667 302 l 1
 691 330 l 1
 675 345 666 355 664 362 c 1
 634 335 596 322 550 322 c 0
 501 322 456 339 413 373 c 1
 392 357 311 333 250 323 c 1
 209 270 l 2
 202 260 196 255 191 255 c 0
 189 255 188 255 186 256 c 2
 170 261 l 2
 167 262 165 265 165 268 c 0
 165 272 168 277 172 283 c 2
 204 325 l 1
 187 329 176 333 173 336 c 1
 154 311 143 297 138 292 c 0
 134 288 131 286 128 286 c 0
 127 286 124 287 122 288 c 2
 107 293 l 2
 105 294 104 296 104 299 c 0
 104 303 106 310 110 315 c 2
 144 361 l 1
 140 368 137 377 137 388 c 0
 137 400 140 412 146 424 c 1
 187 422 l 1
 184 414 182 405 182 395 c 0
 182 364 201 346 228 346 c 0
 281 346 343 370 412 416 c 1
 491 416 l 1
 491 412 l 1
 476 405 468 396 468 383 c 0
 468 376 475 369 488 359 c 0
 502 349 522 344 550 344 c 0
 578 344 599 351 636 388 c 1
 684 388 l 1
 690 375 700 364 712 354 c 1
 725 370 l 2
 729 375 735 377 740 377 c 0
 752 377 758 371 758 360 c 0
EndSplineSet
Fore
SplineSet
758 360 m 0
 758 358 758 357 757 355 c 0
 757 354 751 345 740 329 c 1
 755 314 780 301 815 290 c 1
 815 287 l 2
 813 282 805 280 792 280 c 0
 775 280 753 290 725 310 c 1
 698 278 l 1
 667 302 l 1
 691 330 l 1
 675 345 666 355 664 362 c 1
 634 335 596 322 550 322 c 0
 501 322 456 339 413 373 c 1
 392 357 311 333 250 323 c 1
 209 270 l 2
 202 260 196 255 191 255 c 0
 189 255 188 255 186 256 c 2
 170 261 l 2
 167 262 165 265 165 268 c 0
 165 272 168 277 172 283 c 2
 204 325 l 1
 187 329 176 333 173 336 c 1
 154 311 143 297 138 292 c 0
 134 288 131 286 128 286 c 0
 127 286 124 287 122 288 c 2
 107 293 l 2
 105 294 104 296 104 299 c 0
 104 303 106 310 110 315 c 2
 144 361 l 1
 140 368 137 377 137 388 c 0
 137 400 140 412 146 424 c 1
 187 422 l 1
 184 414 182 405 182 395 c 0
 182 364 201 346 228 346 c 0
 281 346 343 370 412 416 c 1
 491 416 l 1
 491 412 l 1
 476 405 468 396 468 383 c 0
 468 376 475 369 488 359 c 0
 502 349 522 344 550 344 c 0
 578 344 599 351 636 388 c 1
 684 388 l 1
 690 375 700 364 712 354 c 1
 725 370 l 2
 729 375 735 377 740 377 c 0
 752 377 758 371 758 360 c 0
EndSplineSet
EndChar

StartChar: u1D04D
Encoding: 118861 118861 89
Width: 646
GlyphClass: 1
Flags: W
LayerCount: 2
Back
SplineSet
446 360 m 1
 388 351 292 344 258 344 c 0
 198 344 103 393 103 424 c 0
 103 441 123 449 163 449 c 0
 201 449 232 437 257 413 c 1
 242 416 229 417 213 417 c 0
 191 417 179 409 179 397 c 0
 179 390 186 383 198 376 c 0
 211 369 231 365 259 365 c 0
 359 365 462 388 509 412 c 1
 530 412 l 2
 536 412 540 410 540 406 c 2
 535 391 l 1
 448 287 l 2
 434 270 419 260 403 260 c 2
 365 260 l 1
 446 360 l 1
EndSplineSet
Fore
SplineSet
446 360 m 1
 388 351 292 344 258 344 c 0
 198 344 103 393 103 424 c 0
 103 441 123 449 163 449 c 0
 201 449 232 437 257 413 c 1
 242 416 229 417 213 417 c 0
 191 417 179 409 179 397 c 0
 179 390 186 383 198 376 c 0
 211 369 231 365 259 365 c 0
 359 365 462 388 509 412 c 1
 530 412 l 2
 536 412 540 410 540 406 c 2
 535 391 l 1
 448 287 l 2
 434 270 419 260 403 260 c 2
 365 260 l 1
 446 360 l 1
EndSplineSet
EndChar

StartChar: u1D04E
Encoding: 118862 118862 90
Width: 455
GlyphClass: 1
Flags: W
LayerCount: 2
Back
SplineSet
103 666 m 1
 103 673 l 1
 116 675 129 676 142 676 c 0
 182 675 198 663 203 636 c 0
 209 604 215 586 218 582 c 0
 221 577 226 576 233 575 c 0
 235 575 237 575 240 576 c 1
 240 568 l 1
 232 562 222 559 210 559 c 0
 179 559 157 569 145 593 c 0
 140 602 137 611 134 625 c 0
 127 654 131 664 111 666 c 2
 103 666 l 1
215 666 m 1
 215 673 l 1
 227 675 239 676 251 676 c 0
 282 676 306 666 311 648 c 0
 322 605 328 584 331 581 c 0
 333 577 338 576 344 575 c 0
 347 575 349 575 352 576 c 1
 352 568 l 1
 344 562 334 559 322 559 c 0
 296 559 277 565 266 578 c 0
 259 587 247 604 244 626 c 0
 241 650 238 666 222 666 c 2
 215 666 l 1
EndSplineSet
Fore
SplineSet
103 666 m 1
 103 673 l 1
 116 675 129 676 142 676 c 0
 182 675 198 663 203 636 c 0
 209 604 215 586 218 582 c 0
 221 577 226 576 233 575 c 0
 235 575 237 575 240 576 c 1
 240 568 l 1
 232 562 222 559 210 559 c 0
 179 559 157 569 145 593 c 0
 140 602 137 611 134 625 c 0
 127 654 131 664 111 666 c 2
 103 666 l 1
215 666 m 1
 215 673 l 1
 227 675 239 676 251 676 c 0
 282 676 306 666 311 648 c 0
 322 605 328 584 331 581 c 0
 333 577 338 576 344 575 c 0
 347 575 349 575 352 576 c 1
 352 568 l 1
 344 562 334 559 322 559 c 0
 296 559 277 565 266 578 c 0
 259 587 247 604 244 626 c 0
 241 650 238 666 222 666 c 2
 215 666 l 1
EndSplineSet
EndChar

StartChar: u1D04F
Encoding: 118863 118863 91
Width: 344
GlyphClass: 1
Flags: W
LayerCount: 2
Back
SplineSet
103 666 m 1
 103 673 l 1
 116 675 129 676 142 676 c 0
 182 676 198 663 203 636 c 0
 209 604 215 586 218 582 c 0
 221 578 226 576 233 576 c 2
 240 576 l 1
 240 568 l 1
 232 562 222 559 210 559 c 0
 179 559 157 569 145 593 c 0
 140 602 137 611 134 624 c 0
 128 650 130 666 111 666 c 2
 103 666 l 1
EndSplineSet
Fore
SplineSet
103 666 m 1
 103 673 l 1
 116 675 129 676 142 676 c 0
 182 676 198 663 203 636 c 0
 209 604 215 586 218 582 c 0
 221 578 226 576 233 576 c 2
 240 576 l 1
 240 568 l 1
 232 562 222 559 210 559 c 0
 179 559 157 569 145 593 c 0
 140 602 137 611 134 624 c 0
 128 650 130 666 111 666 c 2
 103 666 l 1
EndSplineSet
EndChar

StartChar: u1D050
Encoding: 118864 118864 92
Width: 590
GlyphClass: 1
Flags: W
LayerCount: 2
Back
SplineSet
103 487 m 1
 291 516 341 548 391 676 c 1
 410 690 429 697 448 697 c 0
 467 697 475 693 487 685 c 1
 475 683 457 672 455 665 c 0
 428 566 326 495 197 485 c 1
 238 485 274 469 290 448 c 1
 288 442 l 1
 231 463 170 474 103 474 c 1
 103 487 l 1
EndSplineSet
Fore
SplineSet
103 487 m 1
 291 516 341 548 391 676 c 1
 410 690 429 697 448 697 c 0
 467 697 475 693 487 685 c 1
 475 683 457 672 455 665 c 0
 428 566 326 495 197 485 c 1
 238 485 274 469 290 448 c 1
 288 442 l 1
 231 463 170 474 103 474 c 1
 103 487 l 1
EndSplineSet
EndChar

StartChar: u1D051
Encoding: 118865 118865 93
Width: 535
GlyphClass: 1
Flags: W
LayerCount: 2
Back
SplineSet
413 290 m 1
 385 290 339 300 323 308 c 1
 338 312 346 320 346 331 c 0
 346 349 322 366 273 381 c 0
 224 396 167 404 103 406 c 1
 103 412 l 1
 136 416 164 418 185 418 c 0
 308 418 432 376 432 322 c 0
 432 305 426 294 413 290 c 1
EndSplineSet
Fore
SplineSet
413 290 m 1
 385 290 339 300 323 308 c 1
 338 312 346 320 346 331 c 0
 346 349 322 366 273 381 c 0
 224 396 167 404 103 406 c 1
 103 412 l 1
 136 416 164 418 185 418 c 0
 308 418 432 376 432 322 c 0
 432 305 426 294 413 290 c 1
EndSplineSet
EndChar

StartChar: u1D052
Encoding: 118866 118866 94
Width: 619
GlyphClass: 1
Flags: W
LayerCount: 2
Back
SplineSet
498 268 m 1
 467 268 439 273 412 283 c 1
 422 287 433 299 433 310 c 0
 433 363 375 401 259 413 c 1
 259 416 l 1
 271 417 284 418 296 418 c 0
 379 417 516 369 516 300 c 0
 516 282 511 272 498 268 c 1
365 290 m 1
 335 290 293 300 278 308 c 1
 293 312 301 320 301 331 c 0
 301 351 283 368 248 382 c 0
 212 396 164 405 103 408 c 1
 103 413 l 1
 125 415 144 416 164 416 c 0
 258 416 382 374 382 323 c 0
 382 306 376 294 365 290 c 1
EndSplineSet
Fore
SplineSet
498 268 m 1
 467 268 439 273 412 283 c 1
 422 287 433 299 433 310 c 0
 433 363 375 401 259 413 c 1
 259 416 l 1
 271 417 284 418 296 418 c 0
 379 417 516 369 516 300 c 0
 516 282 511 272 498 268 c 1
365 290 m 1
 335 290 293 300 278 308 c 1
 293 312 301 320 301 331 c 0
 301 351 283 368 248 382 c 0
 212 396 164 405 103 408 c 1
 103 413 l 1
 125 415 144 416 164 416 c 0
 258 416 382 374 382 323 c 0
 382 306 376 294 365 290 c 1
EndSplineSet
EndChar

StartChar: u1D053
Encoding: 118867 118867 95
Width: 383
GlyphClass: 1
Flags: W
LayerCount: 2
Back
SplineSet
103 310 m 1
 103 314 l 1
 122 312 142 310 164 310 c 0
 181 310 190 314 190 322 c 0
 190 326 186 338 177 357 c 0
 168 376 163 387 163 391 c 0
 163 408 174 416 196 416 c 2
 251 416 l 2
 270 416 280 412 280 404 c 0
 280 396 276 391 269 391 c 0
 264 391 261 392 259 394 c 0
 258 396 254 397 250 397 c 2
 245 397 l 2
 239 397 236 395 236 391 c 2
 242 380 l 2
 262 345 271 321 271 312 c 0
 271 287 244 278 217 278 c 0
 178 278 131 291 103 310 c 1
EndSplineSet
Fore
SplineSet
103 310 m 1
 103 314 l 1
 122 312 142 310 164 310 c 0
 181 310 190 314 190 322 c 0
 190 326 186 338 177 357 c 0
 168 376 163 387 163 391 c 0
 163 408 174 416 196 416 c 2
 251 416 l 2
 270 416 280 412 280 404 c 0
 280 396 276 391 269 391 c 0
 264 391 261 392 259 394 c 0
 258 396 254 397 250 397 c 2
 245 397 l 2
 239 397 236 395 236 391 c 2
 242 380 l 2
 262 345 271 321 271 312 c 0
 271 287 244 278 217 278 c 0
 178 278 131 291 103 310 c 1
EndSplineSet
EndChar

StartChar: u1D054
Encoding: 118868 118868 96
Width: 556
GlyphClass: 1
Flags: W
LayerCount: 2
Back
SplineSet
106 217 m 2
 106 240 114 258 131 269 c 1
 145 269 160 268 174 266 c 1
 174 239 164 218 145 204 c 1
 125 204 112 206 106 208 c 1
 106 217 l 2
360 196 m 1
 337 190 310 187 276 187 c 0
 229 187 185 205 185 232 c 0
 185 250 196 259 218 259 c 0
 229 259 237 257 252 252 c 1
 243 245 242 243 242 239 c 0
 242 222 265 209 294 209 c 0
 319 209 337 209 362 210 c 1
 372 221 389 226 412 226 c 2
 452 226 l 1
 452 216 l 1
 437 214 425 208 418 199 c 1
 415 138 l 1
 400 122 380 114 355 114 c 0
 336 114 314 117 287 124 c 1
 287 131 l 1
 315 131 337 135 352 142 c 1
 354 169 356 187 360 196 c 1
EndSplineSet
Fore
SplineSet
106 217 m 2
 106 240 114 258 131 269 c 1
 145 269 160 268 174 266 c 1
 174 239 164 218 145 204 c 1
 125 204 112 206 106 208 c 1
 106 217 l 2
360 196 m 1
 337 190 310 187 276 187 c 0
 229 187 185 205 185 232 c 0
 185 250 196 259 218 259 c 0
 229 259 237 257 252 252 c 1
 243 245 242 243 242 239 c 0
 242 222 265 209 294 209 c 0
 319 209 337 209 362 210 c 1
 372 221 389 226 412 226 c 2
 452 226 l 1
 452 216 l 1
 437 214 425 208 418 199 c 1
 415 138 l 1
 400 122 380 114 355 114 c 0
 336 114 314 117 287 124 c 1
 287 131 l 1
 315 131 337 135 352 142 c 1
 354 169 356 187 360 196 c 1
EndSplineSet
EndChar

StartChar: u1D055
Encoding: 118869 118869 97
Width: 712
GlyphClass: 1
Flags: W
LayerCount: 2
Back
SplineSet
210 293 m 0
 151 293 103 321 103 360 c 0
 103 405 148 422 230 422 c 0
 285 422 341 414 396 397 c 0
 507 363 593 306 607 262 c 1
 597 261 587 260 577 260 c 0
 557 260 533 264 506 271 c 1
 500 337 397 390 268 390 c 0
 214 390 187 376 187 348 c 0
 187 332 213 303 239 294 c 1
 229 293 220 293 210 293 c 0
EndSplineSet
Fore
SplineSet
210 293 m 0
 151 293 103 321 103 360 c 0
 103 405 148 422 230 422 c 0
 285 422 341 414 396 397 c 0
 507 363 593 306 607 262 c 1
 597 261 587 260 577 260 c 0
 557 260 533 264 506 271 c 1
 500 337 397 390 268 390 c 0
 214 390 187 376 187 348 c 0
 187 332 213 303 239 294 c 1
 229 293 220 293 210 293 c 0
EndSplineSet
EndChar

StartChar: u1D056
Encoding: 118870 118870 98
Width: 692
GlyphClass: 1
Flags: W
LayerCount: 2
Back
SplineSet
312 258 m 1
 323 270 329 282 331 293 c 1
 224 301 179 321 145 353 c 0
 115 381 108 390 103 446 c 1
 127 452 143 455 149 455 c 0
 160 455 172 451 187 444 c 1
 187 412 l 1
 208 363 259 333 340 322 c 1
 348 342 l 2
 353 354 369 361 384 359 c 2
 416 354 l 1
 403 318 l 1
 527 312 l 2
 542 311 562 304 589 293 c 1
 565 291 536 289 501 289 c 2
 391 290 l 1
 378 265 360 252 336 252 c 0
 333 252 322 254 312 258 c 1
EndSplineSet
Fore
SplineSet
312 258 m 1
 323 270 329 282 331 293 c 1
 224 301 179 321 145 353 c 0
 115 381 108 390 103 446 c 1
 127 452 143 455 149 455 c 0
 160 455 172 451 187 444 c 1
 187 412 l 1
 208 363 259 333 340 322 c 1
 348 342 l 2
 353 354 369 361 384 359 c 2
 416 354 l 1
 403 318 l 1
 527 312 l 2
 542 311 562 304 589 293 c 1
 565 291 536 289 501 289 c 2
 391 290 l 1
 378 265 360 252 336 252 c 0
 333 252 322 254 312 258 c 1
EndSplineSet
EndChar

StartChar: u1D057
Encoding: 118871 118871 99
Width: 412
GlyphClass: 1
Flags: W
LayerCount: 2
Back
SplineSet
167 395 m 1
 165 389 163 382 163 374 c 0
 163 346 211 327 308 318 c 1
 308 311 l 1
 230 311 177 318 147 331 c 0
 118 344 103 363 103 386 c 0
 103 396 109 401 121 401 c 2
 167 395 l 1
EndSplineSet
Fore
SplineSet
167 395 m 1
 165 389 163 382 163 374 c 0
 163 346 211 327 308 318 c 1
 308 311 l 1
 230 311 177 318 147 331 c 0
 118 344 103 363 103 386 c 0
 103 396 109 401 121 401 c 2
 167 395 l 1
EndSplineSet
EndChar

StartChar: u1D058
Encoding: 118872 118872 100
Width: 588
GlyphClass: 1
Flags: W
LayerCount: 2
Back
SplineSet
138 432 m 2
 155 432 162 425 175 398 c 2
 188 370 l 2
 230 281 327 217 484 179 c 1
 484 174 l 1
 383 192 294 222 227 263 c 0
 163 302 119 365 103 432 c 1
 138 432 l 2
EndSplineSet
Fore
SplineSet
138 432 m 2
 155 432 162 425 175 398 c 2
 188 370 l 2
 230 281 327 217 484 179 c 1
 484 174 l 1
 383 192 294 222 227 263 c 0
 163 302 119 365 103 432 c 1
 138 432 l 2
EndSplineSet
EndChar

StartChar: u1D059
Encoding: 118873 118873 101
Width: 588
GlyphClass: 1
Flags: W
LayerCount: 2
Back
SplineSet
217 197 m 2
 237 197 243 187 252 170 c 0
 281 114 337 66 415 32 c 2
 484 2 l 1
 484 0 l 1
 431 11 380 28 331 49 c 0
 232 92 209 134 188 197 c 1
 217 197 l 2
132 197 m 2
 148 197 161 187 169 167 c 0
 177 146 190 126 208 106 c 1
 158 113 l 1
 145 127 l 2
 124 149 109 172 103 197 c 1
 132 197 l 2
EndSplineSet
Fore
SplineSet
217 197 m 2
 237 197 243 187 252 170 c 0
 281 114 337 66 415 32 c 2
 484 2 l 1
 484 0 l 1
 431 11 380 28 331 49 c 0
 232 92 209 134 188 197 c 1
 217 197 l 2
132 197 m 2
 148 197 161 187 169 167 c 0
 177 146 190 126 208 106 c 1
 158 113 l 1
 145 127 l 2
 124 149 109 172 103 197 c 1
 132 197 l 2
EndSplineSet
EndChar

StartChar: u1D05A
Encoding: 118874 118874 102
Width: 726
GlyphClass: 1
Flags: W
LayerCount: 2
Back
SplineSet
415 145 m 0
 405 146 396 147 386 149 c 2
 116 209 l 2
 109 211 106 217 106 226 c 2
 106 230 l 1
 270 193 354 175 360 175 c 0
 369 175 384 180 393 184 c 2
 491 232 l 2
 503 238 514 241 524 241 c 0
 541 241 597 230 622 218 c 1
 427 146 l 2
 423 145 419 145 415 145 c 0
EndSplineSet
Fore
SplineSet
415 145 m 0
 405 146 396 147 386 149 c 2
 116 209 l 2
 109 211 106 217 106 226 c 2
 106 230 l 1
 270 193 354 175 360 175 c 0
 369 175 384 180 393 184 c 2
 491 232 l 2
 503 238 514 241 524 241 c 0
 541 241 597 230 622 218 c 1
 427 146 l 2
 423 145 419 145 415 145 c 0
EndSplineSet
EndChar

StartChar: u1D05B
Encoding: 118875 118875 103
Width: 822
GlyphClass: 1
Flags: W
LayerCount: 2
Back
SplineSet
103 164 m 1
 631 179 l 1
 719 163 l 1
 634 102 l 1
 552 110 l 1
 588 157 l 1
 103 146 l 1
 103 164 l 1
EndSplineSet
Fore
SplineSet
103 164 m 1
 631 179 l 1
 719 163 l 1
 634 102 l 1
 552 110 l 1
 588 157 l 1
 103 146 l 1
 103 164 l 1
EndSplineSet
EndChar

StartChar: u1D05C
Encoding: 118876 118876 104
Width: 714
GlyphClass: 1
Flags: W
LayerCount: 2
Back
SplineSet
103 188 m 1
 167 200 246 206 338 206 c 0
 420 206 487 197 537 180 c 0
 587 163 611 143 611 122 c 0
 611 104 601 95 582 95 c 0
 567 95 531 105 518 113 c 1
 528 123 533 131 533 137 c 0
 533 152 517 165 483 175 c 0
 449 185 401 190 338 190 c 0
 269 190 191 187 103 179 c 1
 103 188 l 1
EndSplineSet
Fore
SplineSet
103 188 m 1
 167 200 246 206 338 206 c 0
 420 206 487 197 537 180 c 0
 587 163 611 143 611 122 c 0
 611 104 601 95 582 95 c 0
 567 95 531 105 518 113 c 1
 528 123 533 131 533 137 c 0
 533 152 517 165 483 175 c 0
 449 185 401 190 338 190 c 0
 269 190 191 187 103 179 c 1
 103 188 l 1
EndSplineSet
EndChar

StartChar: u1D05D
Encoding: 118877 118877 105
Width: 715
GlyphClass: 1
Flags: W
LayerCount: 2
Back
SplineSet
612 132 m 1
 612 115 l 1
 197 131 l 1
 214 147 222 162 222 173 c 0
 222 186 213 193 196 193 c 0
 171 193 155 178 149 149 c 1
 103 149 l 1
 119 204 148 209 196 209 c 0
 235 209 258 195 258 174 c 0
 258 164 253 154 245 146 c 1
 612 132 l 1
EndSplineSet
Fore
SplineSet
612 132 m 1
 612 115 l 1
 197 131 l 1
 214 147 222 162 222 173 c 0
 222 186 213 193 196 193 c 0
 171 193 155 178 149 149 c 1
 103 149 l 1
 119 204 148 209 196 209 c 0
 235 209 258 195 258 174 c 0
 258 164 253 154 245 146 c 1
 612 132 l 1
EndSplineSet
EndChar

StartChar: u1D05E
Encoding: 118878 118878 106
Width: 779
GlyphClass: 1
Flags: W
LayerCount: 2
Back
SplineSet
113 521 m 1
 103 541 l 1
 416 541 l 1
 416 535 l 1
 406 533 390 521 390 506 c 0
 390 492 406 485 439 485 c 2
 665 485 l 1
 676 467 l 1
 372 467 l 2
 332 467 311 477 311 496 c 0
 311 511 318 519 331 521 c 1
 113 521 l 1
EndSplineSet
Fore
SplineSet
113 521 m 1
 103 541 l 1
 416 541 l 1
 416 535 l 1
 406 533 390 521 390 506 c 0
 390 492 406 485 439 485 c 2
 665 485 l 1
 676 467 l 1
 372 467 l 2
 332 467 311 477 311 496 c 0
 311 511 318 519 331 521 c 1
 113 521 l 1
EndSplineSet
EndChar

StartChar: u1D05F
Encoding: 118879 118879 107
Width: 511
GlyphClass: 1
Flags: W
LayerCount: 2
Back
SplineSet
370 361 m 0
 370 351 354 338 323 322 c 1
 328 327 330 335 330 346 c 0
 330 359 307 366 260 366 c 0
 248 366 192 361 182 359 c 2
 145 352 l 1
 229 343 l 2
 261 340 278 324 278 301 c 0
 278 276 275 258 269 245 c 2
 234 174 l 2
 229 164 226 154 226 144 c 0
 226 115 259 86 296 86 c 0
 335 86 372 103 377 118 c 1
 362 127 355 136 355 144 c 0
 355 154 370 163 386 163 c 0
 401 163 408 156 408 142 c 0
 408 101 355 71 296 71 c 0
 229 71 188 104 188 149 c 0
 188 178 206 222 241 281 c 0
 247 291 250 298 250 302 c 0
 250 310 239 317 218 322 c 0
 203 326 181 331 162 333 c 0
 131 336 103 340 103 352 c 0
 103 361 243 391 308 391 c 0
 344 391 370 373 370 361 c 0
EndSplineSet
Fore
SplineSet
370 361 m 0
 370 351 354 338 323 322 c 1
 328 327 330 335 330 346 c 0
 330 359 307 366 260 366 c 0
 248 366 192 361 182 359 c 2
 145 352 l 1
 229 343 l 2
 261 340 278 324 278 301 c 0
 278 276 275 258 269 245 c 2
 234 174 l 2
 229 164 226 154 226 144 c 0
 226 115 259 86 296 86 c 0
 335 86 372 103 377 118 c 1
 362 127 355 136 355 144 c 0
 355 154 370 163 386 163 c 0
 401 163 408 156 408 142 c 0
 408 101 355 71 296 71 c 0
 229 71 188 104 188 149 c 0
 188 178 206 222 241 281 c 0
 247 291 250 298 250 302 c 0
 250 310 239 317 218 322 c 0
 203 326 181 331 162 333 c 0
 131 336 103 340 103 352 c 0
 103 361 243 391 308 391 c 0
 344 391 370 373 370 361 c 0
EndSplineSet
EndChar

StartChar: u1D060
Encoding: 118880 118880 108
Width: 916
GlyphClass: 1
Flags: W
LayerCount: 2
Back
SplineSet
103 113 m 1
 116 123 123 136 122 152 c 2
 121 174 l 1
 129 191 148 200 180 200 c 1
 176 177 l 1
 179 157 l 1
 282 178 350 188 383 188 c 0
 435 188 475 181 501 171 c 0
 557 150 583 110 654 110 c 0
 694 110 760 124 809 149 c 1
 812 138 l 1
 771 110 696 86 647 86 c 0
 562 86 527 109 495 130 c 0
 474 144 452 158 382 158 c 0
 310 158 165 132 103 113 c 1
EndSplineSet
Fore
SplineSet
103 113 m 1
 116 123 123 136 122 152 c 2
 121 174 l 1
 129 191 148 200 180 200 c 1
 176 177 l 1
 179 157 l 1
 282 178 350 188 383 188 c 0
 435 188 475 181 501 171 c 0
 557 150 583 110 654 110 c 0
 694 110 760 124 809 149 c 1
 812 138 l 1
 771 110 696 86 647 86 c 0
 562 86 527 109 495 130 c 0
 474 144 452 158 382 158 c 0
 310 158 165 132 103 113 c 1
EndSplineSet
EndChar

StartChar: u1D061
Encoding: 118881 118881 109
Width: 905
GlyphClass: 1
Flags: W
LayerCount: 2
Back
SplineSet
215 86 m 1
 235 101 245 116 245 131 c 0
 245 145 233 152 210 152 c 0
 179 152 159 137 157 110 c 1
 103 110 l 1
 106 150 142 170 209 170 c 0
 261 170 287 159 287 137 c 0
 287 125 283 114 274 107 c 1
 329 140 389 156 456 156 c 0
 517 156 596 137 693 96 c 0
 710 89 722 85 726 85 c 0
 735 85 740 89 740 96 c 0
 740 113 750 121 769 121 c 0
 790 121 800 112 800 94 c 0
 800 73 788 62 763 62 c 0
 749 62 707 74 638 97 c 0
 569 120 513 132 469 132 c 0
 411 132 330 102 308 80 c 1
 288 80 l 2
 257 80 233 82 215 86 c 1
EndSplineSet
Fore
SplineSet
215 86 m 1
 235 101 245 116 245 131 c 0
 245 145 233 152 210 152 c 0
 179 152 159 137 157 110 c 1
 103 110 l 1
 106 150 142 170 209 170 c 0
 261 170 287 159 287 137 c 0
 287 125 283 114 274 107 c 1
 329 140 389 156 456 156 c 0
 517 156 596 137 693 96 c 0
 710 89 722 85 726 85 c 0
 735 85 740 89 740 96 c 0
 740 113 750 121 769 121 c 0
 790 121 800 112 800 94 c 0
 800 73 788 62 763 62 c 0
 749 62 707 74 638 97 c 0
 569 120 513 132 469 132 c 0
 411 132 330 102 308 80 c 1
 288 80 l 2
 257 80 233 82 215 86 c 1
EndSplineSet
EndChar

StartChar: u1D062
Encoding: 118882 118882 110
Width: 822
GlyphClass: 1
Flags: W
LayerCount: 2
Back
SplineSet
280 146 m 1
 268 146 l 2
 250 146 232 148 215 154 c 1
 235 169 245 184 245 197 c 0
 245 210 233 217 210 217 c 0
 179 217 159 200 157 175 c 1
 103 175 l 1
 106 215 142 236 209 236 c 0
 261 236 287 225 287 204 c 0
 287 189 283 179 274 173 c 1
 350 201 481 228 571 228 c 0
 627 228 666 222 687 211 c 0
 708 200 719 184 719 164 c 0
 719 145 714 142 685 142 c 0
 659 142 646 145 646 149 c 0
 646 153 649 158 656 165 c 0
 662 171 665 177 665 182 c 0
 665 191 658 197 644 201 c 0
 630 205 607 206 574 206 c 0
 471 206 373 186 280 146 c 1
EndSplineSet
Fore
SplineSet
280 146 m 1
 268 146 l 2
 250 146 232 148 215 154 c 1
 235 169 245 184 245 197 c 0
 245 210 233 217 210 217 c 0
 179 217 159 200 157 175 c 1
 103 175 l 1
 106 215 142 236 209 236 c 0
 261 236 287 225 287 204 c 0
 287 189 283 179 274 173 c 1
 350 201 481 228 571 228 c 0
 627 228 666 222 687 211 c 0
 708 200 719 184 719 164 c 0
 719 145 714 142 685 142 c 0
 659 142 646 145 646 149 c 0
 646 153 649 158 656 165 c 0
 662 171 665 177 665 182 c 0
 665 191 658 197 644 201 c 0
 630 205 607 206 574 206 c 0
 471 206 373 186 280 146 c 1
EndSplineSet
EndChar

StartChar: u1D063
Encoding: 118883 118883 111
Width: 426
GlyphClass: 1
Flags: W
LayerCount: 2
Back
SplineSet
145 276 m 2
 239 276 l 2
 279 276 303 265 310 242 c 1
 154 247 l 1
 227 208 l 2
 291 174 323 135 323 106 c 0
 323 57 271 20 208 20 c 0
 194 20 182 22 173 28 c 1
 222 39 271 74 271 113 c 0
 271 137 259 156 238 175 c 0
 208 203 103 247 103 262 c 0
 103 270 107 273 115 274 c 0
 123 275 133 276 145 276 c 2
EndSplineSet
Fore
SplineSet
145 276 m 2
 239 276 l 2
 279 276 303 265 310 242 c 1
 154 247 l 1
 227 208 l 2
 291 174 323 135 323 106 c 0
 323 57 271 20 208 20 c 0
 194 20 182 22 173 28 c 1
 222 39 271 74 271 113 c 0
 271 137 259 156 238 175 c 0
 208 203 103 247 103 262 c 0
 103 270 107 273 115 274 c 0
 123 275 133 276 145 276 c 2
EndSplineSet
EndChar

StartChar: u1D064
Encoding: 118884 118884 112
Width: 665
GlyphClass: 1
Flags: W
LayerCount: 2
Back
SplineSet
122 245 m 2
 113 245 105 253 105 260 c 0
 105 266 108 269 115 269 c 2
 329 271 l 2
 378 271 409 240 413 198 c 2
 417 160 l 2
 418 150 420 143 426 137 c 0
 447 116 492 94 562 71 c 1
 462 71 415 88 378 120 c 0
 357 138 350 168 347 191 c 0
 343 221 339 247 308 247 c 2
 122 245 l 2
EndSplineSet
Fore
SplineSet
122 245 m 2
 113 245 105 253 105 260 c 0
 105 266 108 269 115 269 c 2
 329 271 l 2
 378 271 409 240 413 198 c 2
 417 160 l 2
 418 150 420 143 426 137 c 0
 447 116 492 94 562 71 c 1
 462 71 415 88 378 120 c 0
 357 138 350 168 347 191 c 0
 343 221 339 247 308 247 c 2
 122 245 l 2
EndSplineSet
EndChar

StartChar: u1D065
Encoding: 118885 118885 113
Width: 841
GlyphClass: 1
Flags: W
LayerCount: 2
Back
SplineSet
382 182 m 1
 339 174 299 170 262 170 c 0
 214 170 172 174 115 188 c 0
 106 190 103 196 103 199 c 0
 103 205 109 207 120 207 c 0
 133 207 206 190 262 190 c 0
 319 190 412 209 425 209 c 0
 436 209 442 206 442 199 c 0
 442 186 432 160 413 121 c 1
 446 128 471 132 487 132 c 0
 528 132 584 113 656 73 c 0
 669 66 679 62 684 62 c 0
 689 62 692 65 692 72 c 0
 692 87 699 94 714 94 c 0
 729 94 737 86 737 70 c 0
 737 50 726 35 706 35 c 0
 694 35 663 47 613 71 c 0
 562 95 524 107 499 107 c 0
 466 107 432 98 396 80 c 1
 377 79 l 2
 363 78 350 81 343 84 c 1
 343 99 346 112 351 124 c 0
 359 145 371 165 382 182 c 1
EndSplineSet
Fore
SplineSet
382 182 m 1
 339 174 299 170 262 170 c 0
 214 170 172 174 115 188 c 0
 106 190 103 196 103 199 c 0
 103 205 109 207 120 207 c 0
 133 207 206 190 262 190 c 0
 319 190 412 209 425 209 c 0
 436 209 442 206 442 199 c 0
 442 186 432 160 413 121 c 1
 446 128 471 132 487 132 c 0
 528 132 584 113 656 73 c 0
 669 66 679 62 684 62 c 0
 689 62 692 65 692 72 c 0
 692 87 699 94 714 94 c 0
 729 94 737 86 737 70 c 0
 737 50 726 35 706 35 c 0
 694 35 663 47 613 71 c 0
 562 95 524 107 499 107 c 0
 466 107 432 98 396 80 c 1
 377 79 l 2
 363 78 350 81 343 84 c 1
 343 99 346 112 351 124 c 0
 359 145 371 165 382 182 c 1
EndSplineSet
EndChar

StartChar: u1D066
Encoding: 118886 118886 114
Width: 642
GlyphClass: 1
Flags: W
LayerCount: 2
Back
SplineSet
185 170 m 2
 197 170 203 167 203 162 c 0
 203 159 197 153 185 147 c 0
 173 141 167 135 167 131 c 0
 167 125 169 122 174 121 c 0
 178 119 186 118 197 118 c 0
 213 118 257 125 329 138 c 0
 401 151 452 158 484 158 c 0
 521 158 539 151 539 136 c 0
 539 113 509 101 481 101 c 0
 466 101 456 104 448 110 c 1
 468 115 484 128 484 136 c 0
 484 140 479 142 469 142 c 0
 450 142 403 136 330 122 c 0
 256 108 211 101 196 101 c 0
 166 101 143 103 127 106 c 0
 112 109 103 118 103 131 c 0
 103 152 127 170 156 170 c 2
 185 170 l 2
EndSplineSet
Fore
SplineSet
185 170 m 2
 197 170 203 167 203 162 c 0
 203 159 197 153 185 147 c 0
 173 141 167 135 167 131 c 0
 167 125 169 122 174 121 c 0
 178 119 186 118 197 118 c 0
 213 118 257 125 329 138 c 0
 401 151 452 158 484 158 c 0
 521 158 539 151 539 136 c 0
 539 113 509 101 481 101 c 0
 466 101 456 104 448 110 c 1
 468 115 484 128 484 136 c 0
 484 140 479 142 469 142 c 0
 450 142 403 136 330 122 c 0
 256 108 211 101 196 101 c 0
 166 101 143 103 127 106 c 0
 112 109 103 118 103 131 c 0
 103 152 127 170 156 170 c 2
 185 170 l 2
EndSplineSet
EndChar

StartChar: u1D067
Encoding: 118887 118887 115
Width: 510
GlyphClass: 1
Flags: W
LayerCount: 2
Back
SplineSet
250 215 m 1
 215 197 194 188 187 188 c 0
 140 188 103 214 103 250 c 0
 103 281 128 296 152 296 c 0
 169 296 185 288 199 271 c 1
 199 266 l 1
 186 271 174 274 163 274 c 0
 144 274 128 260 128 240 c 0
 128 225 142 200 166 200 c 0
 175 200 188 205 202 213 c 0
 217 221 232 230 247 239 c 1
 245 276 l 1
 268 276 l 1
 269 250 l 1
 287 257 l 1
 283 283 l 1
 308 283 l 1
 310 259 l 1
 312 259 l 2
 375 259 406 235 406 187 c 0
 406 147 374 118 329 118 c 0
 309 118 293 123 282 131 c 1
 282 136 l 1
 296 131 311 128 325 128 c 0
 347 128 377 149 377 185 c 0
 377 223 363 242 334 242 c 0
 326 242 319 241 311 239 c 1
 314 196 l 1
 293 196 l 1
 288 230 l 1
 271 224 l 1
 276 187 l 1
 252 187 l 1
 250 215 l 1
EndSplineSet
Fore
SplineSet
250 215 m 1
 215 197 194 188 187 188 c 0
 140 188 103 214 103 250 c 0
 103 281 128 296 152 296 c 0
 169 296 185 288 199 271 c 1
 199 266 l 1
 186 271 174 274 163 274 c 0
 144 274 128 260 128 240 c 0
 128 225 142 200 166 200 c 0
 175 200 188 205 202 213 c 0
 217 221 232 230 247 239 c 1
 245 276 l 1
 268 276 l 1
 269 250 l 1
 287 257 l 1
 283 283 l 1
 308 283 l 1
 310 259 l 1
 312 259 l 2
 375 259 406 235 406 187 c 0
 406 147 374 118 329 118 c 0
 309 118 293 123 282 131 c 1
 282 136 l 1
 296 131 311 128 325 128 c 0
 347 128 377 149 377 185 c 0
 377 223 363 242 334 242 c 0
 326 242 319 241 311 239 c 1
 314 196 l 1
 293 196 l 1
 288 230 l 1
 271 224 l 1
 276 187 l 1
 252 187 l 1
 250 215 l 1
EndSplineSet
EndChar

StartChar: u1D068
Encoding: 118888 118888 116
Width: 655
GlyphClass: 1
Flags: W
LayerCount: 2
Back
SplineSet
103 301 m 1
 109 308 119 311 132 311 c 0
 149 311 171 285 192 268 c 0
 217 247 235 228 276 209 c 1
 250 268 l 1
 276 266 l 1
 308 197 l 1
 338 190 l 1
 308 259 l 1
 334 258 l 1
 365 188 l 1
 380 188 l 2
 434 188 491 192 552 199 c 1
 552 196 l 1
 483 181 424 174 377 174 c 0
 268 174 208 189 103 301 c 1
EndSplineSet
Fore
SplineSet
103 301 m 1
 109 308 119 311 132 311 c 0
 149 311 171 285 192 268 c 0
 217 247 235 228 276 209 c 1
 250 268 l 1
 276 266 l 1
 308 197 l 1
 338 190 l 1
 308 259 l 1
 334 258 l 1
 365 188 l 1
 380 188 l 2
 434 188 491 192 552 199 c 1
 552 196 l 1
 483 181 424 174 377 174 c 0
 268 174 208 189 103 301 c 1
EndSplineSet
EndChar

StartChar: u1D069
Encoding: 118889 118889 117
Width: 590
GlyphClass: 1
Flags: W
LayerCount: 2
Back
SplineSet
344 199 m 1
 344 204 l 1
 353 201 368 199 391 199 c 0
 407 199 415 202 415 208 c 2
 390 266 l 1
 390 280 399 287 418 287 c 2
 463 287 l 2
 479 287 487 283 487 276 c 0
 487 270 482 266 478 266 c 0
 474 266 466 271 458 271 c 0
 454 271 452 270 452 266 c 2
 457 255 l 2
 471 224 478 206 478 200 c 0
 478 181 458 173 438 173 c 0
 395 173 354 188 344 199 c 1
220 260 m 2
 236 260 245 247 254 230 c 0
 262 215 304 165 323 151 c 0
 353 129 385 107 484 70 c 1
 484 64 l 1
 431 75 380 93 331 113 c 0
 232 154 210 196 188 260 c 1
 220 260 l 2
132 260 m 2
 148 260 159 250 167 232 c 0
 175 214 188 193 208 170 c 1
 158 175 l 1
 144 193 112 225 103 260 c 1
 132 260 l 2
EndSplineSet
Fore
SplineSet
344 199 m 1
 344 204 l 1
 353 201 368 199 391 199 c 0
 407 199 415 202 415 208 c 2
 390 266 l 1
 390 280 399 287 418 287 c 2
 463 287 l 2
 479 287 487 283 487 276 c 0
 487 270 482 266 478 266 c 0
 474 266 466 271 458 271 c 0
 454 271 452 270 452 266 c 2
 457 255 l 2
 471 224 478 206 478 200 c 0
 478 181 458 173 438 173 c 0
 395 173 354 188 344 199 c 1
220 260 m 2
 236 260 245 247 254 230 c 0
 262 215 304 165 323 151 c 0
 353 129 385 107 484 70 c 1
 484 64 l 1
 431 75 380 93 331 113 c 0
 232 154 210 196 188 260 c 1
 220 260 l 2
132 260 m 2
 148 260 159 250 167 232 c 0
 175 214 188 193 208 170 c 1
 158 175 l 1
 144 193 112 225 103 260 c 1
 132 260 l 2
EndSplineSet
EndChar

StartChar: u1D06A
Encoding: 118890 118890 118
Width: 787
GlyphClass: 1
Flags: W
LayerCount: 2
Back
SplineSet
103 -2 m 1
 103 1 l 1
 130 1 161 7 197 16 c 0
 242 27 287 56 329 85 c 0
 362 108 396 124 425 124 c 0
 441 124 473 110 521 83 c 0
 568 57 603 43 625 43 c 0
 636 43 642 46 642 52 c 0
 642 58 638 64 629 70 c 1
 636 79 645 84 655 84 c 0
 674 84 684 70 684 53 c 0
 684 33 667 23 632 23 c 0
 599 23 557 40 521 55 c 1
 449 0 l 2
 433 -12 418 -17 408 -17 c 0
 391 -17 382 -12 382 -1 c 0
 382 3 387 8 397 15 c 0
 406 21 418 29 427 35 c 2
 484 77 l 1
 465 85 453 89 449 89 c 0
 435 89 415 82 387 68 c 2
 348 48 l 2
 268 6 206 -8 154 -8 c 0
 137 -8 120 -5 103 -2 c 1
EndSplineSet
Fore
SplineSet
103 -2 m 1
 103 1 l 1
 130 1 161 7 197 16 c 0
 242 27 287 56 329 85 c 0
 362 108 396 124 425 124 c 0
 441 124 473 110 521 83 c 0
 568 57 603 43 625 43 c 0
 636 43 642 46 642 52 c 0
 642 58 638 64 629 70 c 1
 636 79 645 84 655 84 c 0
 674 84 684 70 684 53 c 0
 684 33 667 23 632 23 c 0
 599 23 557 40 521 55 c 1
 449 0 l 2
 433 -12 418 -17 408 -17 c 0
 391 -17 382 -12 382 -1 c 0
 382 3 387 8 397 15 c 0
 406 21 418 29 427 35 c 2
 484 77 l 1
 465 85 453 89 449 89 c 0
 435 89 415 82 387 68 c 2
 348 48 l 2
 268 6 206 -8 154 -8 c 0
 137 -8 120 -5 103 -2 c 1
EndSplineSet
EndChar

StartChar: u1D06B
Encoding: 118891 118891 119
Width: 613
GlyphClass: 1
Flags: W
LayerCount: 2
Back
SplineSet
103 110 m 1
 223 120 306 152 370 242 c 1
 367 246 356 252 352 253 c 0
 322 267 312 271 286 281 c 0
 255 293 226 303 196 312 c 1
 196 318 l 1
 249 355 345 386 362 386 c 0
 372 386 391 375 391 372 c 0
 391 366 375 360 343 352 c 0
 311 344 279 333 247 318 c 1
 273 308 l 2
 313 293 350 277 383 262 c 1
 394 284 l 2
 409 314 431 329 458 329 c 2
 510 329 l 1
 510 323 l 1
 473 305 459 291 426 240 c 1
 453 223 467 200 467 173 c 0
 467 132 431 96 361 96 c 1
 382 107 l 2
 411 122 425 141 425 164 c 0
 425 185 418 202 406 215 c 1
 347 148 250 108 144 108 c 1
 103 110 l 1
EndSplineSet
Fore
SplineSet
103 110 m 1
 223 120 306 152 370 242 c 1
 367 246 356 252 352 253 c 0
 322 267 312 271 286 281 c 0
 255 293 226 303 196 312 c 1
 196 318 l 1
 249 355 345 386 362 386 c 0
 372 386 391 375 391 372 c 0
 391 366 375 360 343 352 c 0
 311 344 279 333 247 318 c 1
 273 308 l 2
 313 293 350 277 383 262 c 1
 394 284 l 2
 409 314 431 329 458 329 c 2
 510 329 l 1
 510 323 l 1
 473 305 459 291 426 240 c 1
 453 223 467 200 467 173 c 0
 467 132 431 96 361 96 c 1
 382 107 l 2
 411 122 425 141 425 164 c 0
 425 185 418 202 406 215 c 1
 347 148 250 108 144 108 c 1
 103 110 l 1
EndSplineSet
EndChar

StartChar: u1D06C
Encoding: 118892 118892 120
Width: 833
GlyphClass: 1
Flags: W
LayerCount: 2
Back
SplineSet
728 163 m 1
 728 137 l 1
 494 144 l 1
 442 52 348 32 248 32 c 0
 231 32 213 33 196 34 c 1
 196 41 l 1
 362 53 402 75 439 145 c 1
 197 152 l 1
 214 168 222 183 222 196 c 0
 222 209 213 216 196 216 c 0
 171 216 156 202 149 173 c 1
 103 173 l 1
 108 192 115 205 121 211 c 0
 134 223 153 232 197 232 c 0
 222 232 238 229 246 220 c 0
 254 211 258 204 258 197 c 0
 258 186 253 177 245 170 c 1
 449 166 l 1
 472 219 l 2
 486 252 507 269 538 269 c 2
 589 269 l 1
 589 266 l 1
 552 251 523 217 504 166 c 1
 728 163 l 1
EndSplineSet
Fore
SplineSet
728 163 m 1
 728 137 l 1
 494 144 l 1
 442 52 348 32 248 32 c 0
 231 32 213 33 196 34 c 1
 196 41 l 1
 362 53 402 75 439 145 c 1
 197 152 l 1
 214 168 222 183 222 196 c 0
 222 209 213 216 196 216 c 0
 171 216 156 202 149 173 c 1
 103 173 l 1
 108 192 115 205 121 211 c 0
 134 223 153 232 197 232 c 0
 222 232 238 229 246 220 c 0
 254 211 258 204 258 197 c 0
 258 186 253 177 245 170 c 1
 449 166 l 1
 472 219 l 2
 486 252 507 269 538 269 c 2
 589 269 l 1
 589 266 l 1
 552 251 523 217 504 166 c 1
 728 163 l 1
EndSplineSet
EndChar

StartChar: u1D06D
Encoding: 118893 118893 121
Width: 833
GlyphClass: 1
Flags: W
LayerCount: 2
Back
SplineSet
365 250 m 2
 458 250 l 2
 499 250 522 239 528 216 c 1
 373 218 l 1
 410 203 443 185 474 166 c 1
 728 163 l 1
 728 137 l 1
 504 144 l 1
 529 120 542 98 542 79 c 0
 542 30 494 -7 426 -7 c 1
 408 -4 l 1
 391 0 l 1
 450 16 491 50 491 85 c 0
 491 106 483 126 466 144 c 1
 197 152 l 1
 214 168 222 183 222 196 c 0
 222 209 213 216 196 216 c 0
 171 216 156 202 149 173 c 1
 103 173 l 1
 108 192 115 205 121 211 c 0
 134 223 153 232 197 232 c 0
 222 232 238 229 246 220 c 0
 254 211 258 204 258 197 c 0
 258 186 253 177 245 170 c 1
 433 166 l 1
 420 175 408 182 395 189 c 0
 367 204 347 216 335 224 c 0
 327 229 323 233 323 236 c 0
 323 243 327 248 335 249 c 0
 342 250 353 250 365 250 c 2
EndSplineSet
Fore
SplineSet
365 250 m 2
 458 250 l 2
 499 250 522 239 528 216 c 1
 373 218 l 1
 410 203 443 185 474 166 c 1
 728 163 l 1
 728 137 l 1
 504 144 l 1
 529 120 542 98 542 79 c 0
 542 30 494 -7 426 -7 c 1
 408 -4 l 1
 391 0 l 1
 450 16 491 50 491 85 c 0
 491 106 483 126 466 144 c 1
 197 152 l 1
 214 168 222 183 222 196 c 0
 222 209 213 216 196 216 c 0
 171 216 156 202 149 173 c 1
 103 173 l 1
 108 192 115 205 121 211 c 0
 134 223 153 232 197 232 c 0
 222 232 238 229 246 220 c 0
 254 211 258 204 258 197 c 0
 258 186 253 177 245 170 c 1
 433 166 l 1
 420 175 408 182 395 189 c 0
 367 204 347 216 335 224 c 0
 327 229 323 233 323 236 c 0
 323 243 327 248 335 249 c 0
 342 250 353 250 365 250 c 2
EndSplineSet
EndChar

StartChar: u1D06E
Encoding: 118894 118894 122
Width: 916
GlyphClass: 1
Flags: W
LayerCount: 2
Back
SplineSet
103 113 m 1
 116 123 123 136 122 152 c 2
 121 174 l 1
 129 191 148 200 180 200 c 1
 176 177 l 1
 179 157 l 1
 238 169 288 178 330 185 c 1
 306 198 l 2
 271 217 252 229 252 236 c 0
 252 243 256 248 264 249 c 0
 271 250 281 250 294 250 c 2
 388 250 l 2
 429 250 452 239 458 216 c 1
 302 218 l 1
 365 188 l 1
 383 188 l 2
 435 188 475 181 501 171 c 0
 558 150 580 110 653 110 c 0
 694 110 760 124 809 149 c 1
 812 138 l 1
 771 110 696 86 647 86 c 0
 605 86 573 93 551 101 c 0
 505 118 472 154 412 158 c 1
 454 131 474 105 474 79 c 0
 474 27 420 -7 355 -7 c 0
 350 -7 341 -5 322 0 c 1
 382 18 422 53 422 85 c 0
 422 121 404 138 373 158 c 1
 300 158 166 133 103 113 c 1
EndSplineSet
Fore
SplineSet
103 113 m 1
 116 123 123 136 122 152 c 2
 121 174 l 1
 129 191 148 200 180 200 c 1
 176 177 l 1
 179 157 l 1
 238 169 288 178 330 185 c 1
 306 198 l 2
 271 217 252 229 252 236 c 0
 252 243 256 248 264 249 c 0
 271 250 281 250 294 250 c 2
 388 250 l 2
 429 250 452 239 458 216 c 1
 302 218 l 1
 365 188 l 1
 383 188 l 2
 435 188 475 181 501 171 c 0
 558 150 580 110 653 110 c 0
 694 110 760 124 809 149 c 1
 812 138 l 1
 771 110 696 86 647 86 c 0
 605 86 573 93 551 101 c 0
 505 118 472 154 412 158 c 1
 454 131 474 105 474 79 c 0
 474 27 420 -7 355 -7 c 0
 350 -7 341 -5 322 0 c 1
 382 18 422 53 422 85 c 0
 422 121 404 138 373 158 c 1
 300 158 166 133 103 113 c 1
EndSplineSet
EndChar

StartChar: u1D06F
Encoding: 118895 118895 123
Width: 779
GlyphClass: 1
Flags: W
LayerCount: 2
Back
SplineSet
113 41 m 1
 287 43 321 61 362 145 c 1
 316 178 249 178 216 178 c 0
 194 178 156 175 103 170 c 1
 124 181 132 206 132 216 c 2
 132 228 l 1
 139 237 155 245 171 244 c 2
 197 242 l 1
 190 228 187 213 187 196 c 1
 205 197 223 198 241 198 c 0
 312 198 344 192 377 175 c 1
 397 239 419 258 455 258 c 2
 506 258 l 1
 506 252 l 1
 490 248 475 239 462 226 c 0
 449 212 433 185 416 145 c 1
 448 106 498 80 547 80 c 0
 601 80 643 85 674 95 c 1
 676 84 l 1
 644 68 601 60 547 60 c 0
 478 60 435 71 396 110 c 1
 343 38 259 28 195 28 c 0
 170 28 143 30 113 34 c 1
 113 41 l 1
EndSplineSet
Fore
SplineSet
113 41 m 1
 287 43 321 61 362 145 c 1
 316 178 249 178 216 178 c 0
 194 178 156 175 103 170 c 1
 124 181 132 206 132 216 c 2
 132 228 l 1
 139 237 155 245 171 244 c 2
 197 242 l 1
 190 228 187 213 187 196 c 1
 205 197 223 198 241 198 c 0
 312 198 344 192 377 175 c 1
 397 239 419 258 455 258 c 2
 506 258 l 1
 506 252 l 1
 490 248 475 239 462 226 c 0
 449 212 433 185 416 145 c 1
 448 106 498 80 547 80 c 0
 601 80 643 85 674 95 c 1
 676 84 l 1
 644 68 601 60 547 60 c 0
 478 60 435 71 396 110 c 1
 343 38 259 28 195 28 c 0
 170 28 143 30 113 34 c 1
 113 41 l 1
EndSplineSet
EndChar

StartChar: u1D070
Encoding: 118896 118896 124
Width: 854
GlyphClass: 1
Flags: W
LayerCount: 2
Back
SplineSet
481 391 m 2
 574 391 l 2
 616 391 640 381 646 360 c 1
 490 362 l 1
 509 344 l 1
 556 337 595 321 625 306 c 2
 667 285 l 2
 679 279 689 276 697 276 c 0
 703 276 706 280 706 287 c 0
 706 301 713 308 726 308 c 0
 742 308 750 299 750 282 c 0
 750 262 737 250 718 250 c 0
 683 250 662 257 595 290 c 0
 581 297 567 303 553 308 c 1
 596 273 636 236 636 199 c 0
 636 149 582 113 520 113 c 0
 505 113 494 115 485 118 c 1
 550 138 584 168 584 199 c 0
 584 254 543 275 510 306 c 2
 496 319 l 1
 476 319 l 2
 442 319 387 300 360 287 c 0
 350 285 341 284 331 284 c 0
 321 284 312 286 304 288 c 1
 304 309 309 327 319 344 c 0
 329 360 338 376 344 388 c 1
 307 379 268 374 226 374 c 0
 188 374 159 378 136 383 c 0
 115 388 103 395 103 401 c 0
 103 406 109 408 121 408 c 0
 129 408 142 406 160 402 c 0
 177 398 199 396 226 396 c 0
 256 396 300 401 365 412 c 0
 373 413 383 415 388 415 c 0
 398 415 404 411 404 404 c 0
 404 391 394 365 374 325 c 1
 414 338 445 345 466 346 c 1
 448 362 439 374 439 380 c 0
 439 385 443 389 450 390 c 0
 458 391 468 391 481 391 c 2
EndSplineSet
Fore
SplineSet
481 391 m 2
 574 391 l 2
 616 391 640 381 646 360 c 1
 490 362 l 1
 509 344 l 1
 556 337 595 321 625 306 c 2
 667 285 l 2
 679 279 689 276 697 276 c 0
 703 276 706 280 706 287 c 0
 706 301 713 308 726 308 c 0
 742 308 750 299 750 282 c 0
 750 262 737 250 718 250 c 0
 683 250 662 257 595 290 c 0
 581 297 567 303 553 308 c 1
 596 273 636 236 636 199 c 0
 636 149 582 113 520 113 c 0
 505 113 494 115 485 118 c 1
 550 138 584 168 584 199 c 0
 584 254 543 275 510 306 c 2
 496 319 l 1
 476 319 l 2
 442 319 387 300 360 287 c 0
 350 285 341 284 331 284 c 0
 321 284 312 286 304 288 c 1
 304 309 309 327 319 344 c 0
 329 360 338 376 344 388 c 1
 307 379 268 374 226 374 c 0
 188 374 159 378 136 383 c 0
 115 388 103 395 103 401 c 0
 103 406 109 408 121 408 c 0
 129 408 142 406 160 402 c 0
 177 398 199 396 226 396 c 0
 256 396 300 401 365 412 c 0
 373 413 383 415 388 415 c 0
 398 415 404 411 404 404 c 0
 404 391 394 365 374 325 c 1
 414 338 445 345 466 346 c 1
 448 362 439 374 439 380 c 0
 439 385 443 389 450 390 c 0
 458 391 468 391 481 391 c 2
EndSplineSet
EndChar

StartChar: u1D071
Encoding: 118897 118897 125
Width: 854
GlyphClass: 1
Flags: W
LayerCount: 2
Back
SplineSet
266 80 m 1
 332 86 369 92 403 102 c 0
 460 118 491 142 530 230 c 1
 520 234 501 236 476 236 c 0
 450 236 423 230 395 218 c 0
 367 206 346 200 332 200 c 0
 321 200 312 202 304 206 c 1
 304 225 309 242 319 260 c 0
 328 276 337 291 344 304 c 1
 305 297 266 293 226 293 c 0
 177 293 144 296 128 301 c 0
 111 306 103 313 103 318 c 0
 103 323 109 325 121 325 c 0
 129 325 143 323 160 319 c 0
 177 315 191 312 226 312 c 0
 242 312 272 314 301 318 c 0
 327 322 346 325 365 328 c 0
 376 330 382 331 388 331 c 0
 398 331 404 328 404 322 c 0
 404 310 388 266 374 242 c 1
 409 255 443 262 475 262 c 0
 494 262 516 260 539 257 c 1
 554 293 577 311 607 311 c 2
 660 311 l 1
 660 308 l 1
 631 298 607 275 589 239 c 1
 614 228 636 217 654 208 c 0
 672 199 686 193 697 193 c 0
 703 193 706 197 706 204 c 0
 706 217 713 224 726 224 c 0
 742 224 750 216 750 199 c 0
 750 180 737 166 718 166 c 0
 685 166 651 178 612 198 c 2
 578 215 l 1
 538 121 447 73 319 73 c 2
 307 73 l 1
 266 74 l 1
 266 80 l 1
EndSplineSet
Fore
SplineSet
266 80 m 1
 332 86 369 92 403 102 c 0
 460 118 491 142 530 230 c 1
 520 234 501 236 476 236 c 0
 450 236 423 230 395 218 c 0
 367 206 346 200 332 200 c 0
 321 200 312 202 304 206 c 1
 304 225 309 242 319 260 c 0
 328 276 337 291 344 304 c 1
 305 297 266 293 226 293 c 0
 177 293 144 296 128 301 c 0
 111 306 103 313 103 318 c 0
 103 323 109 325 121 325 c 0
 129 325 143 323 160 319 c 0
 177 315 191 312 226 312 c 0
 242 312 272 314 301 318 c 0
 327 322 346 325 365 328 c 0
 376 330 382 331 388 331 c 0
 398 331 404 328 404 322 c 0
 404 310 388 266 374 242 c 1
 409 255 443 262 475 262 c 0
 494 262 516 260 539 257 c 1
 554 293 577 311 607 311 c 2
 660 311 l 1
 660 308 l 1
 631 298 607 275 589 239 c 1
 614 228 636 217 654 208 c 0
 672 199 686 193 697 193 c 0
 703 193 706 197 706 204 c 0
 706 217 713 224 726 224 c 0
 742 224 750 216 750 199 c 0
 750 180 737 166 718 166 c 0
 685 166 651 178 612 198 c 2
 578 215 l 1
 538 121 447 73 319 73 c 2
 307 73 l 1
 266 74 l 1
 266 80 l 1
EndSplineSet
EndChar

StartChar: u1D072
Encoding: 118898 118898 126
Width: 719
GlyphClass: 1
Flags: W
LayerCount: 2
Back
SplineSet
199 124 m 1
 190 144 l 1
 434 149 l 1
 452 185 l 1
 113 180 l 1
 103 199 l 1
 478 208 l 1
 516 196 l 1
 494 149 l 1
 581 152 l 1
 614 138 l 1
 569 37 l 1
 516 43 l 1
 553 128 l 1
 484 127 l 1
 456 66 l 1
 403 72 l 1
 425 127 l 1
 199 124 l 1
EndSplineSet
Fore
SplineSet
199 124 m 1
 190 144 l 1
 434 149 l 1
 452 185 l 1
 113 180 l 1
 103 199 l 1
 478 208 l 1
 516 196 l 1
 494 149 l 1
 581 152 l 1
 614 138 l 1
 569 37 l 1
 516 43 l 1
 553 128 l 1
 484 127 l 1
 456 66 l 1
 403 72 l 1
 425 127 l 1
 199 124 l 1
EndSplineSet
EndChar

StartChar: u1D073
Encoding: 118899 118899 127
Width: 754
GlyphClass: 1
Flags: W
LayerCount: 2
Back
SplineSet
170 235 m 1
 171 224 l 2
 171 197 162 181 145 174 c 1
 106 174 l 1
 106 184 l 2
 106 207 114 224 131 235 c 1
 170 235 l 1
365 49 m 0
 365 56 378 59 403 59 c 0
 420 59 429 64 433 81 c 2
 439 106 l 1
 247 103 l 1
 239 122 l 1
 446 127 l 1
 458 163 l 1
 422 157 373 154 312 154 c 0
 269 154 238 158 219 167 c 0
 200 176 190 187 190 199 c 0
 190 217 208 226 226 226 c 0
 233 226 240 225 248 222 c 0
 254 220 257 219 259 218 c 1
 253 213 250 208 250 206 c 0
 250 197 257 189 271 183 c 0
 285 177 305 174 330 174 c 0
 376 174 425 177 468 180 c 1
 475 188 486 193 502 193 c 2
 539 193 l 2
 548 193 553 191 553 187 c 0
 553 183 548 181 537 178 c 0
 525 175 520 163 514 142 c 2
 510 128 l 1
 613 131 l 1
 649 118 l 1
 595 1 l 1
 541 8 l 1
 588 107 l 1
 504 107 l 1
 494 75 l 2
 486 48 464 35 432 35 c 0
 414 35 398 37 385 40 c 0
 372 43 365 45 365 49 c 0
EndSplineSet
Fore
SplineSet
170 235 m 1
 171 224 l 2
 171 197 162 181 145 174 c 1
 106 174 l 1
 106 184 l 2
 106 207 114 224 131 235 c 1
 170 235 l 1
365 49 m 0
 365 56 378 59 403 59 c 0
 420 59 429 64 433 81 c 2
 439 106 l 1
 247 103 l 1
 239 122 l 1
 446 127 l 1
 458 163 l 1
 422 157 373 154 312 154 c 0
 269 154 238 158 219 167 c 0
 200 176 190 187 190 199 c 0
 190 217 208 226 226 226 c 0
 233 226 240 225 248 222 c 0
 254 220 257 219 259 218 c 1
 253 213 250 208 250 206 c 0
 250 197 257 189 271 183 c 0
 285 177 305 174 330 174 c 0
 376 174 425 177 468 180 c 1
 475 188 486 193 502 193 c 2
 539 193 l 2
 548 193 553 191 553 187 c 0
 553 183 548 181 537 178 c 0
 525 175 520 163 514 142 c 2
 510 128 l 1
 613 131 l 1
 649 118 l 1
 595 1 l 1
 541 8 l 1
 588 107 l 1
 504 107 l 1
 494 75 l 2
 486 48 464 35 432 35 c 0
 414 35 398 37 385 40 c 0
 372 43 365 45 365 49 c 0
EndSplineSet
EndChar

StartChar: u1D074
Encoding: 118900 118900 128
Width: 797
GlyphClass: 1
Flags: W
LayerCount: 2
Back
SplineSet
412 53 m 0
 412 61 424 64 448 64 c 0
 464 64 472 71 476 83 c 2
 485 113 l 1
 293 110 l 1
 283 128 l 1
 491 132 l 1
 502 164 l 1
 197 164 l 1
 209 178 l 2
 218 188 222 199 222 208 c 0
 222 221 213 228 196 228 c 0
 171 228 156 214 149 185 c 1
 103 185 l 1
 109 204 115 215 122 222 c 0
 134 234 155 245 197 245 c 0
 236 245 258 232 258 209 c 0
 258 197 253 188 245 182 c 1
 516 182 l 1
 520 193 530 199 547 199 c 2
 584 199 l 2
 594 199 599 197 599 193 c 0
 599 186 583 185 572 180 c 0
 565 177 563 165 560 153 c 2
 556 136 l 1
 656 137 l 1
 692 124 l 1
 647 28 l 1
 593 34 l 1
 631 114 l 1
 550 113 l 1
 539 80 l 2
 531 55 509 42 476 42 c 0
 434 42 412 46 412 53 c 0
EndSplineSet
Fore
SplineSet
412 53 m 0
 412 61 424 64 448 64 c 0
 464 64 472 71 476 83 c 2
 485 113 l 1
 293 110 l 1
 283 128 l 1
 491 132 l 1
 502 164 l 1
 197 164 l 1
 209 178 l 2
 218 188 222 199 222 208 c 0
 222 221 213 228 196 228 c 0
 171 228 156 214 149 185 c 1
 103 185 l 1
 109 204 115 215 122 222 c 0
 134 234 155 245 197 245 c 0
 236 245 258 232 258 209 c 0
 258 197 253 188 245 182 c 1
 516 182 l 1
 520 193 530 199 547 199 c 2
 584 199 l 2
 594 199 599 197 599 193 c 0
 599 186 583 185 572 180 c 0
 565 177 563 165 560 153 c 2
 556 136 l 1
 656 137 l 1
 692 124 l 1
 647 28 l 1
 593 34 l 1
 631 114 l 1
 550 113 l 1
 539 80 l 2
 531 55 509 42 476 42 c 0
 434 42 412 46 412 53 c 0
EndSplineSet
EndChar

StartChar: u1D075
Encoding: 118901 118901 129
Width: 1243
GlyphClass: 1
Flags: W
LayerCount: 2
Back
SplineSet
163 50 m 1
 149 47 l 1
 128 44 l 2
 122 44 103 48 103 59 c 0
 103 70 113 80 132 89 c 0
 151 98 177 102 208 102 c 0
 215 102 247 98 302 89 c 1
 302 110 l 2
 302 117 302 124 301 131 c 1
 311 133 l 1
 329 131 340 126 344 118 c 2
 346 101 l 1
 346 79 l 1
 370 74 l 1
 370 111 383 115 407 115 c 2
 416 114 l 1
 413 66 l 1
 506 47 568 37 599 37 c 0
 647 37 676 51 683 80 c 1
 595 80 487 124 487 167 c 0
 487 202 522 222 570 222 c 0
 634 222 702 171 714 101 c 1
 811 103 l 1
 811 123 l 2
 811 130 810 138 809 145 c 1
 819 146 l 2
 842 146 854 138 854 121 c 2
 854 106 l 1
 881 107 l 1
 884 132 l 2
 889 141 901 146 921 146 c 2
 930 145 l 1
 926 136 924 125 924 113 c 1
 945 114 966 115 988 115 c 0
 1089 115 1139 95 1139 55 c 0
 1139 28 1109 12 1080 12 c 0
 1051 12 1037 16 1037 24 c 0
 1037 26 1039 29 1044 31 c 2
 1062 37 l 2
 1074 41 1086 47 1086 59 c 0
 1086 66 1079 75 1065 83 c 0
 1051 91 1018 97 984 95 c 2
 924 92 l 1
 924 80 926 70 930 62 c 1
 925 55 918 50 908 50 c 0
 896 50 887 54 884 62 c 2
 881 86 l 1
 854 85 l 1
 852 62 l 2
 849 54 841 50 830 50 c 0
 819 50 813 55 809 62 c 1
 811 84 l 1
 790 82 757 80 714 80 c 1
 704 40 667 19 602 19 c 0
 566 19 504 27 415 43 c 1
 415 38 l 1
 416 31 l 1
 413 22 405 18 393 18 c 0
 378 18 370 29 370 52 c 1
 346 55 l 1
 344 49 l 2
 341 39 334 34 325 34 c 0
 315 34 307 39 301 49 c 1
 302 64 l 1
 274 69 248 72 224 72 c 0
 204 72 188 70 178 67 c 0
 168 64 163 59 163 50 c 1
527 170 m 0
 527 151 542 135 571 123 c 0
 601 110 639 103 684 101 c 1
 673 145 620 196 571 196 c 0
 542 196 527 187 527 170 c 0
EndSplineSet
Fore
SplineSet
163 50 m 1
 149 47 l 1
 128 44 l 2
 122 44 103 48 103 59 c 0
 103 70 113 80 132 89 c 0
 151 98 177 102 208 102 c 0
 215 102 247 98 302 89 c 1
 302 110 l 2
 302 117 302 124 301 131 c 1
 311 133 l 1
 329 131 340 126 344 118 c 2
 346 101 l 1
 346 79 l 1
 370 74 l 1
 370 111 383 115 407 115 c 2
 416 114 l 1
 413 66 l 1
 506 47 568 37 599 37 c 0
 647 37 676 51 683 80 c 1
 595 80 487 124 487 167 c 0
 487 202 522 222 570 222 c 0
 634 222 702 171 714 101 c 1
 811 103 l 1
 811 123 l 2
 811 130 810 138 809 145 c 1
 819 146 l 2
 842 146 854 138 854 121 c 2
 854 106 l 1
 881 107 l 1
 884 132 l 2
 889 141 901 146 921 146 c 2
 930 145 l 1
 926 136 924 125 924 113 c 1
 945 114 966 115 988 115 c 0
 1089 115 1139 95 1139 55 c 0
 1139 28 1109 12 1080 12 c 0
 1051 12 1037 16 1037 24 c 0
 1037 26 1039 29 1044 31 c 2
 1062 37 l 2
 1074 41 1086 47 1086 59 c 0
 1086 66 1079 75 1065 83 c 0
 1051 91 1018 97 984 95 c 2
 924 92 l 1
 924 80 926 70 930 62 c 1
 925 55 918 50 908 50 c 0
 896 50 887 54 884 62 c 2
 881 86 l 1
 854 85 l 1
 852 62 l 2
 849 54 841 50 830 50 c 0
 819 50 813 55 809 62 c 1
 811 84 l 1
 790 82 757 80 714 80 c 1
 704 40 667 19 602 19 c 0
 566 19 504 27 415 43 c 1
 415 38 l 1
 416 31 l 1
 413 22 405 18 393 18 c 0
 378 18 370 29 370 52 c 1
 346 55 l 1
 344 49 l 2
 341 39 334 34 325 34 c 0
 315 34 307 39 301 49 c 1
 302 64 l 1
 274 69 248 72 224 72 c 0
 204 72 188 70 178 67 c 0
 168 64 163 59 163 50 c 1
527 170 m 0
 527 151 542 135 571 123 c 0
 601 110 639 103 684 101 c 1
 673 145 620 196 571 196 c 0
 542 196 527 187 527 170 c 0
EndSplineSet
EndChar

StartChar: u1D076
Encoding: 118902 118902 130
Width: 684
GlyphClass: 1
Flags: W
LayerCount: 2
Back
SplineSet
304 145 m 1
 311 190 330 218 354 218 c 0
 379 218 396 193 403 145 c 1
 458 144 501 137 533 123 c 0
 565 109 581 92 581 72 c 0
 581 52 563 42 552 42 c 0
 540 42 527 45 516 52 c 1
 527 59 533 68 533 77 c 0
 533 90 521 102 498 111 c 0
 474 120 442 125 404 127 c 1
 404 76 387 50 354 50 c 0
 321 50 304 76 304 127 c 1
 124 118 l 2
 112 117 103 120 103 124 c 0
 103 125 108 127 118 130 c 0
 128 133 148 135 180 138 c 0
 230 143 272 145 304 145 c 1
330 146 m 1
 380 146 l 1
 374 179 365 196 354 196 c 0
 339 196 332 179 330 146 c 1
380 128 m 1
 330 128 l 1
 330 95 338 79 354 79 c 0
 371 79 380 95 380 128 c 1
EndSplineSet
Fore
SplineSet
304 145 m 1
 311 190 330 218 354 218 c 0
 379 218 396 193 403 145 c 1
 458 144 501 137 533 123 c 0
 565 109 581 92 581 72 c 0
 581 52 563 42 552 42 c 0
 540 42 527 45 516 52 c 1
 527 59 533 68 533 77 c 0
 533 90 521 102 498 111 c 0
 474 120 442 125 404 127 c 1
 404 76 387 50 354 50 c 0
 321 50 304 76 304 127 c 1
 124 118 l 2
 112 117 103 120 103 124 c 0
 103 125 108 127 118 130 c 0
 128 133 148 135 180 138 c 0
 230 143 272 145 304 145 c 1
330 146 m 1
 380 146 l 1
 374 179 365 196 354 196 c 0
 339 196 332 179 330 146 c 1
380 128 m 1
 330 128 l 1
 330 95 338 79 354 79 c 0
 371 79 380 95 380 128 c 1
EndSplineSet
EndChar

StartChar: u1D077
Encoding: 118903 118903 131
Width: 683
GlyphClass: 1
Flags: W
LayerCount: 2
Back
SplineSet
506 199 m 1
 517 207 528 210 541 210 c 0
 566 210 578 198 578 174 c 0
 578 151 566 136 542 127 c 0
 517 118 477 113 422 113 c 1
 416 71 399 50 372 50 c 0
 340 50 323 71 322 114 c 1
 185 121 l 1
 133 121 l 1
 103 122 l 1
 103 128 l 1
 139 133 l 2
 167 137 197 138 227 138 c 2
 322 137 l 1
 324 188 344 218 372 218 c 0
 397 218 418 185 422 136 c 1
 477 136 521 142 521 173 c 0
 521 184 516 193 506 199 c 1
346 137 m 1
 396 136 l 1
 396 157 393 173 388 182 c 0
 383 191 377 196 372 196 c 0
 367 196 360 191 355 183 c 0
 349 173 346 158 346 137 c 1
395 113 m 1
 361 113 l 2
 356 113 351 113 346 114 c 1
 352 91 360 79 372 79 c 0
 384 79 392 90 395 113 c 1
EndSplineSet
Fore
SplineSet
506 199 m 1
 517 207 528 210 541 210 c 0
 566 210 578 198 578 174 c 0
 578 151 566 136 542 127 c 0
 517 118 477 113 422 113 c 1
 416 71 399 50 372 50 c 0
 340 50 323 71 322 114 c 1
 185 121 l 1
 133 121 l 1
 103 122 l 1
 103 128 l 1
 139 133 l 2
 167 137 197 138 227 138 c 2
 322 137 l 1
 324 188 344 218 372 218 c 0
 397 218 418 185 422 136 c 1
 477 136 521 142 521 173 c 0
 521 184 516 193 506 199 c 1
346 137 m 1
 396 136 l 1
 396 157 393 173 388 182 c 0
 383 191 377 196 372 196 c 0
 367 196 360 191 355 183 c 0
 349 173 346 158 346 137 c 1
395 113 m 1
 361 113 l 2
 356 113 351 113 346 114 c 1
 352 91 360 79 372 79 c 0
 384 79 392 90 395 113 c 1
EndSplineSet
EndChar

StartChar: u1D078
Encoding: 118904 118904 132
Width: 770
GlyphClass: 1
Flags: W
LayerCount: 2
Back
SplineSet
103 124 m 1
 110 144 l 1
 222 144 l 1
 226 188 244 218 271 218 c 0
 296 218 318 188 322 144 c 1
 468 144 l 1
 468 137 l 1
 443 128 430 116 430 102 c 0
 430 77 454 72 496 72 c 0
 509 72 562 80 641 95 c 0
 648 96 656 98 658 98 c 0
 660 98 665 98 665 90 c 0
 665 68 512 50 449 50 c 0
 397 50 362 69 362 94 c 0
 362 110 377 122 388 124 c 1
 322 124 l 1
 322 75 305 50 271 50 c 0
 238 50 222 75 222 124 c 1
 103 124 l 1
247 144 m 1
 296 144 l 1
 294 162 292 175 286 184 c 0
 281 192 275 196 271 196 c 0
 258 196 250 179 247 144 c 1
296 124 m 1
 247 124 l 1
 247 94 255 79 271 79 c 0
 286 79 294 94 296 124 c 1
EndSplineSet
Fore
SplineSet
103 124 m 1
 110 144 l 1
 222 144 l 1
 226 188 244 218 271 218 c 0
 296 218 318 188 322 144 c 1
 468 144 l 1
 468 137 l 1
 443 128 430 116 430 102 c 0
 430 77 454 72 496 72 c 0
 509 72 562 80 641 95 c 0
 648 96 656 98 658 98 c 0
 660 98 665 98 665 90 c 0
 665 68 512 50 449 50 c 0
 397 50 362 69 362 94 c 0
 362 110 377 122 388 124 c 1
 322 124 l 1
 322 75 305 50 271 50 c 0
 238 50 222 75 222 124 c 1
 103 124 l 1
247 144 m 1
 296 144 l 1
 294 162 292 175 286 184 c 0
 281 192 275 196 271 196 c 0
 258 196 250 179 247 144 c 1
296 124 m 1
 247 124 l 1
 247 94 255 79 271 79 c 0
 286 79 294 94 296 124 c 1
EndSplineSet
EndChar

StartChar: u1D079
Encoding: 118905 118905 133
Width: 841
GlyphClass: 1
Flags: W
LayerCount: 2
Back
SplineSet
595 89 m 1
 727 89 l 1
 737 71 l 1
 595 71 l 1
 592 25 576 2 547 2 c 0
 516 2 500 25 498 71 c 1
 430 71 l 2
 367 71 336 81 336 101 c 0
 336 113 344 121 360 124 c 1
 288 124 l 1
 287 71 260 55 240 55 c 0
 216 55 190 71 190 124 c 1
 103 124 l 1
 110 144 l 1
 190 144 l 1
 196 187 216 217 240 217 c 0
 262 217 283 187 288 144 c 1
 439 144 l 1
 439 137 l 1
 422 130 413 120 413 107 c 0
 413 95 431 89 466 89 c 2
 498 89 l 1
 500 136 520 166 547 166 c 0
 571 166 589 136 595 89 c 1
216 144 m 1
 262 144 l 1
 259 177 252 193 240 193 c 0
 225 193 217 177 216 144 c 1
521 89 m 1
 570 89 l 1
 569 115 562 142 547 142 c 0
 531 142 521 112 521 89 c 1
262 124 m 1
 216 124 l 1
 217 98 225 85 240 85 c 0
 252 85 260 98 262 124 c 1
570 71 m 1
 521 71 l 1
 525 46 534 34 547 34 c 0
 561 34 568 46 570 71 c 1
EndSplineSet
Fore
SplineSet
595 89 m 1
 727 89 l 1
 737 71 l 1
 595 71 l 1
 592 25 576 2 547 2 c 0
 516 2 500 25 498 71 c 1
 430 71 l 2
 367 71 336 81 336 101 c 0
 336 113 344 121 360 124 c 1
 288 124 l 1
 287 71 260 55 240 55 c 0
 216 55 190 71 190 124 c 1
 103 124 l 1
 110 144 l 1
 190 144 l 1
 196 187 216 217 240 217 c 0
 262 217 283 187 288 144 c 1
 439 144 l 1
 439 137 l 1
 422 130 413 120 413 107 c 0
 413 95 431 89 466 89 c 2
 498 89 l 1
 500 136 520 166 547 166 c 0
 571 166 589 136 595 89 c 1
216 144 m 1
 262 144 l 1
 259 177 252 193 240 193 c 0
 225 193 217 177 216 144 c 1
521 89 m 1
 570 89 l 1
 569 115 562 142 547 142 c 0
 531 142 521 112 521 89 c 1
262 124 m 1
 216 124 l 1
 217 98 225 85 240 85 c 0
 252 85 260 98 262 124 c 1
570 71 m 1
 521 71 l 1
 525 46 534 34 547 34 c 0
 561 34 568 46 570 71 c 1
EndSplineSet
EndChar

StartChar: u1D07A
Encoding: 118906 118906 134
Width: 314
GlyphClass: 1
Flags: W
LayerCount: 2
Back
SplineSet
103 314 m 1
 149 323 173 336 173 352 c 0
 173 356 166 357 152 359 c 0
 138 361 131 368 131 377 c 0
 131 393 143 401 167 401 c 0
 196 401 210 389 210 366 c 0
 210 332 177 310 110 302 c 1
 103 314 l 1
103 209 m 1
 149 217 173 230 173 247 c 0
 173 250 166 252 152 255 c 0
 138 258 131 263 131 271 c 0
 131 286 143 294 167 294 c 0
 196 294 210 283 210 260 c 0
 210 221 177 200 110 197 c 1
 103 209 l 1
103 103 m 1
 149 111 173 124 173 142 c 0
 173 145 171 146 167 147 c 2
 152 149 l 2
 141 150 131 156 131 166 c 0
 131 181 143 188 167 188 c 0
 196 188 210 177 210 156 c 0
 210 117 167 95 110 92 c 1
 103 103 l 1
EndSplineSet
Fore
SplineSet
103 314 m 1
 149 323 173 336 173 352 c 0
 173 356 166 357 152 359 c 0
 138 361 131 368 131 377 c 0
 131 393 143 401 167 401 c 0
 196 401 210 389 210 366 c 0
 210 332 177 310 110 302 c 1
 103 314 l 1
103 209 m 1
 149 217 173 230 173 247 c 0
 173 250 166 252 152 255 c 0
 138 258 131 263 131 271 c 0
 131 286 143 294 167 294 c 0
 196 294 210 283 210 260 c 0
 210 221 177 200 110 197 c 1
 103 209 l 1
103 103 m 1
 149 111 173 124 173 142 c 0
 173 145 171 146 167 147 c 2
 152 149 l 2
 141 150 131 156 131 166 c 0
 131 181 143 188 167 188 c 0
 196 188 210 177 210 156 c 0
 210 117 167 95 110 92 c 1
 103 103 l 1
EndSplineSet
EndChar

StartChar: u1D07B
Encoding: 118907 118907 135
Width: 794
GlyphClass: 1
Flags: W
LayerCount: 2
Back
SplineSet
352 131 m 1
 290 122 209 95 103 59 c 1
 116 68 123 82 122 97 c 2
 121 121 l 1
 128 138 148 146 180 146 c 1
 177 130 l 1
 179 115 l 1
 210 123 l 2
 262 136 309 146 353 149 c 1
 361 182 394 206 425 206 c 0
 464 206 483 189 484 154 c 0
 484 148 483 144 481 137 c 1
 518 128 561 116 605 100 c 2
 619 95 l 2
 629 95 634 100 634 110 c 0
 634 122 635 128 649 128 c 2
 674 128 l 2
 685 128 691 124 691 115 c 2
 691 103 l 2
 691 84 676 74 646 74 c 0
 625 74 600 80 571 91 c 0
 543 102 511 112 475 121 c 1
 467 102 442 84 406 84 c 0
 371 84 354 100 352 131 c 1
455 144 m 1
 456 148 456 152 456 156 c 0
 456 179 446 190 425 190 c 0
 402 190 387 177 380 152 c 1
 383 152 l 1
 455 144 l 1
377 132 m 1
 377 108 387 96 406 96 c 0
 425 96 442 109 449 127 c 1
 430 130 408 132 383 132 c 2
 377 132 l 1
EndSplineSet
Fore
SplineSet
352 131 m 1
 290 122 209 95 103 59 c 1
 116 68 123 82 122 97 c 2
 121 121 l 1
 128 138 148 146 180 146 c 1
 177 130 l 1
 179 115 l 1
 210 123 l 2
 262 136 309 146 353 149 c 1
 361 182 394 206 425 206 c 0
 464 206 483 189 484 154 c 0
 484 148 483 144 481 137 c 1
 518 128 561 116 605 100 c 2
 619 95 l 2
 629 95 634 100 634 110 c 0
 634 122 635 128 649 128 c 2
 674 128 l 2
 685 128 691 124 691 115 c 2
 691 103 l 2
 691 84 676 74 646 74 c 0
 625 74 600 80 571 91 c 0
 543 102 511 112 475 121 c 1
 467 102 442 84 406 84 c 0
 371 84 354 100 352 131 c 1
455 144 m 1
 456 148 456 152 456 156 c 0
 456 179 446 190 425 190 c 0
 402 190 387 177 380 152 c 1
 383 152 l 1
 455 144 l 1
377 132 m 1
 377 108 387 96 406 96 c 0
 425 96 442 109 449 127 c 1
 430 130 408 132 383 132 c 2
 377 132 l 1
EndSplineSet
EndChar

StartChar: u1D07C
Encoding: 118908 118908 136
Width: 640
GlyphClass: 1
Flags: W
LayerCount: 2
Back
SplineSet
103 250 m 1
 183 188 256 157 322 157 c 0
 390 157 461 188 535 251 c 1
 535 224 l 1
 475 168 389 128 322 128 c 0
 250 128 178 159 103 222 c 1
 103 250 l 1
EndSplineSet
Fore
SplineSet
103 250 m 1
 183 188 256 157 322 157 c 0
 390 157 461 188 535 251 c 1
 535 224 l 1
 475 168 389 128 322 128 c 0
 250 128 178 159 103 222 c 1
 103 250 l 1
EndSplineSet
EndChar

StartChar: u1D07D
Encoding: 118909 118909 137
Width: 593
GlyphClass: 1
Flags: W
LayerCount: 2
Back
SplineSet
103 490 m 1
 103 517 l 1
 156 580 221 612 296 612 c 0
 371 612 436 580 490 517 c 1
 490 490 l 1
 452 523 426 544 409 553 c 0
 375 572 337 582 296 582 c 0
 235 582 192 568 103 490 c 1
EndSplineSet
Fore
SplineSet
103 490 m 1
 103 517 l 1
 156 580 221 612 296 612 c 0
 371 612 436 580 490 517 c 1
 490 490 l 1
 452 523 426 544 409 553 c 0
 375 572 337 582 296 582 c 0
 235 582 192 568 103 490 c 1
EndSplineSet
EndChar

StartChar: u1D07E
Encoding: 118910 118910 138
Width: 556
GlyphClass: 1
Flags: W
LayerCount: 2
Back
SplineSet
236 533 m 1
 114 526 l 1
 103 542 l 1
 236 542 l 1
 236 581 l 1
 274 581 l 2
 292 581 302 571 302 552 c 2
 302 541 l 1
 444 547 l 1
 452 530 l 1
 302 530 l 1
 302 491 l 1
 259 491 l 2
 244 491 236 498 236 510 c 2
 236 533 l 1
EndSplineSet
Fore
SplineSet
236 533 m 1
 114 526 l 1
 103 542 l 1
 236 542 l 1
 236 581 l 1
 274 581 l 2
 292 581 302 571 302 552 c 2
 302 541 l 1
 444 547 l 1
 452 530 l 1
 302 530 l 1
 302 491 l 1
 259 491 l 2
 244 491 236 498 236 510 c 2
 236 533 l 1
EndSplineSet
EndChar

StartChar: u1D07F
Encoding: 118911 118911 139
Width: 426
GlyphClass: 1
Flags: W
LayerCount: 2
Back
SplineSet
106 652 m 1
 169 629 212 617 235 617 c 0
 258 617 270 625 270 641 c 2
 268 652 l 1
 319 631 l 1
 323 616 l 1
 323 595 306 584 271 584 c 0
 241 584 185 606 103 648 c 1
 106 652 l 1
EndSplineSet
Fore
SplineSet
106 652 m 1
 169 629 212 617 235 617 c 0
 258 617 270 625 270 641 c 2
 268 652 l 1
 319 631 l 1
 323 616 l 1
 323 595 306 584 271 584 c 0
 241 584 185 606 103 648 c 1
 106 652 l 1
EndSplineSet
EndChar

StartChar: u1D080
Encoding: 118912 118912 140
Width: 366
GlyphClass: 1
Flags: W
LayerCount: 2
Back
SplineSet
142 163 m 0
 127 163 103 173 103 180 c 0
 103 187 131 222 145 222 c 0
 157 222 182 208 182 206 c 0
 182 197 155 163 142 163 c 0
222 128 m 0
 207 128 185 138 185 146 c 0
 185 155 212 188 226 188 c 0
 239 188 262 175 262 173 c 0
 262 163 236 128 222 128 c 0
EndSplineSet
Fore
SplineSet
142 163 m 0
 127 163 103 173 103 180 c 0
 103 187 131 222 145 222 c 0
 157 222 182 208 182 206 c 0
 182 197 155 163 142 163 c 0
222 128 m 0
 207 128 185 138 185 146 c 0
 185 155 212 188 226 188 c 0
 239 188 262 175 262 173 c 0
 262 163 236 128 222 128 c 0
EndSplineSet
EndChar

StartChar: u1D081
Encoding: 118913 118913 141
Width: 571
GlyphClass: 1
Flags: W
LayerCount: 2
Back
SplineSet
144 146 m 1
 136 159 132 177 132 199 c 2
 132 209 l 1
 185 209 l 1
 185 193 l 2
 185 165 205 138 240 138 c 0
 295 138 371 176 466 251 c 1
 468 247 l 1
 417 185 310 118 242 107 c 1
 209 58 l 2
 201 46 193 40 190 40 c 0
 187 40 178 46 173 52 c 0
 169 56 167 59 167 62 c 0
 167 64 168 68 170 72 c 0
 172 76 182 89 199 110 c 1
 186 112 176 116 170 121 c 1
 145 85 l 2
 137 74 131 69 128 69 c 0
 124 69 105 81 105 90 c 0
 105 93 118 112 144 146 c 1
EndSplineSet
Fore
SplineSet
144 146 m 1
 136 159 132 177 132 199 c 2
 132 209 l 1
 185 209 l 1
 185 193 l 2
 185 165 205 138 240 138 c 0
 295 138 371 176 466 251 c 1
 468 247 l 1
 417 185 310 118 242 107 c 1
 209 58 l 2
 201 46 193 40 190 40 c 0
 187 40 178 46 173 52 c 0
 169 56 167 59 167 62 c 0
 167 64 168 68 170 72 c 0
 172 76 182 89 199 110 c 1
 186 112 176 116 170 121 c 1
 145 85 l 2
 137 74 131 69 128 69 c 0
 124 69 105 81 105 90 c 0
 105 93 118 112 144 146 c 1
EndSplineSet
EndChar

StartChar: u1D082
Encoding: 118914 118914 142
Width: 708
GlyphClass: 1
Flags: W
LayerCount: 2
Back
SplineSet
276 330 m 1
 292 324 304 312 311 293 c 1
 298 293 l 2
 290 293 278 293 278 280 c 0
 278 269 293 259 323 250 c 0
 354 241 389 236 432 236 c 0
 493 236 551 240 605 247 c 1
 605 242 l 1
 582 231 517 217 433 217 c 0
 329 217 266 230 245 257 c 1
 238 237 222 227 198 227 c 2
 174 230 l 1
 198 239 210 252 210 271 c 0
 210 289 196 300 175 300 c 0
 167 300 159 298 154 293 c 0
 148 289 140 287 131 287 c 0
 112 287 103 295 103 311 c 0
 103 332 118 343 149 343 c 0
 193 343 224 330 239 304 c 1
 245 321 257 330 276 330 c 1
EndSplineSet
Fore
SplineSet
276 330 m 1
 292 324 304 312 311 293 c 1
 298 293 l 2
 290 293 278 293 278 280 c 0
 278 269 293 259 323 250 c 0
 354 241 389 236 432 236 c 0
 493 236 551 240 605 247 c 1
 605 242 l 1
 582 231 517 217 433 217 c 0
 329 217 266 230 245 257 c 1
 238 237 222 227 198 227 c 2
 174 230 l 1
 198 239 210 252 210 271 c 0
 210 289 196 300 175 300 c 0
 167 300 159 298 154 293 c 0
 148 289 140 287 131 287 c 0
 112 287 103 295 103 311 c 0
 103 332 118 343 149 343 c 0
 193 343 224 330 239 304 c 1
 245 321 257 330 276 330 c 1
EndSplineSet
EndChar

StartChar: u1D083
Encoding: 118915 118915 143
Width: 509
GlyphClass: 1
Flags: W
LayerCount: 2
Back
SplineSet
142 200 m 0
 127 200 103 206 103 216 c 0
 103 229 123 269 132 269 c 0
 159 269 173 266 173 259 c 0
 173 242 154 200 142 200 c 0
257 269 m 1
 250 262 247 256 247 250 c 0
 247 225 281 212 349 212 c 0
 367 212 380 213 404 215 c 1
 404 208 l 1
 370 201 339 197 311 197 c 0
 229 197 188 213 188 245 c 0
 188 259 195 267 209 269 c 2
 257 269 l 1
EndSplineSet
Fore
SplineSet
142 200 m 0
 127 200 103 206 103 216 c 0
 103 229 123 269 132 269 c 0
 159 269 173 266 173 259 c 0
 173 242 154 200 142 200 c 0
257 269 m 1
 250 262 247 256 247 250 c 0
 247 225 281 212 349 212 c 0
 367 212 380 213 404 215 c 1
 404 208 l 1
 370 201 339 197 311 197 c 0
 229 197 188 213 188 245 c 0
 188 259 195 267 209 269 c 2
 257 269 l 1
EndSplineSet
EndChar

StartChar: u1D084
Encoding: 118916 118916 144
Width: 581
GlyphClass: 1
Flags: W
LayerCount: 2
Back
SplineSet
103 271 m 1
 434 271 l 1
 476 257 l 1
 365 257 l 1
 373 204 l 1
 304 216 l 1
 300 257 l 1
 144 257 l 1
 103 271 l 1
EndSplineSet
Fore
SplineSet
103 271 m 1
 434 271 l 1
 476 257 l 1
 365 257 l 1
 373 204 l 1
 304 216 l 1
 300 257 l 1
 144 257 l 1
 103 271 l 1
EndSplineSet
EndChar

StartChar: u1D085
Encoding: 118917 118917 145
Width: 274
GlyphClass: 1
Flags: W
LayerCount: 2
Back
SplineSet
142 209 m 0
 127 209 103 214 103 224 c 0
 103 238 121 268 131 268 c 0
 146 268 170 263 170 257 c 0
 170 243 155 209 142 209 c 0
EndSplineSet
Fore
SplineSet
142 209 m 0
 127 209 103 214 103 224 c 0
 103 238 121 268 131 268 c 0
 146 268 170 263 170 257 c 0
 170 243 155 209 142 209 c 0
EndSplineSet
EndChar

StartChar: u1D086
Encoding: 118918 118918 146
Width: 370
GlyphClass: 1
Flags: W
LayerCount: 2
Back
SplineSet
142 209 m 0
 127 209 103 214 103 224 c 0
 103 238 121 268 131 268 c 0
 146 268 170 263 170 257 c 0
 170 243 155 209 142 209 c 0
236 209 m 0
 222 209 199 214 199 224 c 0
 199 238 217 268 226 268 c 0
 242 268 266 263 266 257 c 0
 266 240 250 209 236 209 c 0
EndSplineSet
Fore
SplineSet
142 209 m 0
 127 209 103 214 103 224 c 0
 103 238 121 268 131 268 c 0
 146 268 170 263 170 257 c 0
 170 243 155 209 142 209 c 0
236 209 m 0
 222 209 199 214 199 224 c 0
 199 238 217 268 226 268 c 0
 242 268 266 263 266 257 c 0
 266 240 250 209 236 209 c 0
EndSplineSet
EndChar

StartChar: u1D087
Encoding: 118919 118919 147
Width: 466
GlyphClass: 1
Flags: W
LayerCount: 2
Back
SplineSet
142 209 m 0
 127 209 103 214 103 224 c 0
 103 238 121 268 131 268 c 0
 146 268 170 263 170 257 c 0
 170 243 155 209 142 209 c 0
236 209 m 0
 222 209 199 214 199 224 c 0
 199 238 217 268 226 268 c 0
 242 268 266 263 266 257 c 0
 266 240 250 209 236 209 c 0
331 209 m 0
 317 209 294 214 294 224 c 0
 294 240 313 268 322 268 c 0
 338 268 361 263 361 257 c 0
 361 240 344 209 331 209 c 0
EndSplineSet
Fore
SplineSet
142 209 m 0
 127 209 103 214 103 224 c 0
 103 238 121 268 131 268 c 0
 146 268 170 263 170 257 c 0
 170 243 155 209 142 209 c 0
236 209 m 0
 222 209 199 214 199 224 c 0
 199 238 217 268 226 268 c 0
 242 268 266 263 266 257 c 0
 266 240 250 209 236 209 c 0
331 209 m 0
 317 209 294 214 294 224 c 0
 294 240 313 268 322 268 c 0
 338 268 361 263 361 257 c 0
 361 240 344 209 331 209 c 0
EndSplineSet
EndChar

StartChar: u1D088
Encoding: 118920 118920 148
Width: 560
GlyphClass: 1
Flags: W
LayerCount: 2
Back
SplineSet
142 209 m 0
 127 209 103 214 103 224 c 0
 103 238 121 268 131 268 c 0
 146 268 170 263 170 257 c 0
 170 243 155 209 142 209 c 0
236 209 m 0
 222 209 199 214 199 224 c 0
 199 238 217 268 226 268 c 0
 242 268 266 263 266 257 c 0
 266 240 250 209 236 209 c 0
331 209 m 0
 317 209 294 214 294 224 c 0
 294 240 313 268 322 268 c 0
 338 268 361 263 361 257 c 0
 361 240 344 209 331 209 c 0
426 209 m 0
 413 209 390 214 390 224 c 0
 390 237 406 268 416 268 c 0
 434 268 456 263 456 257 c 0
 456 237 439 209 426 209 c 0
EndSplineSet
Fore
SplineSet
142 209 m 0
 127 209 103 214 103 224 c 0
 103 238 121 268 131 268 c 0
 146 268 170 263 170 257 c 0
 170 243 155 209 142 209 c 0
236 209 m 0
 222 209 199 214 199 224 c 0
 199 238 217 268 226 268 c 0
 242 268 266 263 266 257 c 0
 266 240 250 209 236 209 c 0
331 209 m 0
 317 209 294 214 294 224 c 0
 294 240 313 268 322 268 c 0
 338 268 361 263 361 257 c 0
 361 240 344 209 331 209 c 0
426 209 m 0
 413 209 390 214 390 224 c 0
 390 237 406 268 416 268 c 0
 434 268 456 263 456 257 c 0
 456 237 439 209 426 209 c 0
EndSplineSet
EndChar

StartChar: u1D089
Encoding: 118921 118921 149
Width: 401
GlyphClass: 1
Flags: W
LayerCount: 2
Back
SplineSet
103 624 m 1
 130 664 163 683 199 683 c 0
 239 683 271 662 296 619 c 1
 288 612 l 1
 261 646 236 656 199 656 c 0
 158 656 137 635 114 612 c 1
 103 624 l 1
200 629 m 0
 215 629 222 622 222 607 c 0
 222 594 215 588 200 588 c 0
 187 588 180 594 180 607 c 0
 180 622 187 629 200 629 c 0
EndSplineSet
Fore
SplineSet
103 624 m 1
 130 664 163 683 199 683 c 0
 239 683 271 662 296 619 c 1
 288 612 l 1
 261 646 236 656 199 656 c 0
 158 656 137 635 114 612 c 1
 103 624 l 1
200 629 m 0
 215 629 222 622 222 607 c 0
 222 594 215 588 200 588 c 0
 187 588 180 594 180 607 c 0
 180 622 187 629 200 629 c 0
EndSplineSet
EndChar

StartChar: u1D08A
Encoding: 118922 118922 150
Width: 589
GlyphClass: 1
Flags: W
LayerCount: 2
Back
SplineSet
103 426 m 1
 115 430 125 432 132 432 c 0
 152 432 167 422 174 403 c 0
 216 290 317 224 485 175 c 1
 485 173 l 1
 393 196 323 218 277 238 c 0
 183 278 138 325 103 426 c 1
262 354 m 0
 250 354 226 359 226 370 c 0
 226 380 242 413 252 413 c 0
 270 413 293 407 293 401 c 0
 293 385 276 354 262 354 c 0
EndSplineSet
Fore
SplineSet
103 426 m 1
 115 430 125 432 132 432 c 0
 152 432 167 422 174 403 c 0
 216 290 317 224 485 175 c 1
 485 173 l 1
 393 196 323 218 277 238 c 0
 183 278 138 325 103 426 c 1
262 354 m 0
 250 354 226 359 226 370 c 0
 226 380 242 413 252 413 c 0
 270 413 293 407 293 401 c 0
 293 385 276 354 262 354 c 0
EndSplineSet
EndChar

StartChar: u1D08B
Encoding: 118923 118923 151
Width: 589
GlyphClass: 1
Flags: W
LayerCount: 2
Back
SplineSet
103 426 m 1
 115 430 125 432 132 432 c 0
 152 432 167 422 174 403 c 0
 216 290 317 224 485 175 c 1
 485 173 l 1
 393 196 323 218 277 238 c 0
 183 278 138 325 103 426 c 1
262 354 m 0
 250 354 226 359 226 370 c 0
 226 380 242 413 252 413 c 0
 270 413 293 407 293 401 c 0
 293 385 276 354 262 354 c 0
360 354 m 0
 344 354 322 359 322 370 c 0
 322 380 337 413 348 413 c 0
 365 413 388 407 388 401 c 0
 388 387 371 354 360 354 c 0
EndSplineSet
Fore
SplineSet
103 426 m 1
 115 430 125 432 132 432 c 0
 152 432 167 422 174 403 c 0
 216 290 317 224 485 175 c 1
 485 173 l 1
 393 196 323 218 277 238 c 0
 183 278 138 325 103 426 c 1
262 354 m 0
 250 354 226 359 226 370 c 0
 226 380 242 413 252 413 c 0
 270 413 293 407 293 401 c 0
 293 385 276 354 262 354 c 0
360 354 m 0
 344 354 322 359 322 370 c 0
 322 380 337 413 348 413 c 0
 365 413 388 407 388 401 c 0
 388 387 371 354 360 354 c 0
EndSplineSet
EndChar

StartChar: u1D08C
Encoding: 118924 118924 152
Width: 589
GlyphClass: 1
Flags: W
LayerCount: 2
Back
SplineSet
103 426 m 1
 115 430 125 432 132 432 c 0
 152 432 167 422 174 403 c 0
 216 290 317 224 485 175 c 1
 485 173 l 1
 393 196 323 218 277 238 c 0
 183 278 138 325 103 426 c 1
262 354 m 0
 250 354 226 359 226 370 c 0
 226 380 242 413 252 413 c 0
 270 413 293 407 293 401 c 0
 293 385 276 354 262 354 c 0
360 354 m 0
 344 354 322 359 322 370 c 0
 322 380 337 413 348 413 c 0
 365 413 388 407 388 401 c 0
 388 387 371 354 360 354 c 0
455 354 m 0
 439 354 416 359 416 370 c 0
 416 384 435 413 444 413 c 0
 460 413 484 407 484 401 c 0
 484 385 467 354 455 354 c 0
EndSplineSet
Fore
SplineSet
103 426 m 1
 115 430 125 432 132 432 c 0
 152 432 167 422 174 403 c 0
 216 290 317 224 485 175 c 1
 485 173 l 1
 393 196 323 218 277 238 c 0
 183 278 138 325 103 426 c 1
262 354 m 0
 250 354 226 359 226 370 c 0
 226 380 242 413 252 413 c 0
 270 413 293 407 293 401 c 0
 293 385 276 354 262 354 c 0
360 354 m 0
 344 354 322 359 322 370 c 0
 322 380 337 413 348 413 c 0
 365 413 388 407 388 401 c 0
 388 387 371 354 360 354 c 0
455 354 m 0
 439 354 416 359 416 370 c 0
 416 384 435 413 444 413 c 0
 460 413 484 407 484 401 c 0
 484 385 467 354 455 354 c 0
EndSplineSet
EndChar

StartChar: u1D08D
Encoding: 118925 118925 153
Width: 683
GlyphClass: 1
Flags: W
LayerCount: 2
Back
SplineSet
103 426 m 1
 115 430 125 432 132 432 c 0
 152 432 167 422 174 403 c 0
 216 290 317 224 485 175 c 1
 485 173 l 1
 393 196 323 218 277 238 c 0
 183 278 138 325 103 426 c 1
262 354 m 0
 250 354 226 359 226 370 c 0
 226 380 242 413 252 413 c 0
 270 413 293 407 293 401 c 0
 293 385 276 354 262 354 c 0
360 354 m 0
 344 354 322 359 322 370 c 0
 322 380 337 413 348 413 c 0
 365 413 388 407 388 401 c 0
 388 387 371 354 360 354 c 0
455 354 m 0
 439 354 416 359 416 370 c 0
 416 384 435 413 444 413 c 0
 460 413 484 407 484 401 c 0
 484 385 467 354 455 354 c 0
550 354 m 0
 536 354 511 359 511 370 c 0
 511 384 530 413 539 413 c 0
 556 413 578 407 578 401 c 0
 578 384 563 354 550 354 c 0
EndSplineSet
Fore
SplineSet
103 426 m 1
 115 430 125 432 132 432 c 0
 152 432 167 422 174 403 c 0
 216 290 317 224 485 175 c 1
 485 173 l 1
 393 196 323 218 277 238 c 0
 183 278 138 325 103 426 c 1
262 354 m 0
 250 354 226 359 226 370 c 0
 226 380 242 413 252 413 c 0
 270 413 293 407 293 401 c 0
 293 385 276 354 262 354 c 0
360 354 m 0
 344 354 322 359 322 370 c 0
 322 380 337 413 348 413 c 0
 365 413 388 407 388 401 c 0
 388 387 371 354 360 354 c 0
455 354 m 0
 439 354 416 359 416 370 c 0
 416 384 435 413 444 413 c 0
 460 413 484 407 484 401 c 0
 484 385 467 354 455 354 c 0
550 354 m 0
 536 354 511 359 511 370 c 0
 511 384 530 413 539 413 c 0
 556 413 578 407 578 401 c 0
 578 384 563 354 550 354 c 0
EndSplineSet
EndChar

StartChar: u1D08E
Encoding: 118926 118926 154
Width: 589
GlyphClass: 1
Flags: W
LayerCount: 2
Back
SplineSet
218 502 m 1
 403 502 l 1
 403 485 l 1
 280 487 l 1
 297 444 l 2
 297 440 294 439 288 439 c 2
 266 439 l 2
 256 439 250 442 247 449 c 2
 230 490 l 1
 218 490 l 1
 218 502 l 1
485 175 m 1
 485 173 l 1
 393 196 323 218 277 238 c 0
 183 278 138 325 103 426 c 1
 115 430 125 432 132 432 c 0
 152 432 167 422 174 403 c 0
 216 290 317 224 485 175 c 1
262 354 m 0
 250 354 226 359 226 370 c 0
 226 380 242 413 252 413 c 0
 270 413 293 407 293 401 c 0
 293 385 276 354 262 354 c 0
EndSplineSet
Fore
SplineSet
218 502 m 1
 403 502 l 1
 403 485 l 1
 280 487 l 1
 297 444 l 2
 297 440 294 439 288 439 c 2
 266 439 l 2
 256 439 250 442 247 449 c 2
 230 490 l 1
 218 490 l 1
 218 502 l 1
485 175 m 1
 485 173 l 1
 393 196 323 218 277 238 c 0
 183 278 138 325 103 426 c 1
 115 430 125 432 132 432 c 0
 152 432 167 422 174 403 c 0
 216 290 317 224 485 175 c 1
262 354 m 0
 250 354 226 359 226 370 c 0
 226 380 242 413 252 413 c 0
 270 413 293 407 293 401 c 0
 293 385 276 354 262 354 c 0
EndSplineSet
EndChar

StartChar: u1D08F
Encoding: 118927 118927 155
Width: 390
GlyphClass: 1
Flags: W
LayerCount: 2
Back
SplineSet
103 649 m 1
 287 649 l 1
 287 632 l 1
 164 634 l 1
 179 590 l 1
 179 589 l 2
 179 587 176 586 173 586 c 2
 149 586 l 2
 143 586 139 586 137 588 c 0
 135 589 127 605 114 637 c 1
 103 637 l 1
 103 649 l 1
EndSplineSet
Fore
SplineSet
103 649 m 1
 287 649 l 1
 287 632 l 1
 164 634 l 1
 179 590 l 1
 179 589 l 2
 179 587 176 586 173 586 c 2
 149 586 l 2
 143 586 139 586 137 588 c 0
 135 589 127 605 114 637 c 1
 103 637 l 1
 103 649 l 1
EndSplineSet
EndChar

StartChar: u1D090
Encoding: 118928 118928 156
Width: 455
GlyphClass: 1
Flags: W
LayerCount: 2
Back
SplineSet
121 510 m 0
 127 510 137 502 137 494 c 0
 137 484 127 476 121 476 c 0
 113 476 103 484 103 494 c 0
 103 502 113 510 121 510 c 0
167 502 m 1
 352 502 l 1
 352 485 l 1
 228 487 l 1
 244 443 l 1
 244 442 l 2
 244 440 241 439 236 439 c 2
 212 439 l 2
 201 439 199 439 195 450 c 2
 179 490 l 1
 167 490 l 1
 167 502 l 1
EndSplineSet
Fore
SplineSet
121 510 m 0
 127 510 137 502 137 494 c 0
 137 484 127 476 121 476 c 0
 113 476 103 484 103 494 c 0
 103 502 113 510 121 510 c 0
167 502 m 1
 352 502 l 1
 352 485 l 1
 228 487 l 1
 244 443 l 1
 244 442 l 2
 244 440 241 439 236 439 c 2
 212 439 l 2
 201 439 199 439 195 450 c 2
 179 490 l 1
 167 490 l 1
 167 502 l 1
EndSplineSet
EndChar

StartChar: u1D091
Encoding: 118929 118929 157
Width: 455
GlyphClass: 1
Flags: W
LayerCount: 2
Back
SplineSet
334 510 m 0
 343 510 352 502 352 494 c 0
 352 484 343 476 334 476 c 0
 325 476 318 484 318 494 c 0
 318 502 325 510 334 510 c 0
103 502 m 1
 287 502 l 1
 287 485 l 1
 164 487 l 1
 179 443 l 1
 179 442 l 2
 179 440 176 439 173 439 c 2
 149 439 l 2
 143 439 139 439 137 441 c 0
 135 442 127 458 114 490 c 1
 103 490 l 1
 103 502 l 1
EndSplineSet
Fore
SplineSet
334 510 m 0
 343 510 352 502 352 494 c 0
 352 484 343 476 334 476 c 0
 325 476 318 484 318 494 c 0
 318 502 325 510 334 510 c 0
103 502 m 1
 287 502 l 1
 287 485 l 1
 164 487 l 1
 179 443 l 1
 179 442 l 2
 179 440 176 439 173 439 c 2
 149 439 l 2
 143 439 139 439 137 441 c 0
 135 442 127 458 114 490 c 1
 103 490 l 1
 103 502 l 1
EndSplineSet
EndChar

StartChar: u1D092
Encoding: 118930 118930 158
Width: 490
GlyphClass: 1
Flags: W
LayerCount: 2
Back
SplineSet
204 550 m 1
 386 550 l 1
 386 533 l 1
 262 535 l 1
 278 502 l 1
 287 502 l 1
 287 485 l 1
 164 487 l 1
 179 443 l 1
 179 442 l 2
 179 440 176 439 173 439 c 2
 149 439 l 2
 143 439 139 439 137 441 c 0
 135 442 127 458 114 490 c 1
 103 490 l 1
 103 502 l 1
 228 502 l 1
 215 538 l 1
 204 538 l 1
 204 550 l 1
EndSplineSet
Fore
SplineSet
204 550 m 1
 386 550 l 1
 386 533 l 1
 262 535 l 1
 278 502 l 1
 287 502 l 1
 287 485 l 1
 164 487 l 1
 179 443 l 1
 179 442 l 2
 179 440 176 439 173 439 c 2
 149 439 l 2
 143 439 139 439 137 441 c 0
 135 442 127 458 114 490 c 1
 103 490 l 1
 103 502 l 1
 228 502 l 1
 215 538 l 1
 204 538 l 1
 204 550 l 1
EndSplineSet
EndChar

StartChar: u1D093
Encoding: 118931 118931 159
Width: 547
GlyphClass: 1
Flags: W
LayerCount: 2
Back
SplineSet
260 550 m 1
 444 550 l 1
 444 533 l 1
 322 535 l 1
 336 502 l 1
 344 502 l 1
 344 485 l 1
 222 487 l 1
 233 460 238 447 238 444 c 0
 238 440 235 439 230 439 c 2
 208 439 l 2
 197 439 192 440 188 451 c 2
 173 490 l 1
 163 490 l 1
 163 502 l 1
 287 502 l 1
 271 538 l 1
 260 538 l 1
 260 550 l 1
121 509 m 0
 127 509 137 499 137 491 c 0
 137 484 127 475 121 475 c 0
 113 475 103 484 103 491 c 0
 103 499 113 509 121 509 c 0
EndSplineSet
Fore
SplineSet
260 550 m 1
 444 550 l 1
 444 533 l 1
 322 535 l 1
 336 502 l 1
 344 502 l 1
 344 485 l 1
 222 487 l 1
 233 460 238 447 238 444 c 0
 238 440 235 439 230 439 c 2
 208 439 l 2
 197 439 192 440 188 451 c 2
 173 490 l 1
 163 490 l 1
 163 502 l 1
 287 502 l 1
 271 538 l 1
 260 538 l 1
 260 550 l 1
121 509 m 0
 127 509 137 499 137 491 c 0
 137 484 127 475 121 475 c 0
 113 475 103 484 103 491 c 0
 103 499 113 509 121 509 c 0
EndSplineSet
EndChar

StartChar: u1D094
Encoding: 118932 118932 160
Width: 490
GlyphClass: 1
Flags: W
LayerCount: 2
Back
SplineSet
164 562 m 0
 173 562 180 552 180 546 c 0
 180 538 173 528 164 528 c 0
 156 528 146 538 146 546 c 0
 146 552 156 562 164 562 c 0
204 550 m 1
 386 550 l 1
 386 533 l 1
 262 535 l 1
 278 502 l 1
 287 502 l 1
 287 485 l 1
 164 487 l 1
 179 443 l 1
 179 442 l 2
 179 440 176 439 173 439 c 2
 149 439 l 2
 143 439 139 439 137 441 c 0
 135 442 127 458 114 490 c 1
 103 490 l 1
 103 502 l 1
 228 502 l 1
 215 538 l 1
 204 538 l 1
 204 550 l 1
EndSplineSet
Fore
SplineSet
164 562 m 0
 173 562 180 552 180 546 c 0
 180 538 173 528 164 528 c 0
 156 528 146 538 146 546 c 0
 146 552 156 562 164 562 c 0
204 550 m 1
 386 550 l 1
 386 533 l 1
 262 535 l 1
 278 502 l 1
 287 502 l 1
 287 485 l 1
 164 487 l 1
 179 443 l 1
 179 442 l 2
 179 440 176 439 173 439 c 2
 149 439 l 2
 143 439 139 439 137 441 c 0
 135 442 127 458 114 490 c 1
 103 490 l 1
 103 502 l 1
 228 502 l 1
 215 538 l 1
 204 538 l 1
 204 550 l 1
EndSplineSet
EndChar

StartChar: u1D095
Encoding: 118933 118933 161
Width: 542
GlyphClass: 1
Flags: W
LayerCount: 2
Back
SplineSet
424 562 m 0
 432 562 439 552 439 546 c 0
 439 538 432 528 424 528 c 0
 415 528 406 538 406 546 c 0
 406 552 415 562 424 562 c 0
204 550 m 1
 386 550 l 1
 386 533 l 1
 262 535 l 1
 278 502 l 1
 287 502 l 1
 287 485 l 1
 164 487 l 1
 179 443 l 1
 179 442 l 2
 179 440 176 439 173 439 c 2
 149 439 l 2
 143 439 139 439 137 441 c 0
 135 442 127 458 114 490 c 1
 103 490 l 1
 103 502 l 1
 228 502 l 1
 215 538 l 1
 204 538 l 1
 204 550 l 1
EndSplineSet
Fore
SplineSet
424 562 m 0
 432 562 439 552 439 546 c 0
 439 538 432 528 424 528 c 0
 415 528 406 538 406 546 c 0
 406 552 415 562 424 562 c 0
204 550 m 1
 386 550 l 1
 386 533 l 1
 262 535 l 1
 278 502 l 1
 287 502 l 1
 287 485 l 1
 164 487 l 1
 179 443 l 1
 179 442 l 2
 179 440 176 439 173 439 c 2
 149 439 l 2
 143 439 139 439 137 441 c 0
 135 442 127 458 114 490 c 1
 103 490 l 1
 103 502 l 1
 228 502 l 1
 215 538 l 1
 204 538 l 1
 204 550 l 1
EndSplineSet
EndChar

StartChar: u1D096
Encoding: 118934 118934 162
Width: 589
GlyphClass: 1
Flags: W
LayerCount: 2
Back
SplineSet
485 581 m 1
 362 582 l 1
 377 550 l 1
 386 550 l 1
 386 533 l 1
 262 535 l 1
 278 502 l 1
 287 502 l 1
 287 485 l 1
 164 487 l 1
 179 443 l 1
 179 442 l 2
 179 440 176 439 173 439 c 2
 149 439 l 2
 143 439 139 439 137 441 c 0
 135 442 127 458 114 490 c 1
 103 490 l 1
 103 502 l 1
 228 502 l 1
 215 538 l 1
 204 538 l 1
 204 550 l 1
 329 550 l 1
 312 584 l 1
 302 584 l 1
 302 598 l 1
 485 598 l 1
 485 581 l 1
EndSplineSet
Fore
SplineSet
485 581 m 1
 362 582 l 1
 377 550 l 1
 386 550 l 1
 386 533 l 1
 262 535 l 1
 278 502 l 1
 287 502 l 1
 287 485 l 1
 164 487 l 1
 179 443 l 1
 179 442 l 2
 179 440 176 439 173 439 c 2
 149 439 l 2
 143 439 139 439 137 441 c 0
 135 442 127 458 114 490 c 1
 103 490 l 1
 103 502 l 1
 228 502 l 1
 215 538 l 1
 204 538 l 1
 204 550 l 1
 329 550 l 1
 312 584 l 1
 302 584 l 1
 302 598 l 1
 485 598 l 1
 485 581 l 1
EndSplineSet
EndChar

StartChar: u1D097
Encoding: 118935 118935 163
Width: 390
GlyphClass: 1
Flags: W
LayerCount: 2
Back
SplineSet
287 490 m 1
 276 490 l 1
 259 450 l 2
 254 439 254 439 243 439 c 2
 217 439 l 2
 213 439 211 440 211 442 c 2
 226 485 l 1
 103 485 l 1
 103 502 l 1
 287 502 l 1
 287 490 l 1
EndSplineSet
Fore
SplineSet
287 490 m 1
 276 490 l 1
 259 450 l 2
 254 439 254 439 243 439 c 2
 217 439 l 2
 213 439 211 440 211 442 c 2
 226 485 l 1
 103 485 l 1
 103 502 l 1
 287 502 l 1
 287 490 l 1
EndSplineSet
EndChar

StartChar: u1D098
Encoding: 118936 118936 164
Width: 390
GlyphClass: 1
Flags: W
LayerCount: 2
Back
SplineSet
287 502 m 1
 287 490 l 1
 276 490 l 1
 259 449 l 2
 255 439 254 439 243 439 c 2
 217 439 l 2
 213 439 211 440 211 442 c 2
 226 487 l 1
 103 485 l 1
 103 502 l 1
 128 502 l 1
 144 539 l 2
 147 546 152 550 163 550 c 2
 182 550 l 2
 189 550 193 548 193 544 c 2
 179 502 l 1
 287 502 l 1
EndSplineSet
Fore
SplineSet
287 502 m 1
 287 490 l 1
 276 490 l 1
 259 449 l 2
 255 439 254 439 243 439 c 2
 217 439 l 2
 213 439 211 440 211 442 c 2
 226 487 l 1
 103 485 l 1
 103 502 l 1
 128 502 l 1
 144 539 l 2
 147 546 152 550 163 550 c 2
 182 550 l 2
 189 550 193 548 193 544 c 2
 179 502 l 1
 287 502 l 1
EndSplineSet
EndChar

StartChar: u1D099
Encoding: 118937 118937 165
Width: 490
GlyphClass: 1
Flags: W
LayerCount: 2
Back
SplineSet
287 538 m 1
 276 538 l 1
 260 502 l 1
 386 502 l 1
 386 490 l 1
 374 490 l 1
 360 451 l 2
 356 439 351 439 338 439 c 2
 318 439 l 2
 313 439 310 441 310 445 c 0
 310 449 312 455 313 458 c 2
 325 487 l 1
 204 485 l 1
 204 502 l 1
 210 502 l 1
 226 535 l 1
 103 533 l 1
 103 550 l 1
 287 550 l 1
 287 538 l 1
EndSplineSet
Fore
SplineSet
287 538 m 1
 276 538 l 1
 260 502 l 1
 386 502 l 1
 386 490 l 1
 374 490 l 1
 360 451 l 2
 356 439 351 439 338 439 c 2
 318 439 l 2
 313 439 310 441 310 445 c 0
 310 449 312 455 313 458 c 2
 325 487 l 1
 204 485 l 1
 204 502 l 1
 210 502 l 1
 226 535 l 1
 103 533 l 1
 103 550 l 1
 287 550 l 1
 287 538 l 1
EndSplineSet
EndChar

StartChar: u1D09A
Encoding: 118938 118938 166
Width: 521
GlyphClass: 1
Flags: W
LayerCount: 2
Back
SplineSet
287 439 m 1
 276 439 l 1
 260 404 l 1
 386 404 l 1
 386 391 l 1
 374 391 l 1
 360 354 l 2
 356 343 351 343 339 343 c 2
 318 343 l 2
 313 343 310 345 310 348 c 0
 310 352 311 357 313 361 c 2
 325 390 l 1
 204 388 l 1
 204 404 l 1
 210 404 l 1
 226 438 l 1
 103 434 l 1
 103 452 l 1
 287 452 l 1
 287 439 l 1
232 290 m 1
 239 296 248 300 259 300 c 0
 274 300 296 291 325 274 c 1
 353 297 372 308 403 308 c 1
 403 302 l 1
 384 302 362 290 338 266 c 1
 363 250 383 236 397 223 c 0
 411 210 418 200 418 193 c 0
 418 187 412 184 399 184 c 0
 396 184 395 184 390 185 c 0
 369 209 346 230 319 247 c 1
 262 185 l 1
 230 185 l 1
 304 258 l 1
 274 272 250 281 232 283 c 1
 232 290 l 1
EndSplineSet
Fore
SplineSet
287 439 m 1
 276 439 l 1
 260 404 l 1
 386 404 l 1
 386 391 l 1
 374 391 l 1
 360 354 l 2
 356 343 351 343 339 343 c 2
 318 343 l 2
 313 343 310 345 310 348 c 0
 310 352 311 357 313 361 c 2
 325 390 l 1
 204 388 l 1
 204 404 l 1
 210 404 l 1
 226 438 l 1
 103 434 l 1
 103 452 l 1
 287 452 l 1
 287 439 l 1
232 290 m 1
 239 296 248 300 259 300 c 0
 274 300 296 291 325 274 c 1
 353 297 372 308 403 308 c 1
 403 302 l 1
 384 302 362 290 338 266 c 1
 363 250 383 236 397 223 c 0
 411 210 418 200 418 193 c 0
 418 187 412 184 399 184 c 0
 396 184 395 184 390 185 c 0
 369 209 346 230 319 247 c 1
 262 185 l 1
 230 185 l 1
 304 258 l 1
 274 272 250 281 232 283 c 1
 232 290 l 1
EndSplineSet
EndChar

StartChar: u1D09B
Encoding: 118939 118939 167
Width: 432
GlyphClass: 1
Flags: W
LayerCount: 2
Back
SplineSet
287 404 m 1
 287 391 l 1
 276 391 l 1
 259 353 l 2
 255 344 253 343 240 343 c 2
 217 343 l 2
 213 343 211 344 211 346 c 2
 226 390 l 1
 103 388 l 1
 103 404 l 1
 128 404 l 1
 144 442 l 2
 148 452 150 452 162 452 c 2
 182 452 l 2
 189 452 192 450 193 445 c 2
 179 404 l 1
 287 404 l 1
142 290 m 1
 148 296 157 300 167 300 c 0
 181 300 204 291 235 274 c 1
 260 297 286 308 311 308 c 1
 311 302 l 1
 292 302 271 290 247 266 c 1
 302 229 329 205 329 193 c 0
 329 187 323 185 309 184 c 0
 306 184 303 184 300 185 c 0
 273 214 249 234 228 247 c 1
 173 185 l 1
 138 185 l 1
 215 258 l 1
 184 272 160 281 142 283 c 1
 142 290 l 1
EndSplineSet
Fore
SplineSet
287 404 m 1
 287 391 l 1
 276 391 l 1
 259 353 l 2
 255 344 253 343 240 343 c 2
 217 343 l 2
 213 343 211 344 211 346 c 2
 226 390 l 1
 103 388 l 1
 103 404 l 1
 128 404 l 1
 144 442 l 2
 148 452 150 452 162 452 c 2
 182 452 l 2
 189 452 192 450 193 445 c 2
 179 404 l 1
 287 404 l 1
142 290 m 1
 148 296 157 300 167 300 c 0
 181 300 204 291 235 274 c 1
 260 297 286 308 311 308 c 1
 311 302 l 1
 292 302 271 290 247 266 c 1
 302 229 329 205 329 193 c 0
 329 187 323 185 309 184 c 0
 306 184 303 184 300 185 c 0
 273 214 249 234 228 247 c 1
 173 185 l 1
 138 185 l 1
 215 258 l 1
 184 272 160 281 142 283 c 1
 142 290 l 1
EndSplineSet
EndChar

StartChar: u1D09C
Encoding: 118940 118940 168
Width: 432
GlyphClass: 1
Flags: W
LayerCount: 2
Back
SplineSet
287 404 m 1
 287 391 l 1
 276 391 l 1
 259 353 l 2
 255 344 254 343 241 343 c 2
 217 343 l 2
 213 343 211 344 211 346 c 2
 226 390 l 1
 103 388 l 1
 103 404 l 1
 287 404 l 1
142 290 m 1
 148 296 157 300 167 300 c 0
 181 300 204 291 235 274 c 1
 260 297 286 308 311 308 c 1
 311 302 l 1
 292 302 271 290 247 266 c 1
 302 229 329 205 329 193 c 0
 329 187 323 185 309 184 c 0
 306 184 303 184 300 185 c 0
 273 214 249 234 228 247 c 1
 173 185 l 1
 138 185 l 1
 215 258 l 1
 184 272 160 281 142 283 c 1
 142 290 l 1
EndSplineSet
Fore
SplineSet
287 404 m 1
 287 391 l 1
 276 391 l 1
 259 353 l 2
 255 344 254 343 241 343 c 2
 217 343 l 2
 213 343 211 344 211 346 c 2
 226 390 l 1
 103 388 l 1
 103 404 l 1
 287 404 l 1
142 290 m 1
 148 296 157 300 167 300 c 0
 181 300 204 291 235 274 c 1
 260 297 286 308 311 308 c 1
 311 302 l 1
 292 302 271 290 247 266 c 1
 302 229 329 205 329 193 c 0
 329 187 323 185 309 184 c 0
 306 184 303 184 300 185 c 0
 273 214 249 234 228 247 c 1
 173 185 l 1
 138 185 l 1
 215 258 l 1
 184 272 160 281 142 283 c 1
 142 290 l 1
EndSplineSet
EndChar

